<?xml version="1.0" encoding="UTF-8"?>
<svg width="435px" height="288px" viewBox="0 0 435 288" version="1.1" xmlns="http://www.w3.org/2000/svg" xmlns:xlink="http://www.w3.org/1999/xlink">
    <!-- Generator: Sketch 51.1 (57501) - http://www.bohemiancoding.com/sketch -->
    <title>xxxhdpi/ballet slippers</title>
    <desc>Created with Sketch.</desc>
    <defs>
        <path d="M70.5,248 C70.6389885,255.852848 74.4331713,259.856759 77,263.5 C79.5668287,267.143241 82.0679486,267.874567 86,270 C89.9320514,272.125433 88.849007,272.114376 95.5,273.5 C102.150993,274.885624 98.8067099,275 110,275 C121.19329,275 123.571918,274.930782 132.5,273.5 C141.428082,272.069218 136.766687,273.768795 149,268.75 C161.233313,263.731205 153.401292,266.704044 171.5,257.5 C189.598708,248.295956 199.527285,243.299013 207.5,239 C215.472715,234.700987 217.220103,233.931838 222.5,230 C227.779897,226.068162 225.652676,225.934366 231,221.5 C236.347324,217.065634 231.143943,214.170969 243,213 C254.856057,211.829031 252.736876,213.603044 271.5,217.5 C290.263124,221.396956 292.154797,223.055391 308,226.5 C323.845203,229.944609 326.219599,230.177984 340.5,232.5 C354.780401,234.822016 357.012639,235.583496 369.5,236.5 C381.987361,237.416504 385.456189,237.977018 395,236.5 C404.543811,235.022982 404.719444,233.698485 411.5,230 C418.280556,226.301515 419.978453,225.396937 422.5,221.5 C425.021547,217.603063 425.792825,218.986954 422.5,213 C420.466188,209.302159 417.169348,205.739913 412.609482,202.313259 C409.569571,200.028824 409.199744,199.757738 411.5,201.5 L385,187 C326.80312,178.837099 292.636453,173.170432 282.5,170 C267.29532,165.244351 270.601624,156.171556 271.5,151.5 C272.398376,146.828444 278.321612,147.017552 287.5,144 C296.678388,140.982448 301.293277,141.460427 308,139.5 C314.706723,137.539573 315.784629,138.307432 320,134.5 C324.215371,130.692568 325.16799,130.920966 323.5,125.5 C321.83201,120.079034 321.438723,119.617138 314,115 C306.561277,110.382862 304.050674,110.09401 294.5,107.5 C284.949326,104.90599 288.572387,104 273.5,104 C258.427613,104 254.480386,105.023838 243,107.5 C231.519614,109.976162 236.344561,107.770063 222.5,115 C208.655439,122.229937 237.352753,112.416756 198,131 C158.647247,149.583244 142.368089,148.639551 114.5,166 C86.6319108,183.360449 86.4921434,187.44646 76,207 C65.5078566,226.55354 70.3610115,240.147152 70.5,248 Z" id="path-1"></path>
        <filter x="-4.9%" y="-9.1%" width="109.8%" height="120.5%" filterUnits="objectBoundingBox" id="filter-2">
            <feOffset dx="0" dy="2" in="SourceAlpha" result="shadowOffsetOuter1"></feOffset>
            <feGaussianBlur stdDeviation="5.5" in="shadowOffsetOuter1" result="shadowBlurOuter1"></feGaussianBlur>
            <feColorMatrix values="0 0 0 0 0   0 0 0 0 0   0 0 0 0 0  0 0 0 0.679913949 0" type="matrix" in="shadowBlurOuter1"></feColorMatrix>
        </filter>
    </defs>
    <g id="Page-1" stroke="none" stroke-width="1" fill="none" fill-rule="evenodd">
        <g id="ballet-slippers" fill-rule="nonzero">
            <g id="Path-15" fill="black" fill-opacity="1">
                <use filter="url(#filter-2)" xlink:href="#path-1"></use>
            </g>
            <path d="M173,174 C173.111763,177.107 178.179371,175.318485 184,177 C189.820629,178.681515 189.302921,178.075056 195.5,180.5 C201.697079,182.924944 200.824353,182.846478 207,186 C213.175647,189.153522 211.538384,188.837025 219,192.5 C226.461616,196.162975 225.838101,195.694014 234.5,199.5 C243.161899,203.305986 244.203531,203.858139 252,207 C259.796469,210.141861 256.950738,209.600227 268,213 C279.049262,216.399773 280.368398,216.755551 291,219 C301.631602,221.244449 301.383497,220.968153 313,222.5 C324.616503,224.031847 324.544962,223.867417 336.5,225 C348.455038,226.132583 347.576566,226.483063 360.5,227 C373.423434,227.516937 377.5,229.5 386.5,227 C388,225 390.824043,220.224876 394,214 C397.175957,207.775124 397.944529,205.930282 399,202.5 C399.703648,200.213145 399.703648,197.879812 399,195.5 C396.300948,192.561468 393.634282,189.894802 391,187.5 C387.048577,183.907798 389.864592,186.297657 382.5,180.5 C375.135408,174.702343 373.399305,173.0031 367.5,169 C361.600695,164.9969 361.856484,165.57234 354.5,161.5 C347.143516,157.42766 351.959132,158.753851 339.5,153.5 C327.040868,148.246149 328.220558,148.723621 313,144 C297.779442,139.276379 293.204138,138.346953 281.5,135.5 C269.795862,132.653047 266.921182,132.362327 257.5,130.5 C248.078818,128.637673 246.010451,128.681444 238.5,127 C230.989549,125.318556 232.650905,125.609003 224,123 C215.349095,120.390997 213.827363,120.003366 207,117.5 C200.172637,114.996634 200.068589,114.379839 194,112 C189.954274,110.413441 185.787607,108.913441 181.5,107.5 C175.758825,149.762 172.925492,171.928666 173,174 Z" id="Path-3" stroke="#000000" fill="#F9D2C8"></path>
            <path d="M206,123 C211.773566,124.747263 206.17286,123.679617 217,126.75 C227.82714,129.820383 228.694594,129.889705 239.5,132.5 C250.305406,135.110295 250.5,135 261.5,137.5 C272.5,140 273.667129,140.392956 283.5,142.5 C293.332871,144.607044 295.444949,144.654833 302.5,146.5 C309.555051,148.345167 310.807061,148.976628 313,150 C315.192939,151.023372 316.50417,150.792862 317.5,152.5 C318.49583,154.207138 319.270228,154.22718 318.5,157 C317.729772,159.77282 318.513853,160.105854 316,162.5 C313.486147,164.894146 313,166 305,167 C297,168 302,167 289.5,167 C277,167 272.904231,167.512453 264.5,167 C256.095769,166.487547 257.668906,166.118042 248.5,164.5 C239.331094,162.881958 243.058711,163.807241 230.5,161 C217.941289,158.192759 220.113835,158.328735 206,155 C196.590777,152.780844 187.090777,150.614177 177.5,148.5 C176.879804,139.852593 176.879804,133.185927 177.5,128.5 C178.120196,123.814073 179.620196,119.147407 182,114.5 C187.022213,116.681478 190.68888,118.181478 193,119 C196.46668,120.227783 200.226434,121.252737 206,123 Z" id="Path-5" stroke="#000000" fill="#C76757"></path>
            <path d="M270.139271,167.215432 C268.394893,167.190837 266.579314,167.126787 264.5,167 C256.095769,166.487547 257.668906,166.118042 248.5,164.5 C239.331094,162.881958 243.058711,163.807241 230.5,161 C217.941289,158.192759 220.113835,158.328735 206,155 C205.333788,154.842875 204.667122,154.686012 204,154.529413 L204,152.5 C209.819699,153.34315 215.653032,154.176483 221.5,155 C230.270452,156.235275 230.987039,155.975291 239.5,157.5 C248.012961,159.024709 248.267263,158.91053 255,161 C261.732737,163.08947 262.218149,163.644613 268.5,166.5 C269.06404,166.756382 269.610011,166.993508 270.139271,167.215432 Z" id="Combined-Shape" stroke="#000000" fill="#9F4E3D"></path>
            <path d="M192,132 C193.856916,130.940646 195.856916,129.607313 198,128 C201.214625,125.589031 201.543219,124.535488 204,123 C206.456781,121.464512 208.154881,121.145792 210,120.5 C211.845119,119.854208 209.5,120.5 214,119.5 C217.249575,120.101773 220.416242,121.26844 223.5,123 L223.5,119.5 C221.651638,117.96357 219.651638,116.796903 217.5,116 C214.272542,114.804645 213.881988,114.875676 210,114.5 C206.118012,114.124324 205.868012,114.125676 202,114.5 C198.131988,114.874324 196.27387,115.379145 194.5,116 C193.31742,116.413903 192.484086,117.08057 192,118 L192,132 Z" id="Path-11" stroke="#000000" fill="#CD7E71"></path>
            <path d="M183,137.5 C185,136.5 188,137.166667 192,139.5 C198,143 198,143 202.5,145.5 C207,148 210.847924,150.115058 214.5,152 C218.152076,153.884942 217.503213,153.5 221,157.5 C224.496787,161.5 224.496787,161.5 227,166.5 C229.503213,171.5 228.503213,171 230.5,175.5 C232.496787,180 232.196486,180.892972 234.5,185.5 C236.803514,190.107028 236.493664,189.824885 240,194.5 C243.506336,199.175115 243.588765,199.088765 248,203.5 C252.411235,207.911235 251.323826,207.059061 257.5,212 C263.676174,216.940939 266.122886,218.416124 270.5,221.5 C274.877114,224.583876 274.294926,224.507083 279.5,227.5 C284.705074,230.492917 285.314738,230.878756 290.5,233 C295.685262,235.121244 293.658721,234.467076 301.5,236.5 C309.341279,238.532924 309.384209,237.971052 317.5,240 C325.615791,242.028948 326.260303,242.482379 333.5,244.5 C340.739697,246.517621 342.259817,246.586606 348,248.5 C351.826788,249.775596 355.493455,251.275596 359,253 L351.5,256 L342.5,264.5 C340.352159,262.969294 337.852159,261.469294 335,260 C330.721761,257.796059 330.684069,257.47918 326,256 C321.315931,254.52082 321.663156,254.790208 316,254 C310.336844,253.209792 311.669234,254.265159 304.5,253 C297.330766,251.734841 296.18802,251.206406 290.5,249.5 C284.81198,247.793594 286.421146,248.816382 279.5,245.5 C272.578854,242.183618 272.261812,242.258731 266.5,238 C260.738188,233.741269 261.586175,233.847004 256.5,228.5 C251.413825,223.152996 251.672268,223.182488 247,217.5 C242.327732,211.817512 241.233721,210.419419 238,206 C234.766279,201.580581 234.303473,200.915904 232,197 C229.696527,193.084096 229.217161,192.894916 228,189 C226.782839,185.105084 226.806693,185.000535 225,181 C223.193307,176.999465 223,174.5 220,169.5 C217,164.5 218.212843,165.670274 213,161.5 C207.787157,157.329726 207.854761,157 201,154.5 C194.145239,152 194.145239,152 190.5,150.5 C186.854761,149 186.456423,147.003478 183,146 C180.695718,145.331015 178.029051,145.331015 175,146 C176.639799,141.070214 177.806465,138.236881 178.5,137.5 C179.193535,136.763119 180.693535,136.763119 183,137.5 Z" id="Path-12" stroke="#000000" fill="#FFD8CB"></path>
            <path d="M361.5,169.5 C357.618196,168.633567 353.95153,167.4669 350.5,166 C345.677294,163.95035 346.327072,163.032451 341.5,161 C336.827072,159.032451 336.607149,159.056651 331.5,158 C329.357149,157.556651 328.588566,157.0385 327,158 C323.838566,159.9135 325.20316,161.521714 322,163.75 C319.45316,165.521714 318.769579,166 315.5,166 C312.019579,166 311.179419,165.613944 308.5,163.75 C305.429419,161.613944 304.535532,161.012366 304,158 C303.535532,155.387366 304.000804,154.347232 306.5,152.5 C309.750804,150.097232 310.840621,150.401815 315.5,149.5 C318.590621,148.901815 319.227599,148.66828 322,149.5 C324.227599,150.16828 323.905604,150.905604 325.5,152.5 C327.405604,154.405604 327.096479,155.865493 329,156.5 C330.096479,156.865493 330.837489,155.736687 331.5,154.5 C332.712489,152.236687 332.75,151.988831 332.75,149.5 C332.75,147.488831 333.057206,146.583274 331.5,145.5 C330.182206,144.583274 328.974295,146.123461 327,145.5 C324.224295,144.623461 324.56744,143.926355 322,142.5 C320.06744,141.426355 319.296458,140.5 318,140.5 C317.296458,140.5 317.366167,141.707708 318,142.5 C319.366167,144.207708 320.424048,143.748942 322,145.5 C324.924048,148.748942 325.317466,148.774389 327,152.5 C328.817466,156.524389 327.61157,156.834709 329,161 C329.86157,163.584709 329.756868,163.699066 331.5,166 C336.006868,171.949066 336.504532,171.747643 341.5,177.5 C343.669688,179.998429 345.836355,182.498429 348,185" id="Path-14" stroke="#000000" stroke-width="3"></path>
            <g id="Group-37" stroke="#000000">
                <path d="M175,176.5 C176.051523,174.305518 175.119161,175.805658 177,183.5 C178.880839,191.194342 178.924271,193.537474 180.5,199 C182.075729,204.462526 181.680321,202.873754 184.5,209.5 C187.319679,216.126246 188.131352,217.085947 190.5,222.5 C192.868648,227.914053 192.962241,229.084855 195,233.5 C197.037759,237.915145 196.075903,237.75412 199.5,242 C202.924097,246.24588 199.886824,244.717588 207.5,249 C215.113176,253.282412 217.334934,253.336819 223.5,255.5 C229.665066,257.663181 234.094077,258.285279 236,259 C237.270615,259.476481 238.437282,260.309814 239.5,261.5 L219,272 C218.843153,271.972558 216.843153,270.805892 213,268.5 C207.235271,265.041162 205.657377,263.786558 201.5,261.5 C197.342623,259.213442 197.317917,259.785956 193,257.5 C188.682083,255.214044 188.184453,254.457366 184.5,252.5 C182.043698,251.195089 179.543698,250.028423 177,249 L175,245.5 C173.538693,239.437301 172.538693,234.770635 172,231.5 C171.191961,226.594048 171.549094,228.59489 168.5,220.25 C166.46727,214.68674 165.46727,210.43674 165.5,207.5 C171.132318,188.296321 174.298985,177.962988 175,176.5 Z" id="Path-10" fill="#E6B1A3"></path>
                <path d="M72,253 C73.9863007,257.717464 74.1189159,258.425823 80,263 C85.8810841,267.574177 83.5922891,265.061027 89,268 C94.4077109,270.938973 92.5651283,270.213195 100,271.5 C107.434872,272.786805 109.434872,272.463195 115,271.5 C120.565128,270.536805 119.183521,272.254369 126,267 C132.816479,261.745631 131.303485,263.345769 139,254 C146.696515,244.654231 146.900878,244.835502 154,234 C161.099122,223.164498 160.364927,224.431727 166.5,210.5 C172.635073,196.568273 173.480595,193.237033 177,179.5 C180.519405,165.762967 179.794657,164.102517 181,150 C182.205343,135.897483 182.11667,132.15204 183,121 C183.88333,109.84796 183.574226,113.060354 187,99.5 C190.425774,85.9396464 191.874842,84.1032138 195,73.5 C198.125158,62.8967862 197.802951,62.5976355 200,53 C202.197049,43.4023645 202.5,39.9032571 202.5,32 C202.5,24.0967429 203.323019,22.9799994 201,16.5 C198.676981,10.0200006 199.449055,10.6709886 195,6.5 C190.550945,2.32901137 190.199768,2.51458887 185,1.5 C179.800232,0.485411131 179.796774,0.491090607 174.5,1.5 C169.203226,2.50890939 167.956546,2.97220669 164,5.5 C160.043454,8.02779331 160.053812,9.20109747 156.5,13 C152.946188,16.7989025 153.468278,16.6348937 149.5,21 C145.531722,25.3651063 144.921998,24.3670032 141.5,29.5 C138.078002,34.6329968 137.613669,36.5489582 135.5,42 C133.386331,47.4510418 133.855157,48.3108534 132,54 C130.144843,59.6891466 129.773657,60.0337607 128,65 C126.226343,69.9662393 127.917803,69.650395 124.5,75 C121.082197,80.349605 123.823549,75.0254692 116.5,83 C109.176451,90.9745308 106.816113,92.4852267 102,99.5 C97.183887,106.514773 98.722025,106.193372 93.5,116.5 C88.277975,126.806628 86.9955569,128.453948 83,137 C79.0044431,145.546052 78.1004782,147.740332 75.5,155 C72.8995218,162.259668 73.0411914,162.21166 71,176.5 C68.9588086,190.78834 69.3458301,192.545908 69,200.5 C68.6541699,208.454092 69,209.75 69,216.5 C69,223.25 69,224.5 69,230 C69,235.5 68.4471277,234.365533 69,241 C69.5528723,247.634467 70.0136993,248.282536 72,253 Z" id="Path-2" fill="#FCC3B4"></path>
                <path d="M195,49.5 C195.961356,42.1296049 196.330787,40.7044694 196.5,34.5 C196.669213,28.2955306 196.824749,27.0154975 195.75,22 C194.675251,16.9845025 194.769749,16.5827883 193,13.5 C191.230251,10.4172117 191.549604,10.5062981 188,8.5 C184.450396,6.49370185 184.747964,6 180.5,6 C176.252036,6 176.16157,5.35616088 172,7.5 C167.83843,9.64383912 168.119777,10.2514802 164,14.5 C159.880223,18.7485198 160.224372,18.9274659 156,25 C151.775628,31.0725341 151.232057,31.4373564 148,38.5 C144.767943,45.5626436 144.372644,46.8923841 142.5,54.5 C140.627356,62.1076159 140.815955,63.9783084 139,71 C137.184045,78.0216916 138.210499,72.9161736 133,83.5 C127.789501,94.0838264 127.494016,96.5119686 124,103.5 C120.505984,110.488031 119.807163,110.485645 117.5,118.5 C115.192837,126.514355 115.184849,128.738378 114.5,136.5 C113.815151,144.261622 114.274308,145.954939 114.5,152.5 C114.725692,159.045061 113.298613,159.996532 115.5,165.5 C117.701387,171.003468 116.453771,169.934275 122.5,173.5 C128.546229,177.065725 129.518354,176.650108 135,177 C140.481646,177.349892 141.974781,176.502163 146,174 C150.025219,171.497837 147.969546,173.642057 153.5,165.5 C159.030454,157.357943 159.705753,155.856373 164,147.5 C168.294247,139.143627 169.455652,136.708987 172,129.5 C174.544348,122.291013 174.41803,120.166872 176,113.5 C177.58197,106.833128 178.176349,103.935221 179,100 C179.823651,96.0647786 178.984522,95.9953511 180.5,92 C182.015478,88.0046489 183.132615,88.5206192 183.5,86.5 C183.867385,84.4793808 182.973363,83.3668132 182.5,81 C182.026637,78.6331868 180.458648,81.6240573 182.5,75.5 C184.541352,69.3759427 184.481852,68.6206054 187,64.5 C189.518148,60.3793946 191.132187,60.4310285 192.5,57.5 C193.867813,54.5689715 194.038644,56.8703951 195,49.5 Z" id="Path" fill="#CB5B4F"></path>
                <path d="M161.646635,152.075732 C159.1905,156.809762 157.840691,159.109538 153.5,165.5 C147.969546,173.642057 150.025219,171.497837 146,174 C141.974781,176.502163 140.481646,177.349892 135,177 C129.518354,176.650108 128.546229,177.065725 122.5,173.5 C116.453771,169.934275 117.701387,171.003468 115.5,165.5 C113.298613,159.996532 114.725692,159.045061 114.5,152.5 C114.274308,145.954939 113.815151,144.261622 114.5,136.5 C115.184849,128.738378 115.192837,126.514355 117.5,118.5 C119.807163,110.485645 120.505984,110.488031 124,103.5 C127.494016,96.5119686 127.789501,94.0838264 133,83.5 C138.210499,72.9161736 137.184045,78.0216916 139,71 C139.517653,68.9984091 139.872419,67.4153791 140.158477,65.9987096 C142.328905,62.6875893 142.72776,61.9624617 145,58.5 C147.484764,54.7136937 147.943128,53.3816416 150,51 C152.056872,48.6183584 151.10644,48.5328227 154.5,47.5 C157.89356,46.4671773 157.452059,46.5554805 161.5,47.5 C165.547941,48.4445195 165.775319,47.9908587 168.5,49 C171.224681,50.0091413 172.686253,49.800628 175,52.5 C177.313747,55.199372 177.674536,57.0189099 178.5,61.5 C179.325464,65.9810901 179.538899,64.6729469 178.5,71.5 C177.461101,78.3270531 176.734421,79.1811091 175,84.5 C173.265579,89.8188909 172.96275,87.490178 171,94.5 C169.03725,101.509822 169.340325,102.310984 168,109.5 C166.659675,116.689016 166.264445,117.508885 165.5,122 C164.735555,126.491115 164.172387,124.698421 163,131 C161.827613,137.301579 161.5,131.9799 161.5,145.5 C161.5,147.682921 161.548878,149.874832 161.646635,152.075732 Z" id="Combined-Shape" fill="#EA8372"></path>
                <path d="M138.5,72 C135.661328,74.6999708 132.661328,77.5333042 129.5,80.5 C124.758008,84.9500437 124.863969,83.5826427 118.5,90.5 C112.136031,97.4173573 112.017321,97.3494119 106.5,105.5 C100.982679,113.650588 101.437087,113.125826 96.5,123 C91.5629128,132.874174 91.2275289,132.938668 87.5,143.5 C83.7724711,154.061332 84.1077254,156.429651 81.5,165.5 C78.8922746,174.570349 79.0055274,174.608648 76,183.5 C72.9944726,192.391352 73.50229,192.870348 69.5,201 C65.49771,209.129652 66.1289948,208.405376 60,216 C53.8710052,223.594624 57.6060565,220.219597 46.5,229.5 C35.3939435,238.780403 25.813028,245.260878 23.5,246.5 C21.186972,247.739122 22.1826559,245.089225 18.5,244.5 C14.8173441,243.910775 16.25,244.5 11,244.5 C5.75,244.5 0.5,246.065464 0.5,244.5 C0.5,242.934536 3.84710205,242.076449 11,238.5 C18.1528979,234.923551 18.0832103,235.964146 25.5,232 C32.9167897,228.035854 34.9883346,226.654339 40,223 C45.0116654,219.345661 44.6634576,220.41133 49.5,214.5 C54.3365424,208.58867 52.9317831,210.991628 58,201 C63.0682169,191.008372 62.1539036,192.519082 67,180 C71.8460964,167.480918 72.2540754,164.415683 76,154.5 C79.7459246,144.584317 80.248813,143.440171 84,135 C87.751187,126.559829 86.550454,129.542501 92,118.5 C97.449546,107.457499 96.4335176,105.916088 103,96.5 C109.566482,87.083912 113.144286,85.7546632 118.5,80.5 C123.855714,75.2453368 125.316462,73.5330652 129.5,70.5 C133.683538,67.4669348 138.62522,65.0626099 140.5,66 C139.833333,68 139.166667,70 138.5,72 Z" id="Path-8" fill="#FFE4D4"></path>
                <path d="M138,204 C138,202.333333 138,200.666667 138,199 C138,195 138.543589,194.94102 138,191 C137.543589,187.69102 137.34428,187.636652 136,184.5 C135.09428,182.386652 134.585913,182.563234 133.5,180.5 C132.085913,177.813234 133.232912,176.997868 131,175 C128.482912,172.747868 127.620934,173.248598 124,172 C120.370934,170.748598 120.20869,171.098871 116.5,170 C113.45869,169.098871 112.961203,169.599782 110.5,168 C107.961203,166.349782 107.428477,166.053312 106.5,163.5 C105.428477,160.553312 105.969597,160.182418 106.5,157 C106.969597,154.182418 106.327664,152.905629 108.5,151.5 C110.577664,150.155629 112.785807,150.188949 116,150.5 C120.535807,150.938949 121.248648,152.124324 125,154 C129.248648,156.124324 128.619969,155.742057 131,159.5 C133.369969,163.242057 132.805215,163.692336 133.5,168 C134.055215,171.442336 132.242462,171.926018 133.5,175 C134.492462,177.426018 135.239275,177.667236 138,179 C142.489275,181.167236 142.860233,181.188458 148,182 C152.360233,182.688458 152.747684,182.823029 157,182 C160.497684,181.323029 161.768882,181.263769 163.5,179 C165.018882,177.013769 164.419787,176.029414 163.5,173.5 C162.419787,170.529414 162.247059,169.922941 159.5,168 C157.247059,166.422941 156.536166,166.5 153.5,166.5 C149.286166,166.5 148.92881,166.605906 145,168 C141.17881,169.355906 141.426029,169.912263 138,172 C133.426029,174.787263 133.578684,174.970085 129,177.75 C126.578684,179.220085 126.587972,179.252228 124,180.5 C119.587972,182.627228 119.244213,182.172528 115,184.5 C111.494213,186.422528 111.061565,186.248689 108.5,189 C105.70771,191.999126 103.374377,195.33246 101.5,199" id="Path-13" stroke-width="3"></path>
                <path d="M191.5,60 C193.292016,59.0681516 193.808335,66.5833459 194.5,73.5 C195.191665,80.4166541 194.880157,81.8899739 194.5,90 C194.119843,98.1100261 193.369843,97.6100261 193,105.5 C192.630157,113.389974 193.801568,114.117915 193,122 C192.198432,129.882085 193.717017,125.707457 190,135 C186.282983,144.292543 184.365126,147.247045 181,150.5 C181,149.166667 181.166667,146.833333 181.5,143.5 C181.5,141.833333 181.666667,139.833333 182,137.5 C184.572208,134.250895 185.366375,132.379858 187,128.5 C188.633625,124.620142 189.350377,123.480446 190,118.5 C190.649623,113.519554 190.374665,111.494647 190,105.5 C189.625335,99.5053534 190.646343,101.599443 188.5,94.5 C186.353657,87.4005573 184.279463,85.7388019 183.5,84 C182.720537,82.2611981 186,89 181,79 C181.878976,73.1083864 185.261029,68.1150538 186.752102,65.3734653 C189.38421,60.5338919 190.356034,60.5948625 191.5,60 Z" id="Path-9" fill="#FCB9A9"></path>
            </g>
        </g>
    </g>
</svg>