<?xml version="1.0" encoding="UTF-8"?>
<svg width="514px" height="1652px" viewBox="0 0 514 1652" version="1.1" xmlns="http://www.w3.org/2000/svg" xmlns:xlink="http://www.w3.org/1999/xlink">
    <!-- Generator: Sketch 51.1 (57501) - http://www.bohemiancoding.com/sketch -->
    <title>mdpi/Path</title>
    <desc>Created with Sketch.</desc>
    <defs></defs>
    <g id="Page-1" stroke="none" stroke-width="1" fill="none" fill-rule="evenodd">
        <path d="M3,1621 C8,1621 14,1629.5 17.5,1629.5 C19.8333333,1629.5 33,1631.33333 57,1635 L96.5,1635 L124,1628 L144.5,1610 L158.5,1604.5 L192.5,1604.5 L205.5,1590 L208.5,1496.5 L214.5,1436 L200,1421.5 L200,1406.5 L208.5,1384 L205.5,1313 L208.5,1297.5 L220,1268 L223,1230.5 L220,1180.5 L214.5,1151.5 L214.5,1128 L214.5,1106.5 L223,1096.5 L228,1128 C232.666667,1167.66667 233.833333,1187.5 231.5,1187.5 C229.166667,1187.5 229.166667,1205.33333 231.5,1241 L235,1289.5 L241,1319 L249,1338 L249,1357.5 L241,1377 L235,1394 L231.5,1414 L241,1431.5 L253.5,1451 L258,1467.5 L249,1492 L235,1517.5 L231.5,1544 L238,1565.5 L258,1582 L263,1598.5 L253.5,1614.5 L249,1635 L258,1647.5 L298,1652 L343,1652 L362.5,1639.5 L362.5,1625 L354,1598.5 L349,1578 L354,1556.5 L366.5,1527.5 L371,1507.5 L366.5,1496.5 L349,1482.5 L335.5,1467.5 L339.5,1451 L354,1398.5 L366.5,1308.5 L378.5,1160.5 L382.5,1081 L374.5,945 L382.5,934 L386,913.5 L382.5,879.5 L378.5,800.5 L374.5,747.5 L378.5,719.5 L395,756.5 L421,837.5 L435.5,891.5 L435.5,948 L428,987.5 L428,1006 L432,1020.5 L439,1026.5 L445.5,1020.5 L445.5,1002.5 L453,1020.5 L459,1035 L464.5,1040 L480.5,1030.5 L504.5,1006 L513.5,983 L504.5,960.5 L485,929 L480.5,876 L474,796.5 L449.5,702.5 L464.5,691 L464.5,682.5 L417.5,527 L410.5,509.5 L395,488 L389,471 L366.5,457 L339.5,447 L325,441 L309,424 L298,413 L276.5,413 L268.5,405 L268.5,386 L276.5,365 L289.5,338 L298,338 L313.5,324.5 L329,303 L325,285.5 L317,285.5 L309,285.5 L305.5,280 L309,276 L309,215.5 L302.5,174 L298,157 L268.31839,38.4868568 L288,38.4868568 L275,32.6887925 L296.5,25.7590948 L281.5,22.5 L291,8.5 L275,16 L268.31839,0 L261,14 L250,0 L256.749606,20.1248859 L233.5,16 L246,25.7590948 L233.5,30.5 L254.003629,32.6887925 L238.5,45.5 L254.003629,41.418928 L124,174 L119.5,200.5 L119.5,246 L124,285.5 L115.5,280 L106,280 L96.5,285.5 L100.5,303 L115.5,324.5 L128,338 L144.5,338 L158.5,376.5 L165,405 L158.5,420 C142.5,426 134.5,429 134.5,429 C134.5,429 119.5,426 119.5,429 C119.5,431 118.166667,435 115.5,441 L112,447 L70,467 L44,497.5 L29,538.5 L17.5,605 L9.5,662.5 L0,702.5 L0,735.5 L13.5,743 L13.5,773.5 L13.5,837.5 L17.5,891.5 L21,926 L21,960.5 L17.5,987.5 L13.5,1020.5 L32.5,1040 L57,1064.5 L63,1124 L63,1273.5 L66.5,1308.5 L76,1338 L92.5,1377 L106,1398.5 L106,1417 L84.5,1444 L63,1467.5 L63,1492 L76,1523.5 L76,1549.5 L38,1575 L13.5,1598.5 C3.16666667,1613.5 -0.333333333,1621 3,1621 Z" id="Path" fill="#000000" fill-rule="nonzero"></path>
    </g>
</svg>