<svg xmlns="http://www.w3.org/2000/svg" viewBox="0 0 174.581 343.001"><title>Asset 6</title><g id="Layer_2" data-name="Layer 2"><g id="Layer_1-2" data-name="Layer 1"><path d="M165.64,165.162c-12.758-3.425-15.5-5.962-15.5-5.962s-13.926-5.133-16.113-5.224a14.613,14.613,0,0,1-3.238-1.054c-8.819-5.059-20.181-4.79-30.586-8.325-1.374-.491-2.772-1-3.992-1.472-2.468-.943-4.337-1.711-4.337-1.711l-11-8.745a46.213,46.213,0,0,0-5.859-3.188c-4.5-4.884-10.045-5.7-10.58-6.975-.595-1.433.118-5.138.118-5.138a11.921,11.921,0,0,0,2.513-1.073c1.552-.835,3.461-4.541,6.333-8s2.268-6.69,3.576-7.285a3.061,3.061,0,0,0,1.558-2.158c3.1-2.982,2.033-10.383,2.033-10.383a6.8,6.8,0,0,0-1.317-5.852s-1.2-3.944-7.049-7.17a12.446,12.446,0,0,0-11.229-.355,3.463,3.463,0,0,0-2.144.716c-3.824.835-5.262,5.015-5.262,5.015a6.705,6.705,0,0,0-1.078,1.833c-.072-.5-.136-.978-.187-1.437-.36-3.321.429-14.556.429-14.556L56.54,54.718s.2-14.64-.329-19.193c.057-4.6,1.25-15.337,1.25-15.337s.206-5.37-.423-7.78c-.609-2.4.445-7.872.445-7.872s-.71-2.172-2.115-1.32c.5-4.316-1.609-3.04-1.609-3.04L53.484.2A1.34,1.34,0,0,0,52.11,1.331c-.327,1.254.592,6.222.232,7.179s-.426,2.287-1.229,2.269S46.794,4.7,46.794,4.7s-1.718-.9-1.51,1.907c1.057,2.7,5.237,10.635,5.1,10.994s2.579,3.385.731,8.438C49.265,31.075,42.837,55.7,42.837,55.7L40.319,71.521s-3.409,15.65-1.064,22.635c1.335,3.99-1.772,11.64-4.687,17.465-4.168,1.471-10.853,3.555-13.848,7.78-4.056,5.728-.59,17.674-.59,17.674-2.391,12.3-1.912,28.546.232,36.069s4.544,13.141,4.3,14.692S23,197.267,15.473,209.094,1.373,237.883.421,240.621A9.16,9.16,0,0,0,4.837,251.5c5.018,2.634,14.811,11.107,16.483,10.75s8.482-9.678,8.482-9.678c5.015-.592,21.018-2.625,21.018-2.625s3.706,31.654,3.706,33.679,3.346,2.4,3.346,2.4c2.383,11.818,1.667,26.75.236,30.213s-.6,5.137-1.671,12.183a39.387,39.387,0,0,1-4.182,12.9c-.719,1.306,1.667,1.787,4.778,1.667s8.48.239,10.154-1.312,1.072-7.291.238-12.422-.48-5.491.241-7.883-1.078-4.181-.123-12.182,4.295-24.73,4.295-24.73c3-1.188,6.7-2.5,6.7-2.5l-5.614-30.7c8.118-.6,12.063-2.987,12.658-6.448s-1.079-4.187-4.775-3.583-8.36-2.747-8.36-2.747c-.242-8.838.235-34.993-3.824-51S51.3,169.8,50.1,163.114s7.285-13.139,10.631-14.813c2.882-1.442,9.139-2,10.807-2.117,1.824,1.084,8.4,4.99,9.933,5.82,1.8.967,22.673,5.527,22.673,5.527a50.2,50.2,0,0,0,10.873,2.871c4.832.492,31.368,3.962,31.368,3.962l9.311,5.588,5.192,2.966s3.8,1.107-1.2-4.454c1.682-.376,14.065,2.149,14.065,2.149S178.4,168.587,165.64,165.162ZM35.971,235.729c-1.114-.635,7.809-15.282,7.809-15.282,4.473,12.975,3.9,12.964,4.772,17.35C48.552,237.8,37.086,236.367,35.971,235.729Z"/></g></g></svg>