<svg xmlns="http://www.w3.org/2000/svg" viewBox="0 0 154.147 338.527"><title>Asset 3</title><g id="Layer_2" data-name="Layer 2"><g id="Layer_1-2" data-name="Layer 1"><path d="M7.1,186.27c9.36-5.125,15.9-11.628,20.137-19.181s6.169-16.147,6.379-25.429c.437-19.83-6.936-42.874-16.613-66.2,10.749-1.635,28.65-6.288,28.65-6.288,2.379,7.164-.528,12.17-2.692,23.8s10.489,18.765,10.489,18.765c.859,7.005,2.541,16.814,5.069,23.091s.4,10.162-2.848,19.227-8.814,24.926-8.958,25.688c-.036.2,1.619.883,4.4,1.761-6.436,13.535-21.964,43.378-21.964,49.1,0,6.7,13.21,42.35,17.919,59.366s1.895,19.267-.817,29.4S32.582,333.042,31.67,335.843s7.061,2,11.4,1.72,7.15-1.353,10.588-7.327,6.79-8.686,8.869-9.5,1.63,15.385,1.63,15.385h1.9s1.269-12.582,1.719-20.637-4.976-9.047-6.784-13.937-2.986-26.872-3.711-41.44-5.971-23.8-6.061-28.322S58.91,219.024,64.61,211.6s15.838-17.735,15.838-17.735-.089,26.608,2.354,35.567A172.923,172.923,0,0,1,88.409,263c.9,13.21,2.353,32.3.994,40.9s-4.977,13.843-8.866,21.092S67.692,335.3,67.777,337.2s16.649,1.537,19.007.275,2.714-2.086,4.523-6.157,4.615-6.424,6.243-6.608,1.267,11.223,1.267,11.223h1.447s.545-5.435,1.27-12.128,0-9.956-1.445-17.733,2.712-20.092,5.969-40.18-1.537-36.463-2.9-41.629c-.845-3.209,1.477-23.308,3.343-37.991,5.2-.2,7.657-.412,7.957-1.249.536-1.512.12-20.427-3.746-34.732s-9.591-19.583-15.248-27.708-.059-19.933-.059-19.933c2.8-5.771,3.14-20.867,10.107-25.912,7.382-5.351,17.605-8.928,29.54-15.455,11.82-6.456,19.285-16.693,19.092-19.495s-5.024-7.853-15.849-11.9-29.972-10.321-29.972-10.321-1.077-8.523-2.058-10.073-6.174-1.915-6.174-1.915A14.3,14.3,0,0,0,92,.67c-5.923-2.037-7.644,1.223-7.644,1.223s-2.4-.562-8.143.956-7.9,7.055-7.9,7.055a12.756,12.756,0,0,0-2,9.98,16.244,16.244,0,0,0-2.45,7.309c-.349,4.309.953,8.4.373,11.554s.3,4.076.3,4.076c-.038,1.522-3.967,6.888-3.967,6.888a23.954,23.954,0,0,0-8.293-3.484c-4.3-.742-6.861.222-14.965,4.989a85.436,85.436,0,0,1-16.917,7.359S21.987,54.93,24.7,47.25s9.467-20.09,10.891-21.579S45.64,24.5,46.9,24.912s4.626-2.69,4.626-2.69l1.5,1.05c7.684,8.292,12.413,1.165,11.228-2.542s-7.9-4.111-7.9-4.111l-2.388-1.2s1.083-3.019.721-3.791-2.773-.95-2.773-.95L50.563,8.874,47.78,8.429A1.616,1.616,0,0,0,46.913,7.4a8.69,8.69,0,0,0-2.653-.443S41.01,4.727,39.994,4.7A13.572,13.572,0,0,0,35.75,6.345L27.529,3.773l-1.5-1.084-.289.175a37.926,37.926,0,0,0-9.24,8.68A45.864,45.864,0,0,0,6.853,39.327,60.451,60.451,0,0,0,7.73,50.738C2.809,60.455-.474,68.974.056,70.685c.708,2.3,3.57,4.9,10.669,5.311a29.448,29.448,0,0,0,5.24-.384C25.672,98.961,33.04,122,32.6,141.632c-.213,9.168-2.11,17.581-6.249,24.961S15.828,180.331,6.608,185.378M13.3,40.519c-1.688,2.882-3.3,5.826-4.784,8.69a58.209,58.209,0,0,1-.648-9.858,44.87,44.87,0,0,1,9.426-27.18,41.656,41.656,0,0,1,6.2-6.4c.836-.684,1.537-1.2,2.022-1.541l.3-.212L25.5,5.267l6.74,4.166a56.7,56.7,0,0,0-3.155,6.315S21.084,27.246,13.3,40.519ZM116.236,51.34c-9.293,1.193-14.9,2.084-17.419,6.975,0,0,.745-4.806,1.918-6.175s7.057-3.394,8.9-6.4,1.4-11.517.853-15.339c0,0,11.438,4.95,16.184,8.36s7.874,5.382,7.874,5.382S125.525,50.162,116.236,51.34Z"/></g></g></svg>