<svg xmlns="http://www.w3.org/2000/svg" viewBox="0 0 239.823 343.455"><title>Asset 1</title><g id="Layer_2" data-name="Layer 2"><g id="Layer_1-2" data-name="Layer 1"><path d="M173.388,71.386c.827-5.468,18.171-20.542,26.122-26.119a48.5,48.5,0,0,0,12.383-12.848c-.929-6.406-8.874-16-14.244-20.442S184.591.674,183.664.212,178.5,0,175.144,1.5s-15.122,4.6-15.122,4.6c-.722.157-4.8,7.946-3.251,8.155s3.564-5.364,3.564-5.364-2.636,6.084-1.344,6.915,3.921-5.677,4.231-6.147a49.932,49.932,0,0,1,5.109-3.045l-2.113,2.585s-3.979,5.933-2.531,6.863,4.443-4.6,5.37-5.522,4.382-2.015,4.382-2.015L172.305,11s-1.39,4.285-.462,5.114,2.01-1.706,2.218-2.274,1.7-4.234,2.535-3.666,5.311-.153,5.311-.153,6.143,4.9,8.776,9.343,5.7,9.829,5.7,9.829c-1.084,3.177-8.673,8.828-14.632,12.776a86.819,86.819,0,0,0-10.611,8.36,45.365,45.365,0,0,0,.933-8.439c.079-4.723-3.328-10.143-3.328-10.143s-9.449-11.764-19.512-4.638-10.532,21.674-7.125,27.4-2.937,10.841-2.937,10.841-6.2-3.868-17.5-2.015c0,0-29.727,7.538-33.859,7.746a182.1,182.1,0,0,0-21.988-.311c-13.422.516-34.893,2.481-38.712,3s-9.548,2.17-13.73,2.266-9.6-2.68-10.427-1.8S5.074,76.7,7.191,77.786s4.491,1.754,3.969,2.375-4.23,2.217-5.624,2.944S.837,86.25.119,86.562s2.013,1.7,4.078.617,3.559-1.854,3.559-1.854l2.637-.931S8.12,86.566,7.812,86.921a7.2,7.2,0,0,0-.728,1.495s-4.591,2.845-5.522,3.2,1.084,2.22,6.143.157S13.8,89.3,13.8,89.3s6.145-1.189,6.2.361-.055,4.9,1.026,7.123,4.081,2.372,3.877,1.6-1.757-3.044,0-6.086,5.521-5.94,5.984-8.727c0,0,20.8.055,32.569,1.68a216.954,216.954,0,0,0,24.545,1.7s28.258-5.495,33.833-2.554a125.8,125.8,0,0,1,2.788,18.73c.779,10.535,1.242,16.883,2.169,17.345s7.276,6.044,11.615,15.336,5.417,18.42,6.966,19.2,7.126-1.7,7.126-1.7,5.725,2.631,4.488,8.83-3.872,16.57,9.6,26.006c13.476,9.452,28.183,26.947,32.83,36.393,0,0-7.275,7.118-11.305,14.864s-9.755,9.911-9.755,9.911a33.725,33.725,0,0,0-4.648.314c-1.7.306-9.439.154-10.99,4.956s.155,11.143.934,20.282,2.934,21.368,7.89,24,6.658-2.009,6.814-11c.157-8.973,11.3-25.235,11.46-26.171a13.551,13.551,0,0,0-.156-2.941l4.955-3.4s-.77,9.441-1.237,16.571-1.237,13.16-1.237,13.16-2.79,2.167-3.1,4.023-1.55,6.2-3.1,7.591a21.087,21.087,0,0,1-3.565,2.474l-.305,1.863s-4.8,3.093-4.956,5.415,4.026,22.76,7.277,27.253,9.293,9.606,14.558,9.759,2.94-7.124,2.632-16.1a73.918,73.918,0,0,1,1.548-17.036s4.177-6.194,4.177-8.358,2.17-10.067,1.242-11.61a13.572,13.572,0,0,0-2.632-2.948s9.91-23.846,13.933-36.39,4.806-17.8,4.806-17.8,15.48-18.581,15.168-27.569-18.27-27.713-26.784-36.851-19.2-14.713-20.753-17.961-2.321-9.3-2.321-9.3,18.316,1.913,32.361-18.117c0,0-9.29-12.38-10.94-13.209s-13.834-4.954-18.585-8.878-6.809-12.8-8.257-15.9S173.388,71.386,173.388,71.386Z"/></g></g></svg>