<svg xmlns="http://www.w3.org/2000/svg" viewBox="0 0 172.847 340.961"><title>Asset 4</title><g id="Layer_2" data-name="Layer 2"><g id="Layer_1-2" data-name="Layer 1"><path d="M96.834,125.943s21.081,26.907,27.744,49.379l-3.606,3.045.553,5.273-8.315,3.881-1.389-1.933-4.721,1.933-7.765-2.771s-2.3,5.922-7.855,8.512-21.447,2.957-28.847-.744"/><path d="M164.524,55.755l-19.97,18.867-8.873,9.708s-2.507-4.436-4.443-2.5-3.325,6.382-3.325,6.382-10.825,14.981-15.82,17.2a36.953,36.953,0,0,1-9.149,2.774s2.214-13.315,5.542-25.519-2.22-23.026-6.65-24.692-16.928-2.5-19.142-3.882-.834-9.156-.834-9.156,21.918-27.741.559-42.167c0,0-15.539-5.825-21.921,5.548s-8.32,31.9,3.328,34.958c0,0,3.054,8.039-.833,9.429s-24.409.555-28.574,7.211c0,0-12.755,48.27-11.646,53.261S35.536,143.14,35.536,143.14s-21.643,2.5-25.249,16.922,2.036,39.484,18.314,49.1c0,0,1.656,14.15-.283,18.862s-9.985,12.756-13.313,32.735-3.891,29.686-7.213,33.846-5.273,7.213-5.548,12.207S.583,323.452.024,328.728s8.6,11.37,10.819,11.648,6.662-3.322,6.662-5.27-.283-27.184,1.664-33.569,14.972-38.281,21.356-53.814,9.985-14.98,11.653-23.3l2.491-18.865s17.206-2.493,23.863-17.477c0,0,12.763,25.245,13.035,34.124s13.041,31.9,20.254,55.48,7.774,27.467,7.206,33.568c-.55,6.1-6.651,20.81-6.1,23.581s3.884,5.823,6.1,6.1,10.824-1.393,11.377-5.271,3.332-20.809,2.22-26.353c0,0-3.609-8.046-4.995-24.409s-2.492-36.9-7.491-44.39-5.822-14.7-8.045-23.023-2.77-33.013-2.77-33.013S107.1,145.082,101,129.27c0,0,23.857-22.749,27.185-24.133s11.375-4.162,13.6-5.826,3.887-4.991,2.5-6.657a11.167,11.167,0,0,1-1.945-3.884l6.382-8.325,8.318-2.217,15.813-13.313ZM46.91,113.178c-.078,8.768-5.276,17.758-5.276,17.758s-5.826-19.7-5.826-21.639S39.973,89.88,39.973,89.88C41.141,95.045,46.943,108.427,46.91,113.178Z"/><path d="M73.259,0S61.057.278,58,10.82s-8.6,12.762-7.209,20.528,2.773,11.376-1.939,13.866-6.934,6.1-5.826,10.263-6.659,11.652-6.659,11.652,12.485,12.2,14.146,12.485,57.152-10.54,57.152-10.54-3.334-8.044-3.612-12.484-.828-7.212-4.44-11.93c-3.6-4.713,3.612-10.539-.553-18.307S91.845.278,73.259,0Z"/></g></g></svg>