<svg xmlns="http://www.w3.org/2000/svg" viewBox="0 0 147.194 337.882"><title>Asset 2</title><g id="Layer_2" data-name="Layer 2"><g id="Layer_1-2" data-name="Layer 1"><path d="M145.415,133.221c-4.377-10.355-43.262-15.875-57.988-14.725A48.285,48.285,0,0,1,88.586,99.86c2.64-10.237,4.138-26.687,1.033-35.663S74.437,52.35,70.06,46.6A28.12,28.12,0,0,1,64.772,35.56a18.165,18.165,0,0,0,2.639-10.932s7.246,0,7.711-8.748S64.992-2.523,57.87,1.046c0,0-17.148-5.414-23.584,8.393,0,0-3.223,5.062-3.374,9.663a42.2,42.2,0,0,0,.918,10.663c.381.92.61,1.382.61,1.382s.312,6.593,2.842,9.044a30.364,30.364,0,0,1,5.657,7.671c1.625,2.958,4.313,2.028,6.156,1.8a11.357,11.357,0,0,1,3.606.2s1.987,3.523,1.377,4.988-4.833,4.293-10.2,5.974S30.525,66.347,29.755,77.16s-5.662,31.751-10.429,40.186c0,0-4.91,7.21-9.356,21.778S-.154,161.216,0,165.669s-.157,13.955,1.685,15.645,7.98,3.826,7.98,3.826l3.216-.151s15.34,4.757,19.179,4.294,2.452-.92,5.059-.148,5.986,1.07,6.9.611,4.144,5.218,4.917,4.144-.465-3.224-.465-3.224a31.913,31.913,0,0,0,3.684.921,2.124,2.124,0,0,0,1.22-.616s1.233,5.68,2.915,16.41,2.462,15.5,4.144,16.88,0,4.905-.3,14.881-.42,19.018-1.456,22.233-2.193,9.778-4.258,24.62-3.335,21.514-4.715,24.158-1.839,2.3-1.954,5.408-2.764,10.353-1.148,13.463,14.721,8.858,18.288,8.858,7.245-.116,6.212-4.607-11.966-10.119-12.54-13.57-.465-6.559,3.791-16.45S73.283,278.288,77.076,264.6a145.727,145.727,0,0,1,4.141,19.093c1.613,10.814,3.114,12.2,4.488,18.528s.694,8.395,2.646,9.545,3.793-.575,4.032-3.916,1.036-11.5,3.793-14.951,4.485-7.936,1.839-10.006-7.248-2.184-7.71-10.355-.577-29.222-2.643-37.5S82.6,224.56,82.6,224.56s16-43.705,17.711-48.424c0,0,11.274.8,16.11-3.339s9.664-6.211,11.045-7.128,5.294-3.916,8.284-6.444,4.138,1.151,5.983-5.063,2.99-6.676,2.99-9.665S149.788,143.579,145.415,133.221Zm-105.956-1.38c-6.553,3.339-21.63,14.494-21.63,14.494a72.874,72.874,0,0,0,7.025-11.155,101.1,101.1,0,0,0,6.209-15.535c.574-2.526,7.593-20.019,7.593-20.019s5.521,6.448,7.707,7.831,8.164,20.014,8.164,20.014S46.025,128.5,39.459,131.841Z"/></g></g></svg>