<svg xmlns="http://www.w3.org/2000/svg" viewBox="0 0 142.855 348.361"><title>Asset 5</title><g id="Layer_2" data-name="Layer 2"><g id="Layer_1-2" data-name="Layer 1"><path d="M142.111,6.918c-1.618-2.694-15.539-4.765-26.993-3.823S93.425,4.85,91.4,4.31s-6.6.27-8.083,2.017c-.936,1.11-3.051,4.413-4.482,6.7C73.8,7.409,67.021,4.742,60.916,6.752c-5.763,1.9-9.533,7.508-10.533,14.45-2,.191-6.19.714-8.07,1.791-2.513,1.439-5.029,5.928-5.029,5.928S23.362,38.263,18.42,43.385s-5.3,8.622-5.12,9.254S26.414,64.492,36.923,69.16s21.288,8.09,22.73,13.031c0,0-4.855,12.216,3.946,17.065,0,0,3.054,13.65-5.563,21.381S41.327,133.211,38.093,157.1s6.647,51.382,7.723,62.345c0,0-4.666,7-5.388,11.5s-.18,15.089-4.317,23.174-11.134,24.434-14.367,37.007-6.109,16.349-7.907,17.967-2.512,3.057-3.051,6.47S1.266,332.451.184,337.3s2.872,10.42,4.489,10.958,8.627-1.078,11.32-5.388,3.954-12.939,5.751-19.046,1.436-8.62,3.95-14.192,19.582-31.619,22.818-43.657A115.937,115.937,0,0,0,55.517,288.8c5.032,11.68,6.649,16.343,4.852,22.631s-1.62,13.476-1.8,20.664H61s.178-8.891,1.347-8.079,4.582,9.517,5.572,14.283,2.693,8.173,3.594,8.532,15.538,1.622,17.333.178,2.157-5.835-2.781-8.082-7.815-10.154-9.614-18.5-5.477-15.814-7.815-25.968S65.94,254.662,57.85,237.142c0,0,5.926-11.586,12.669-21.827s27.218-40.964,26.4-63.058,1.351-31.261,3.508-39.343.811-13.2.811-13.2a14.016,14.016,0,0,0,10.512-14.821c-.541-12.4-3.237-12.936,4.125-25.871s17.613-20.84,22.282-31.621S143.73,9.609,142.111,6.918ZM70.97,56.143a14.208,14.208,0,0,0-9.162,1.97c-4.312,2.785-9.974,4.5-18.419.09s-13.3-6.1-15.178-8.172c0,0,7.9-8.446,11.317-12.668a55.486,55.486,0,0,0,7.726.717c1.157-.1,3.318-1.528,4.826-2.615,3.993,10.666,13.108,17.36,21.471,15.95a12.351,12.351,0,0,1,1.818,4.1C75.64,58.2,70.97,56.143,70.97,56.143Zm43.072-18.821c-4.988,4.712-15.5,5.121-17.927,8.892s-5.381,5.66-7,4.982-5.255-7.406-5.255-7.406l-.2.027c2.954-5.406,3.576-12.937,1.106-20.428-.114-.339-.25-.656-.371-.99.887-.659,6.326-4.926,6.2-10.007,0,0,11.861-2.022,20.48.273s17.517,3.907,17.517,3.907S121.959,29.824,114.042,37.322Z"/><path d="M56.955,122.431S41.4,132.492,36.553,143.45s-7.6,15.815-7.418,17.248a3.193,3.193,0,0,0,1.254,2.155s-5.032,10.42-4.308,12.4l.715,1.978s.538,1.975,1.441,2.153a6.536,6.536,0,0,1,2.152,1.261s-.356,8.26.365,9.161,2.332,1.262,5.026,2.337,13.629,3.6,17.043,4.854,8.982,3.95,13.294,1.616,18.66,2.488,19.915,2.31,1.436.894,2.691-.544,1.983-8.438,1.983-8.438,2.694.178,3.414-.541S96.275,177.2,96.275,177.2s1.8,0,2.152-4.131.747-30.514-4.1-40.935"/><path d="M96.659,35.3s-8.44-8.262-10.244-14.551S76-7.457,56.774,2.6c0,0-15.631,5.031-10.961,23.175,3.295,12.8,1.975,15.271-.537,17.071s.181,5.749,4.131,3.772c0,0-1.073,5.562,3.232,6.105s5.93.364,4.852,3.955-1.433,7.906,5.211,8.625,15.092,1.075,21.918-1.26,14.911-7.726,14.373-11.14S98.457,41.769,94.5,36.918"/></g></g></svg>