<svg xmlns="http://www.w3.org/2000/svg" viewBox="0 0 109.197 96.71" preserveAspectRatio="none"><title>Asset 1</title><g id="Layer_2" data-name="Layer 2"><g id="Layer_1-2" data-name="Layer 1"><path d="M51.48,56.557a4.909,4.909,0,0,1,.912-1.105,1.889,1.889,0,0,0-.8-1.407c.312-2.124.434-4.474-.686-5.86q.836-2.609,1.673-5.213c.413-1.32.714-2.569,1.026-4q.194-1.122.384-2.244c.25-.532.8-.977,1.028-1.561q.227-1.2.455-2.4c.227-.343.456-.685.686-1.029.039-.025.074-.049.115-.074a28.428,28.428,0,0,0-.5,3.844c-.111.673.35.984.19,1.6a14.567,14.567,0,0,0-.3,3.237v1.787a15.206,15.206,0,0,0,.152,4.872q-.038,1.5-.076,3a9.09,9.09,0,0,0,.265,3.085c.259,1.413.38,5.127,1.146,5.744a8.1,8.1,0,0,0,.187,3.655c-.013.264-.025.531-.039.8.182,1.2.371,2.938.612,4.112q-.08,2.3-.154,4.6.288,1.1.571,2.206c.256.279.5.56.762.838.01.38.023.761.037,1.141.1.153.2.306.3.458v1.1a7.736,7.736,0,0,1,.084,1.032,5.278,5.278,0,0,0,.019.782,9.3,9.3,0,0,0,.138,1.8,12.676,12.676,0,0,1,.541,5.1,4.384,4.384,0,0,0,1.145,2.524,6.242,6.242,0,0,1,.512.774c.267.481.3-.01.581.118.2.087-.294,2.043-.307,2.314-.045.979.191,1.118.991,1.266.731.139,1.721-.222,2.412-.006a6.061,6.061,0,0,0,2.825-.223c.544-.417-.241-1.427-.2-1.882a9.4,9.4,0,0,0-.327-2.793c.3.211,1.075-1.539,1.14-1.745.044.019.09.035.134.056a1.932,1.932,0,0,1,.478-1.273,2.683,2.683,0,0,0,.116-1.984c-.116-.427-.987-.867-1.281-1.17-.071-.453-.275-.858-.318-1.3.06.04.124.077.189.115.178-.7-.223-.741-.38-1.066-.027-.609-.049-1.216-.078-1.825-.05-.158-.247-.145-.3-.268-.011-.329-.025-.659-.039-.989a24.437,24.437,0,0,1-1.6-6.7c.049-.367.1-.734.153-1.1,0-1.089-.268-3.477.189-4.223A.776.776,0,0,0,66.281,65c-.024.127-.051.254-.076.381.188.738,1.068.948,1.064,2.019.08-.041.152-.077.23-.115a11.074,11.074,0,0,0,.8,3.844c.153.486-.1,1.094.116,1.56a42.12,42.12,0,0,1,1.6,5.212q.513,1.635,1.028,3.271a.337.337,0,0,1-.048,0,20.268,20.268,0,0,1,.436,4.686,6.988,6.988,0,0,0,1.01,3.708c.622,1.223-.232,2.957,1.5,3.134.383.038,1.228.3,1.555.153.278-.125.717-.7,1.011-.489.452.312.188.427.5.715.5.467,1.726.992,2.428.537a11.035,11.035,0,0,1,1.562-.258c.566.132,1.176-.408,1.726-.371.653.043,1.116-.247.993-.856-.083-.414-.332-.387-.393-.812-.137-.952-.649-.97-1.477-1-1.041-.035-1.515-.775-2.154-1.421s-.327-.93,0-1.565c.4-.785-.091-2.248-.221-3.074-.181-1.148-.385-2.292-.558-3.441-.056.039-.117.07-.174.106l-.461-1.346q-.04-2.473-.078-4.946c-.279-1.2-.693-2.465-.988-3.54-.165-1.1-.333-2.209-.5-3.311q-.111-4.372-.227-8.753c-.065-.823-.128-1.65-.189-2.472a9.093,9.093,0,0,1-.342-2.093l-.23.037h-.038q-.323-2.509-.648-5.023-.459-1.731-.912-3.464c-.187-1.014.467-2.124.687-3.272.109-1.675.225-3.351.339-5.024-.089-.417-.175-.837-.267-1.254a12.191,12.191,0,0,1-.531-3.122c2.326,1.294,1.9,2.724,2.7,5.366.746,2.455,1.765,4.959,1.142,7.992q-.247.59-.5,1.181c-.16.639-.269,1.245-.378,1.788.036.775.074,1.547.111,2.322-.1.347-.635,1.013-.455,1.482.035.051.075.1.114.153.367-.078.525-.355.837-.495.027-.022.05-.052.075-.077.163.3-.018.45.039.8a3.813,3.813,0,0,0,1.068,1.71c.289.027.579.051.873.077.62.57,1.243,1.141,1.863,1.712.269.468.535.94.8,1.41.394.329.786.659,1.181.987.239.23.481.458.72.686h2.476a5.822,5.822,0,0,0,1.368-.686,3.723,3.723,0,0,0,1.446-1.33c.2.039.408.076.613.114a15.74,15.74,0,0,1,.073,3.843c-.138.326-.484.51-.571.913a1.552,1.552,0,0,0,.19.952c-.09.8-.176,1.6-.263,2.4.01.279.023.556.035.837-.221,1.71-.676,3.308-.991,4.834a3.837,3.837,0,0,0,.1,1.184,9.588,9.588,0,0,1-.188,1.6,4.993,4.993,0,0,0,.061,2.24c0,.716-.077,1.444-.084,2.163-.065.926.258,2.268-.062,3.089a18.751,18.751,0,0,1-.517,2.22c.021.023.7-.131.319.452a5.583,5.583,0,0,0-.354,1.323,2.907,2.907,0,0,0-.016,2.1c.144.317.391.7.751.774.339.072,1.049.261.2.647a.841.841,0,0,0-.461,1.277c.2.389.915.213.715.694a5.625,5.625,0,0,0-.624,2.441c0,1.183,1.422,1.051,2.287,1.051.747,0,1.909.12,1.826-.948-.018-.206-.275-2.042-.021-2.122.2-.077.189.41.37-.223.019-.063.106-.75.2-.712.831.371.855-.738.829-1.236-.075-1.528,1.118-2.664.092-4.03-.223-.532-.106-1.455-.42-1.863-.392-.578.2-1.335.114-1.86a18.832,18.832,0,0,0,.652-2.1c.046-.187.506-2.919.45-2.943.26.073.349,3.188.415,3.512a9.5,9.5,0,0,1,.361,3.086,4.189,4.189,0,0,0,.318,2.351,2.884,2.884,0,0,1,.379,1.664c.061.417.862.87.666,1.348-.946.971.51,1.684.492,2.7-.009.529-.076,1,.431,1.286a3.2,3.2,0,0,0,.941.385c.355.074.807-.254,1.064.041a2.136,2.136,0,0,0,1.611,1.011c.73.07,2.159.095,2.751-.465.264-.256.125-.932-.042-1.215-.16-.323-1.041-.764-1.058-1.031a.138.138,0,0,1,.174-.047c.179-.475-.86-.489-.8-.647.064-.138.572-.656-.14-.564-.433.02-.475-.329-.46-.686.021-.529.223-.371.545-.691.45-.449.186-1.011-.025-1.5-.134-.3-.3-.655-.66-.688-.328-.029-1.13.248-1.206-.225-.232-.74.785-1.673.228-2.447-.487-.679,0-1.706.06-2.459a23.7,23.7,0,0,0,.247-3.228c-.049-.768.367-1.095.121-1.918-.044-1,.173-1.988.043-2.975-.138-1.036-.389-2.017-.556-3.022a5.434,5.434,0,0,0,.214-1.344,6.568,6.568,0,0,1-.154-1.9c.123-.767-.592-1.816-.381-2.4.167-.456.592-.533.837-.875.281-.509.558-1.015.839-1.524.238-.675-.139-1.267-.23-1.9-.068-.479.312-.991.42-1.446.089-.027.178-.051.267-.076.944.729,3.569,2.22,5.328,1.862,1.038-.47,1.2-2.262.837-3.8h0c-.4-1.69-1.4-3.067-1.752-4.681-.163-.737.836-2.053.648-2.892-.137-.608-.608-.913-.874-1.371-.344.027-.688.051-1.029.077-.074.123-.143.211-.076.381a1.878,1.878,0,0,0,.837.495c.135.827-1.58,1.941-1.943,2.55a7.5,7.5,0,0,0,.613.951,5.305,5.305,0,0,1,.569,3.464c-.05-.028-.1-.053-.15-.078-.381.021-1.083-1.315-1.488-1.522-.366-.063-.734-.127-1.1-.189a4.241,4.241,0,0,1-2.4-1.179c-.462.043-.676.283-1.218.3-.167-.162-.6-.569-.456-.99,0,0,1.7-1.935,1.712-1.94.318-.179.62-.278.722-.647-.024-.344-.053-.685-.078-1.026a6.386,6.386,0,0,1,.724-2.438c0-.665-.346-.58-.534-.952-.273-.552-.157-1.084-.492-1.522-.441-.574-1.076-.658-1.866-.912-.442-.268-.889-.533-1.329-.8-1.334-.294-3.9,1.084-4.38,1.712-1.648,2.183-1.033,4.27,0,6.585.412.922.752.608.838,2.131-.087.076-.178.15-.268.229l-1.558-.153a3.51,3.51,0,0,1-.952.153c-.346,0-.657-.125-.95,0s-.4.437-.609.645c-.357.279-.71.559-1.066.838-.382.457-.765.912-1.143,1.37q-1.024.685-2.054,1.368c-.442.158-.871-.351-1.14-.53a14.307,14.307,0,0,1-2.7-2.284,6.214,6.214,0,0,0,.685-4.528c-.332-.762-.66-1.523-.991-2.283Q81.392,46,81.007,43.96q.059-1.827.116-3.653-.129-1.56-.267-3.121-.264-1.675-.531-3.35c-.042-.484.459-.614.3-1.443a25.619,25.619,0,0,0-1.256-3.2c-.447-1.481-.413-3.07-.834-4.454q-.311-.759-.612-1.523c-.037-.341-.077-.684-.114-1.027q-.759-1.331-1.521-2.663a12.635,12.635,0,0,0-1.564-2.855c-1.115-1.387-2.1-.859-3.765-1.522l-1.673-.874c-.457-.116-.917-.227-1.371-.342-.279-.217-.013-.459-.114-.8a2,2,0,0,0-.647-.835c0-2.2.712-2.632,1.519-3.923.2-.316.218-.678.419-.949-.131-.536-.181-.807-.605-1.027-.368-.541.307-2.79-.076-3.92A5,5,0,0,0,66.055.271c-1.643-.825-5.125.4-5.825,1.486a8.01,8.01,0,0,0-.38,3.918c-.025.065-.053.126-.075.19-.165.027-.329.051-.5.076-.252.174-.222,1.391-.073,1.789.214.406.431.814.645,1.219l.38.3a15.816,15.816,0,0,1,.153,3.273c-.281.444-.955.629-1.178,1.18v1.56c-.076.248-.428.424-.534.762-.85.313-1.843.32-2.778.608a7.991,7.991,0,0,0-2.019,1.218c-.932.682-.975,1.59-1.482,2.738a27.061,27.061,0,0,0-1.826,7.118v3.2c-.259,1.061-2.219,3.751-1.1,4.529a8.377,8.377,0,0,1-.5,2.359q-.038,1.69-.074,3.388a47.4,47.4,0,0,1-.115,6.773v2.4a19.189,19.189,0,0,0-.569,2.056c.074.2.151.407.227.608.067.271.059,2.611.037,2.7-.049.114-.1.23-.151.343.055.6.975.1,1.255.562m4.773-3.68c.053-.159.121-.326.194-.5-.052.027-.113.049-.17.074.011-.029.018-.056.028-.086a16.683,16.683,0,0,0,.7-1.918q-.217-1.841-.43-3.68V44.056a69.076,69.076,0,0,0-1.8-7.125q-.709-2.992-1.413-5.984c-.73-2.877-.392-6.306-1.8-8.492-.569-1.025-2.5-1.812-3.263-2.09l-.029-.023c-.089-.023-.17-.052-.257-.077l-.029-.01v0a12.107,12.107,0,0,1-3.112-1.37,2.238,2.238,0,0,1,.243-2.284l.059-.011c-.025-.03-.017-.049-.017-.049a14.7,14.7,0,0,0,2.193-2.538c.036-.079.072-.166.115-.266a4.731,4.731,0,0,0,.577-2.8c.167-.823.579-3.793.579-3.793-.412-2.557-5.03-3.216-5.03-3.216a5.82,5.82,0,0,0-4.7,3.136c-.906.9-2.924,5.151-2.924,5.151s-1.033,4.125-1.651,4.578l-.039.045a3.657,3.657,0,0,1,.067,2.231c-1.061.656-2.655,2.177-3.283,5.578A22.33,22.33,0,0,1,28.692,27c-.284.875-.784,1.889-1.058,2.777-.282.912-.43,1.773-.782,2.622-.482.677-.964,1.357-1.449,2.034-.6.872-1.054,1.905-1.6,2.778a18.691,18.691,0,0,0-1.292,3.132,6.7,6.7,0,0,1-.48.921,13.482,13.482,0,0,1-.941,1.761.551.551,0,0,1-.021.162,13.847,13.847,0,0,1-.918,2.442c-.1.323-.2.653-.3,1.014-.13.434-.509.7-.7,1.015v.51c-.044.131-.213.205-.275.39.229.447.052.5.2.9a17.582,17.582,0,0,0,1.309,1.625c.157.013.306.025.441.032.454.542.949,1.106,1.074,1.222.183,1.257-.888,2.439-1.219,3.425-.063.026-.127.052-.189.075a6.4,6.4,0,0,1-1.636-1.293q.114-.246.227-.494A.382.382,0,0,0,19,53.7a27.213,27.213,0,0,0-2.741-2.057c-.468-.013-.939-.024-1.406-.036-.18-.066-.359-.128-.535-.193-.409.029-.731.253-1.14.077-.013-.052-.025-.1-.04-.152.14-.2.267-.45.57-.5.282-.5-.354-.816-.188-1.559.14-.628,1-.965.8-1.9-.164-.268-.33-.532-.495-.8-.135-.65.014-1.2-.151-1.866a5.451,5.451,0,0,0-.459-.874c-.024-.166-.048-.332-.075-.495-.752-1.189-3.569-2.245-5.174-1.14C5.6,43.833,4.8,47.486,4.231,50.846c-.1.55.457,1.039.38,1.411-.1.486-1.569,1.753-1.789,2.282-.439,1.055.109,2.527-.42,3.349.044.5.351.421.457.724.15.424-.312,1.232-.415,1.522A29.8,29.8,0,0,0,1.3,64.054c-.012.455-.025.912-.036,1.369-.092.376-.224.787-.3,1.293v1.522C.642,68.9.32,69.558.006,70.22c-.1.535,1.185,2.436,1.484,2.739.226-.036.279-.153.419-.191h.913c.775-1.368-.873-1.447-1.066-2.246a21.018,21.018,0,0,0,2.169-5.289q.438-1.674.875-3.348v-.076l.344.228c.456.995-.2,1.862-.382,2.625.011,1.118.024,2.232.038,3.35q-.359,1.6-.723,3.2a21.037,21.037,0,0,0-.113,6.508c-.039.088-.077.177-.115.266.379,1.11.2,2.618.418,3.919.051.508.1,1.017.153,1.524q-.743,4.089-1.484,8.18c.584.07,1.015.093,1.216.572-.27.535-.925.739-1.52.95-.05.268-.1.535-.154.8q1.884-.078,3.767-.152c.331-.369.663-.736.993-1.106.1-.292.2-.582.3-.874.643-.569,1.823-.241,2.739-.152a6.059,6.059,0,0,1,.571,2.018,14.982,14.982,0,0,0,4.111.226c.166-.152.328-.3.5-.456-.015-.216-.026-.431-.039-.647-1.477.033-1.687-.578-2.209-1.446.6-.2,1.194-.406,1.792-.609a30.378,30.378,0,0,0-.611-3.882,23.882,23.882,0,0,1,.04-4.338c-.027-.735-.051-1.471-.076-2.207.179-1.031.538-2.089.721-3.084a19.989,19.989,0,0,1,.114-2.092,5.111,5.111,0,0,0,.534-2.511c-.076-.329-.153-.661-.23-.989v-.839c-.1-.322-.463-.845-.571-1.216q.06-.365.116-.724c.043-.473-.358-.431-.268-.875a7.244,7.244,0,0,0,.419-1.827,23.192,23.192,0,0,1,.3-5.481V58.65c.124-.624.271-1.413.419-1.94.366.064.5.413.8.57,1.627.85,3,2.074,5.366,2.017A3.1,3.1,0,0,0,23.1,58.116c.012-.214.028-.432.041-.647.123-.278.251-.558.377-.837.014-.252.026-.507.04-.761.077-.153.253-.235.3-.455q.1-2.017.194-4.034-.118-.553-.231-1.1c-.089-.1-.178-.2-.267-.3l.152-.535a1.366,1.366,0,0,0-.119-.263,10.366,10.366,0,0,1-.94-.848,1.163,1.163,0,0,1-.107-.245c.063-.442.129-.886.193-1.327-.076-.239-.154-.472-.232-.706a3.5,3.5,0,0,1,.9-1.488c.192-.251.387-.485.577-.72a.123.123,0,0,1,.005-.077c.15-.454,5.251-7.425,5.251-7.425.289-.773,3.82-9.405,4.112-10.125.005-.038.007-.077.009-.114a.286.286,0,0,1,.013.061l.006.07-.028-.017s.707,3.639-2.611,9.677l-.058.042s-.052.075-.145.221c-.073.113-.169.271-.284.466l-.01,0c0,.012-.02.043-.04.085-1.377,2.319-5.178,9.592-3.987,17.557a4.225,4.225,0,0,1,.715-.032c.473.949.938,1.827.938,1.827.172.3.735,2.466.735,2.466.346.564,1.99,9,1.99,9,0,3.158.346,8.176.346,8.176.087,1.3,2.337,9.432,2.337,9.432l.551,4.267a31.107,31.107,0,0,1-.808,4.907l-.219.258c-.347,1.556.131,2.033.131,2.033a14,14,0,0,0,2.595.088C37,96.984,37,94.776,37,94.776a12.189,12.189,0,0,1-.3-3.373c.042-1.472.041-4.457.041-4.457-.692-1.473-.475-6.491-.475-6.491-.044-1.513.13-5.841.13-5.841-.649-3.029-.952-4.282-.952-4.282-.173-1.817.218-1.557.218-1.557.3.215,4.539,11.161,4.539,11.161.52.736,2.033,8.611,2.033,8.611l.779,2.336L42.5,92.656c-.433,2.855.216,2.467.216,2.467.262.043,1.73,0,1.73,0,.608-.475,2.3-1.428,2.3-1.428a4.812,4.812,0,0,0,.344-2.077A18.609,18.609,0,0,0,45.915,88.5a6.078,6.078,0,0,1-.027-2.318l2,3.122.127-.227c-1.062-.908-2.022-4.419-2.022-4.419l-.009.029a5.717,5.717,0,0,0-1.558-1.509,27.561,27.561,0,0,1-.844-4.153c-.26-3.7-.518-6.359-.518-6.359.063-1.234-1.882-5-1.882-5C38.514,64.62,39.1,64.75,39.1,64.75c-.193-.519,1.428-5.385,1.428-5.385.095-.385.8-2.553,1.48-4.644.04.009.08.018.118.025a.523.523,0,0,1,.246.122,5.708,5.708,0,0,1,.621.123s1.87-4.781,1.134-15.908c.114-4.4,3.116-11.81,3.116-11.81l-.163-.163a.492.492,0,0,1,.2-.064c-.013.077-.023.152-.034.227a.428.428,0,0,1,.086.014l.039-.25.052.3a.255.255,0,0,1,.092.217c0,.07-.011.139-.019.208.4,2.338,1.668,9.595,1.794,10.143,0,0,3.283,8.737,2.981,11.666l-.029,0a1.83,1.83,0,0,1-.462,1.094c-.347.466-1.411.768-1.878,1.175-.185.221-.365.443-.55.665-.234.025-.469.05-.7.078-.47.174-.4.657-1.173.665v.038a2.4,2.4,0,0,0,.234.783c-.123.16-.309.4-.076.586.067.017.138.035.2.05-.007.137-.013.277-.022.414l.591.139c.005.008.006.017.01.024a.3.3,0,0,0,.075.091c.037.1-.029.207.041.343.095.2.352.144.531.267.2.138,3.944-1.616,4.027-1.362M9.1,90.464A11.08,11.08,0,0,1,9.025,87V83.957q.077-1.467.152-2.931c.208.1.335.372.494.418Q9.388,85.956,9.1,90.464ZM34.752,55.1a8.259,8.259,0,0,1-.2-1.281l.288.007C34.791,54.567,34.752,55.1,34.752,55.1Zm17.372.463v.039c-.139-.079-.082,0-.113-.189C52.048,55.465,52.086,55.518,52.124,55.566Zm26.944-4.3h-.037c-.089-.264-.325-.015-.57.116a1.055,1.055,0,0,1,.381-.724c.094.085.108.158.112.344.088-.022.046-.01.155-.076C79.094,51.037,79.082,51.154,79.068,51.266Zm2.323,2.474h-.04c-.15-.089-.3-.177-.458-.267a3.008,3.008,0,0,1,.458-1.18C81.727,52.763,81.475,53.131,81.391,53.74Zm6.887,31.034c-.071-.083-.05-.15.067-.2.107.021.025.244-.067.2"/></g></g></svg>
