<?xml version="1.0" encoding="UTF-8"?>
<svg width="180px" height="203px" viewBox="0 0 180 203" version="1.1" xmlns="http://www.w3.org/2000/svg" xmlns:xlink="http://www.w3.org/1999/xlink">
    <!-- Generator: Sketch 51.1 (57501) - http://www.bohemiancoding.com/sketch -->
    <title>mdpi/Path</title>
    <desc>Created with Sketch.</desc>
    <defs></defs>
    <g id="Page-1" stroke="none" stroke-width="1" fill="none" fill-rule="evenodd">
        <path d="M69.5,42.5 C69.0018293,41.1715449 68.6249207,41.1043121 69.5,39.5 C70.3750793,37.8956879 71.4773435,40.9201832 72.5,37 C73.5226565,33.0798168 71.6898396,29.6203209 72.5,28 C73.3101604,26.3796791 74.75,28 77,28 C78.5,28 80,28 81.5,28 L81.5,25 C78.5,25.4393632 77,25.4393632 77,25 C77,24.3409552 81.9084045,23.1806742 81.5,22.5 C81.2277303,22.0462172 79.2277303,22.0462172 75.5,22.5 C74.1982127,21.2945775 72.1982127,19.2945775 69.5,16.5 C65.4526809,12.3081338 65.5549969,11.2201446 61.5,8 C57.4450031,4.77985536 54.4738283,4.06283063 52.5,3 C50.5261717,1.93716937 53.368872,1.69555314 48.5,1 C43.631128,0.304446861 41.25,1 38.5,1 C35.75,1 36.443522,-0.147840659 33,1 C29.556478,2.14784066 30.476559,1.87556082 26.5,5 C22.523441,8.12443918 21.8450309,7.85615061 19,12 C16.1549691,16.1438494 15.7357724,18.8069104 15,21.75 C14.2642276,24.6930896 14.4760586,24.6598735 15,28 C15.5239414,31.3401265 16.1128813,31.9495339 17,34.5 C17.8871187,37.0504661 18.6463604,38.0854418 19,39.5 C19.3536396,40.9145582 21.6484374,39.4732144 19,42.5 C16.3515626,45.5267856 12.5921095,46.4638083 12,47.5 C11.4078905,48.5361917 11.7396726,50.3579809 15,49.5 C18.2603274,48.6420191 20.7361278,45 21.5,45 C22.2638722,45 19,48.7204759 19,49.5 C19,50.2795241 19,49.5 21.5,49.5 C24,49.5 24.5722698,48.5361349 26.5,49.5 C28.4277302,50.4638651 28.7671687,51.3015061 29.5,53.5 C30.2328313,55.6984939 30.160259,56.9593956 29.5,58.5 C29.0598273,59.5270696 28.0598273,60.1937362 26.5,60.5 L21.5,73.5 L19,86.5 L17,107 C16.3240596,97.7378662 15.657393,90.9045328 15,86.5 C14.0139106,79.8932007 13.0019037,76.1974329 12,73.5 C10.9980963,70.8025671 11.0700948,69.6763407 8.5,69 C5.92990519,68.3236593 4.48417387,69.2492584 2.5,71 C1.17721742,72.1671611 0.343884088,74.0004944 0,76.5 C0.16344531,73.5868519 1.66344531,79.7535185 4.5,95 C7.33655469,110.246481 9.83655469,125.579815 12,141 L8.5,144 L8.5,149 L12,151.5 L16,153.5 L7.5,192.5 L4.5,203 L11,203 L22,154 L61.5,154 L61.5,203 L67,203 L67,173.5 L69.5,173.5 L72.5,183.5 L72.5,190 L72.5,196.5 L75.5,203 L108,203 L110.5,196.5 L108,192.5 L99.5,190 C99.5,192 99.5,189.833333 99.5,183.5 C99.5,174 99.5,176.25 99.5,164.5 C99.5,152.75 99.9188083,146.863316 99.5,141 C99.0811917,135.136684 100.116923,134.305256 97,129.5 C94.9220516,126.296496 91.755385,123.963163 87.5,122.5 C84.8333333,122.5 83.5,122.5 83.5,122.5 C83.5,122.5 81.9983053,120.36695 81.5,118 C81.1677965,116.422033 81.1677965,114.755367 81.5,113 L146.5,115.5 L148.5,203 L153.5,203 L155.5,115.5 L158,115.5 L160.5,203 L165.5,203 L168,118 L174.5,115.5 L174.5,107 L179.5,105 L179.5,100 C178.833333,96.6666667 177.833333,95 176.5,95 C175.166667,95 148.666667,95 97,95 C97.898114,94.4559759 97.898114,93.6226425 97,92.5 C95.652829,90.8160362 94.89025,90.8269844 93,90 C91.10975,89.1730156 94.2202946,89 89,89 C83.7797054,89 82.6322476,91.0330619 78.5,90 C74.3677524,88.9669381 75.6661909,87.6565409 71,84.5 C66.3338091,81.3434591 63.86881,81.1649112 61.5,78.5 C59.13119,75.8350888 61.4011118,74.4682726 59,71 C56.5988882,67.5317274 53.301375,66.5479519 52.5,65.5 C51.698625,64.4520481 49.0283259,63.6572247 52.5,62.5 C55.9716741,61.3427753 58.4465195,63.3423395 61.5,62.5 C64.5534805,61.6576605 65.2490788,60.4697864 67,58.5 C68.7509212,56.5302136 68.9865035,55.3485875 69.5,53.5 C70.0134965,51.6514125 68.7571945,50.9856109 69.5,49.5 C70.2428055,48.0143891 72.5,49.6206783 72.5,47.5 C72.5,45.3793217 69.9981707,43.8284551 69.5,42.5 Z" id="Path" fill="#000000" fill-rule="nonzero"></path>
    </g>
</svg>