<svg xmlns="http://www.w3.org/2000/svg" viewBox="0 0 476.422 319.505"><defs><style>.cls-1{fill:#c44141;}.cls-2{fill:#fff;}.cls-3{fill:none;stroke:#000;stroke-miterlimit:10;stroke-width:1.5px;}</style></defs><title>Asset 6</title><g id="Layer_2" data-name="Layer 2"><g id="Layer_1-2" data-name="Layer 1"><polygon class="cls-1" points="25.776 199.316 456.302 138.809 465.926 207.285 35.4 267.792 64.832 228.51 25.776 199.316"/><rect class="cls-1" x="386.713" y="49.253" width="68.163" height="163.571" transform="translate(-14.142 59.838) rotate(-8)"/><polygon class="cls-1" points="402.506 0 352.54 64.928 468.432 48.641 402.506 0"/><path d="M42.266,127.041l.263.244,1.836,13.063q.085.609-5.078,1.838a1.953,1.953,0,0,1,1.326-1.592l.934.15.4-.057-.069-.5-2.371.334.07.5-1.52.213.409,1.292q-2.862,3.325-2.621,5.034l.006,1.349.225,1.6q.766,5.454,12.139,6.219l.21.195-.14.3.077.551.734-.946q11.643,1.4,16.878,3.923l4.5,3.471.03.22-.671.095-.069-.5c-.568.079-.9-.247-1-.983l-.9.126,1.746,1.384.448,1.567-.448.063.078.552.224-.032.632-.37-.407,1.969,1.968-.276q.116.827.741.737a4.253,4.253,0,0,0,1.189,1.97q1.143.345,1.415,2.274l-.593.646-2.147.3q.069.5-.927,1.2l-1.52.214.078.55a1.96,1.96,0,0,1,1.6.338c-.052-.367.2-.592.772-.671l.554-.921q.462,1.341.82,1.29l.185-.306.262.244q-.219-1.88,1.034-2.057l.254.189.264,1.875-.185.306q.078.552-1.219.734.186,1.323-.261,1.386-.851.12-.664,1.442l-1.745.246.039.275.41,1.291.223-.031-.07-.5-.261-.245,1.627-1.071,1.074-.151.077.551.447-.062.773-.671-.225-1.6.447-.062a46.93,46.93,0,0,1,.2,7.9l-.263-.245-.4.057.039.276.4-.057q.181,3.236-.848,3.378l-.664-.186.077.55.889.157a10.529,10.529,0,0,1-1.251,3.436l-.262-.245-.224.031a3.107,3.107,0,0,1-.924,2.829l-.255-.189-.224.031.184-1.936-2.756-2.087.447-.063-.039-.275-.524-.488-1.035.426-.333-2.37q-.093-.662.778-.953l-.039-.275q-.086-.607-1.852-.527l.555.709.264,1.874-.223.032-.71-.181.563.763.077.551-.747,1.173-.217-.25-.185.307-.447.062-.262-.244-.224.033q-.263-1.874,1.033-2.057l-.038-.275-1.444-.866-1.3.182.262.244.039.276-.378.559c-1.044.147-1.645-.03-1.808-.533l.185-.307-.525-.488c-.1-.7.435-1.13,1.6-1.293l.14-.3-.039-.275q-.939.132-1.482-1.141a11.287,11.287,0,0,0,.221-4.922l1.112.126q.252-1.44.656-1.5l-.031-.221-.48-.495-.671.095-.549.64-.223.031-1.862-2.212-.039-.275.224-.032,1.559.062a.748.748,0,0,1,.734-.946l-.031-.22.254.188.851-.12.377-.558-.078-.551a1.9,1.9,0,0,1-1.891-.8l-.626.088-.6.591-3.264.458-.7-.407-.811.394q-1.614-.448-1.675-.888l-.039-.276q.492-.069,1.149-1.23a3.979,3.979,0,0,0-3-.927l.039.275-1.375-.369-.185.307-2.64-2.888q-.223,1.662-1.475,1.837.124.882-1.335,1.536l.078.552-.895.126q-20.482-1.339-23.023-19.418l-.148-1.047q-2.61-18.576,16.424-24.624Zm-18.3,12.914.524.488.179-.025-.077-.551Zm13.939,41.1.255.19.038.275-.331.89.039.275q.9-.126,1.266,2.52a14.88,14.88,0,0,0,2.751,4l.031.221-.254-.19-.179.025.07.5.179-.025.184-.306q4.525,2.343,6.54,2.4l.108.772.447-.063-.077-.551,1.3-.182q1.318-.016,1.413.644l.3,2.151q.069.495-.6.589l-.254-.189-.4.057.03.22q.873.048,1.044,1.259l-.485,1.417q.67-.093.748.457l.07.5-.038,1.355-.255-.19-.223.032-.148.246.155,1.1a1.335,1.335,0,0,1,1.444.865l.225,1.6q.078.55-.817.676l.818.954-.37.613-1.073.152q-.085-.608-1.823-1.937l-.07-.5-1.3.183.031.22.626-.088.194,1.378-1.7.24q-1.422-2-1.823-1.937l-.185.308.039.275q.626-.088.85,1.511l-.179.024-.863.347a18.44,18.44,0,0,1-8.972-2.506q.095-1.923.855-2.031l-.116-.827a3.157,3.157,0,0,0-1.782,1.6l-.85.119Q29.3,199.016,26.318,191.4l-.86-3.2.333-.553-.039-.276-.139.3-.224.031a10.579,10.579,0,0,1-.936-3.41l.37-.615.224-.031.217.25.186-.306.67-.095,1.336.093,1.219-.733,3.042-.428.116.828.223-.032q-.064-1.116.472-1.19l3.891-.547ZM25.45,185.221l.264,1.874.224-.031c-.052-.366.145-.583.592-.645l-.03-.221-.6-1.04ZM27.933,162l.787.731.107-.857-.262-.245Zm.345,27.437.626-.088-.07-.5-.18.026Zm.074-2.708,1.074-.15-.077-.551-.671.094Zm1.281-51.894.518.433.223-.031.378-.559-.078-.551Zm.021,58.232.039.276.447-.063-.109-.771Zm.027-53.348.07.5c.716-.1,1.1.034,1.151.4l.447-.062-.818-.955Zm.37,45.141-.185.307.078.553.671-.095-.039-.276Zm.045-18.5.517.434.447-.064-.07-.5Zm.917-4.514.147,1.047.525.49-.225-1.6Zm.413,25.013.147,1.047.448-.062-.147-1.047Zm1.391-31,.039.277,2.671.186-1.631-.9Zm.352,27.494.472.441.378-.56-.078-.552-.447.064Zm.225,3.23.517.432.626-.087-.371-1.017Zm.049,6.513.4,1.573.447-.063-.038-.275-.411-1.292Zm.312-28.937-.14.3.039.275,1.073-.151-.039-.276ZM35.779,199l.039.275.894-.126-.263-.244-.03-.221Zm.432-14.452.069.5q.85-.12,1,.983l.671-.095-.077-.552-.525-.487-.224.031.193-.252-.116-.827-.671.094Zm.151,5.938.077.551.594.984.448-.062-.07-.5-.6-1.041Zm1.056-33.369.077.551.672-.095-.078-.551Zm2.063,35.122c.077.552-.093.856-.51.915l.07.5.887-1.474Zm.356-28.942-.184.307.038.276.894-.126-.038-.276ZM39.726,203.4l.031.221q1.52-.215,1.752,1.439l.448-.063-.078-.551.185-.307-.262-.244-1.853-.526Zm.807-5.285.224-.031.185-.308.223-.031.735.684.224-.032-.039-.275-.332-.741-.85.12Zm.518,2.064.525.487.179-.025-.48-.494Zm.477-6.026q.069.5.919.377l-.141.3.039.275.927.432-.038-.276-.857-1.228Zm1.492,7.379-.185.307.116.827.185-.308.224-.031.888.156ZM45.675,168.5l-1.822-.307,1.075,1.48.894-.126q-.093-.662.742-.891l-.077-.551.556-.585-.3-.8Zm-.814-41.819A24.355,24.355,0,0,1,62.479,131q4.109,3.919,4.318,5.407,1.118-.157,4.236,10.028l.109.773-7.179,2.133-.039-.276-5.975,1.627q-1.762-6.385-4.242-8.116-2.052-1.623-7.118-1.98l-.078-.551v-1.629l-.595-2.616-1.2-8.543.185-.307ZM44.942,198l.116.827.958.651.447-.062-.147-1.048-.224.031-.185.308q-.627.087-.742-.739ZM47.9,172l1.52-.213.779.676.194,1.379q-4.247-.358-4.339-1.02l1.923-.271Zm-1.6-6.858.186,1.323.224-.031-.186-1.323Zm1.472-6.727.039.276.409,1.291q-.447.063-.625,1.718l-1.118.157.37,1.017-.107.857a5.623,5.623,0,0,0,1.626-4.331l-.147-1.048Zm-.178,47.412.031.22-.185.307.039.276-.71-.181-.038-.276Zm-.32-8.444.039.276.524.488.224-.031.587-.363-.038-.276-1.113-.125Zm.087,5.161.154,1.1.4-.057-.078-.551Zm1.152,3.659.895-.125.078.551-.224.031-.71-.182Zm.283-35.959.626-.088.779.679.117.826-.224.031-1.151-.4Zm.924,24.1.116.828.671-.095-.039-.276-.525-.488Zm.612,7.279.147,1.047.48.5.185-.308.447-.063.077.551.225-.031-.078-.552Zm.243-73.559.039.276.7.126-.07-.5Zm2.094,35.343.85-.119-.07-.5-.4.056Zm1.314,4.481-.185.308.03.22.626-.088Zm5.407,21.276a3.638,3.638,0,0,1,2.78.958q2.147-.3,2.409,1.572l.71.182.185-.307.563.764-.184.306.039.276q1.473,1.086,1.591,1.913l.4-.057q-.156-1.1,1.559-1.568l.262.244-.185.308.07.5.262.244q.1,1.391-.433,1.466l.148,1.047q.186,1.323-.932,1.48.085.607,1.233.67l-.038-.275.14-.3.224-.031-.264-1.875.447-.063-.038-.275-.262-.244a1.356,1.356,0,0,1,1.334-1.537q.621,1.824,1.113,1.755l.039.276q-3.876,4.875-6.335,5.218l-.07-.5-2.3.829-.031-.22.108-.859-.224.032-.587.364.038.275.512.715.077.551q.163,1.158-7.781,2.723l-.262-.243-.449-3.2.185-.308L55.4,201.7l1.112.125.447-.063q.445-.063.261-1.386l.511-.914-.07-.5-.224.031-.185.307-.179.025a8.147,8.147,0,0,0-1.352-3.126l.116-.8L54.1,194.012l-.224-1.6q-.086-.608.957-.979l1.157.118q-.147-1.046,2-1.348l.225,1.6-2.147.3.851,1.511.223-.031-.077-.552,1.744-.245-.262-.244-.038-.276.447-.062.7.463.184-.307.448,1.566.4-.056-.109-.772-.364-1.3.14-.3q-.627.089-1.036-1.2l-.626.087-.039-.275Zm-5.108,6.17.447-.064.341.8-.116.8-.447.063Zm.973,2.055,1.112.125.3,2.1-1.3.182-.516-.433-.186-1.323C54.61,197.67,54.807,197.453,55.254,197.39Zm.047-32.44-.325.607.078.551.626-.088-.155-1.1Zm.1-35.652.733-.946-.223.032Zm1.5,75.225.031.221,1.56.061-.332-.74Zm1.034-2.056.185,1.322,1-.7Q59.026,202.481,57.929,202.467Zm1.527-64.746.07.5.849-.119-.07-.5Zm.323,60.382q.458,1,.773.96L61,199l-.031-.221-.787-.732Zm.21-26.729-.107.857.447-.062.325-.608-.262-.244Zm4.658-9.367.589,1.265-.773.671L64.2,163.7l-.671.095-.324.607.038.275.511.715.155,1.1-.255,1.1-1.074.151-.748-.457.155,1.1-1.521.214.039.276,1.144.345.562-.866.224-.032.7.464a1.227,1.227,0,0,1,1.142-1.285l.186,1.324-.626.088.116.826,1,.928.378-.559-.263-1.874.37-.614.178-.026.71.182-.264-1.875-1.52.214-.038-.276.037-1.354.224-.031,1.111.125q-.155-1.1.293-1.165A2.639,2.639,0,0,0,64.647,162.007Zm-2.753-27.381.077.55-1.3.182.069.5,1.073-.15,1.043-.372.556.71.587-.365-.109-.771-.479-.494Zm-.459,56.443.332.74.333-.552-.116-.828-.224.033Zm1.191,2.306.07.5,1.073-.151-.472-.439Zm.388-9.892.039.276q.108.773,1.629.557c.1.736.289,1.084.557,1.047l.448-.063.369-.614-2.64-1.26ZM64.187,196.7l.186,1.323,1.482-.49-.039-.275q-1.074.15-1.182-.621Zm.346-15.058.481.495.224-.031-.525-.488Zm1.13-10.782q.186,1.323-.932,1.481l.116.826.224-.031,1.7-2.151Zm2.937,5.32.078.552-1.074.152a5.507,5.507,0,0,1-2.485,1.135l-.263-.244.078.551,1.968-.276c.149,1.067.359,1.579.627,1.542l.447-.064-.563-.763-.031-.22.369-.615,1.521-.213.7.463-.155-1.1-.218-.251-.031-.221L69.9,176Zm-2.037,19.905c.072.515-.115.8-.562.866l.039.275.849-.12.077-1.078Zm-.3,4.37,1.3-.183-.078-.551-.473-.439-.223.031Zm.167-35.155-.107.857.626-.088-.116-.826Zm.181,20.435.07.5.972.425.224-.031-.077-.551Zm.416-17.484.07.5.933.15-.077-.551Zm.675,4.8.07.5,1.118-.157-.517-.433Zm.019,10.845.038.277c.047.33.544.73,1.491,1.195l-.155-1.1q-1.119.156-1.195-.395Zm.257-43.6.194,1.378.74.4-.038-.275-.672-1.535Zm.013,26.7.078.551,1.257-.457-.038-.276Zm.062,14.72.069.5,1.073-.152-.224-1.6q-.4.057-.248,1.159Zm.464-12.6.48.5.223-.031-.525-.488Zm.756,13.5.148,1.047.447-.062-.148-1.047Zm.619-11.5.07.5.888.157.672-.095-.039-.276A2.083,2.083,0,0,1,69.894,171.106Zm.142,21.452.849-.119.155,1.1-.587.363-.262-.244Zm.293-2.458.038.276.448-.063.031.221.926-1.2q1.072-.151.887-1.474l.224-.031a.749.749,0,0,0-.966-.707l-.069-.5-.224.031q-.448.063-.076,2.709Zm.48-25.137.179-.026a1.786,1.786,0,0,1,1.119,1.473l-1.073.151-.525-.489-.069-.5Zm-.336,21.3.039.276.664.187-.077-.551Zm.019-7.648.6,1.04.472-1.19Zm.829,4.268.07.5.524.489.178-.025-.147-1.048Zm.812,1.235.146,1.048.225-.031.377-.56Zm.181-6.827.077.552.223-.032.326-.608Zm.285,14.687.07.5.625-.087-.069-.5Z"/><path d="M71.9,123.383l-.185.306-.18.026-.516-.434.185-.307.223-.031Zm42.944-4.012q.078.551-1.892,1.783l.031.221,1.112.125c-.072-.515.04-.793.339-.835l.357,1.243-.456,1.3.039.275-.626.088-.517-.434-.171-1.212a1.757,1.757,0,0,1-1.629-.558l.031.221-.21-.2-.179.026-1.272.684-.556-.709.571-.811-.031-.221-.517-.433a1.832,1.832,0,0,0-1.683,1.98l-.224.031.255.19.039.275-.378.559-1.476.207c-.119-.846-.327-1.246-.625-1.2l-.179.024a1.816,1.816,0,0,0-.6,1.884q1.207-.171,1.278.326l-.179.025.279.692.268-.038q.447-.063.347-.78l.14-.3.671-.094.7.408q.279,1.983-1.2,2.191-.063-.441-1.135-.291l-.078-.55-.671.094q-1.555,3.537-1.913,3.585-.4.057-.232,1.27l-.193.251-1.073.151-1.1-.069.03.22.581,1.211-.192.251.447-.062q.447-.063.307-1.055.447-.063.626,1.2l.224-.031-.291,1.5.269-.038.888.157.062.441-4.965.7-1.506-.013-1.893.491-14.177,1.993a2.779,2.779,0,0,1-1.876-.692l-.4.057.21.194.1.717-.179.025-.255-.189-1,.365-2.774.39-1.543-1.245-.17-1.212.338-.835.211.2.715-.1-.693-1.363-.4.057-.209-1.488.894-.126.5.941.039.275.224-.031.377-.558-.038-.276q-.584.083-1.507-1.306l.059-1.526c.98.051,1.494.239,1.54.57l.17,1.213c.417-.058.686.334.8,1.18l1.473.748.179-.025-.132-.937,1.3-.182.132.936-.865,1.64.07.5.224-.031q-.169-1.211,1.126-1.4l.224-.031a1.608,1.608,0,0,0,1.282,1.337l.031.219-.447.064.07.5.626-.088,1.674-.741-.069-.5-1.45-.583-.325.608-2.079-2.463.115-.8-.224.031q-.984.139-1.568-1.747a1.932,1.932,0,0,0,.856-1.695l.671-.093.517.433.031.22-.045,1.3.192-.252.179-.026,1.322.321-.178-1.268-.185.307-.4.056-.109-.771.825-.622.224-.031-.031-.221q-1.521.215-1.59-.282l-.07-.5.115-.8-.224.032-1.366-.314.192-.252-.031-.221-.517-.434q.24,1.71-.609,1.83l-.99.419-.5-1.953-.194.252-1.52.214c.14.992.059,1.509-.238,1.551l-1.3.183-.209-1.489q-.061-.441,1.2-.9-.247-1.764.2-1.826l1.52-.214.069.5.225-.031q-.139-.993.262-1.049l3.8-.534,1.589,1.575-.247-1.764.223-.031.7.408.671-.095.556-.584,12.657-1.779q.4-.055.51.716l.224-.032c-.072-.515.041-.792.339-.834l4.741-.666.472.439.039.276-.193.251.031.22.224-.031.9-1.363,8.363-1.175.07.5-.333.553-.031-.221-.64.314.078.551,1.073-.15q.4-.057.6,1.377l.223-.031.2-1.829.447-.062.27.3.224-.032.177-.363A2.093,2.093,0,0,0,114.842,119.371Zm-38.255,9.142-1.119.158-.472-.44,1.235-.624.255.19Zm-1.146,7.749-.179.026.032.22q.386,1.464.835,1.4l.223-.031-.139-.994ZM77,123.959c-.417.058-.662-.168-.734-.684l-.325.608-.271-.3-.4.056.178,1.269.223-.031a2,2,0,0,1,1.369-.643Zm2.944.823-.224.031-.288.546.428.446Zm1.24-.905-.223.031-.332.553.03.22.4-.056.192-.252Zm.727.629-.332.551.279.693.224-.032Zm1.853-.767-.849.119,1.467,1.03.194-.252Zm1.163,11.191q-1.073.151-1.251-1.118l-.224.031.055,2.017,1.3-.183Zm2.327-12.975-.447.062.077.552-.254-.188-.224.031-.595.308-.031-.22-.332-.741-.179.026.109.771a3.449,3.449,0,0,1,1.925,2.99l.447-.063-.765-2.2.385-.5Zm1.844,13.119-.255-.189-.671.095c.068.478-.183.757-.749.836l.1.716q.843-1.13,1.381-1.206l.07.5.224-.031Zm1.513-4.483-.4.055-.015,1.521-.179.024a2.376,2.376,0,0,1-1.621-.5l-.224.031.062.441q.07.5.965.371l.432,1.457,1.029-.146Zm-1.718-4.762-.179.024.132.938.4-.057-.031-.221Zm.711-2.4-.179.024-.525.805.178-.025Zm.315-1-.261-.245-.225.033.039.275.225-.032-.194.253.07.5.224-.032Zm9.011,77.091-3.89-27.672.486-1.416-.34-.795-.039-.276.178-.362-.672.094-.3-2.15.362-.669.672-.093.314.292q-.426-3.03.468-3.158l-.386-1.126.378-.558,1.61-.227-.078-.552q.894-.124.817-.675l-1.834.256-1.164-.173.046.331-1.308.746-.224.031-.525-.488L92.022,150.4l.447-.062.186,1.323.448-.063.267-1.668,1.041-.708.184-.307-.67.094-.594.646-.939.132-.525-.488-.271-1.929.185-.309c.448-.062.629-.387.547-.975l-1.119-1.473-.349-2.48.447-.064-.194-1.378-.563-.763-.039-.276.37-.614.94-.132.077.551-.492.069.039.276,1.386-.195-.116-.827,2.728-.383.193,1.378.225-.031,1.192-1.573,1.118-.158c.3-.042.486.213.563.765l1.387-.195q-.115-.828.331-.89l1.61-.227.525.489.593-.646,1.387-.194.525.487.31,2.2-.671.095q-.156-1.1-1.542-.907l-.223.031.339.8-.885,1.81.038.276,1.149-1.567.491-.069.787.733.039.275-.03,1.409q-1.332.582-1.27,1.023l.039.275,1.27-1.021q.447-.063.254-1.441l.447-.063,1.084,7.716-.709-.18-.378.558q.671-.093,1.281,1l1.7,12.127-.447.064-.155-1.1-1.163.163,1.912,1.923.465,3.308q-.469,1.53-1.408,1.66c.046.33.307.463.785.395l.2,1.433-.369.614-1.387.2-.24-1.709q-.078-.55.593-.646l-.556-.709q-.574,1.429-1.647,1.581l.077.551-1.342.188-.184.308.57.818.594-.645,1.163-.163q.447-.063.672,1.535.894-.126,1.057,1.032l1.039-1.045,1.118-.157,3.541,25.191Zm-6.413-66.72-.925-.095.069.5.895-.126Zm.014-10.288-.4.056-.517.86.617,1.15.18-.025.332-.553-.394-1.182Zm.465,6.23-.4.057.14.992.69.689.223-.031-.038-.275Zm1.706,4.031-.223.033-1.482.489.1.716q1.029-.144,1.2,1.068.834-.228,1.14-1.621ZM94.33,165.2l-.255-.189-.357-2.536.448-.062a1.738,1.738,0,0,0,1.141,1.3q.2,1.436-.938,1.761Zm2.444-7.594-.715.1q-1.119.156-1.313-1.222l-.223.031c.073.516-.131.806-.607.873l.124.882.263.244.676-.376q.447-.063.6,1.039A2.572,2.572,0,0,0,96.774,157.6Zm-1.8-16.05.068-1.133-.709-.181-.376.9Zm.008-11.3-.626.087.031.221.28.692.447-.064Zm.05-9.057-.447.062-.123.748.254.19,1.073-.151-.031-.221Zm.931,24.152-.524-.489-.224.032.077.552Zm-.042,6.19.671-.095-.533-.544-.716.1Zm2.018-26.534q-1.074.15-1.136-.291l.115-.8a2.023,2.023,0,0,1-1.406.7l.07.5c.041.3.417.483,1.129.572l.192-.253.58.874-.448.063.039.276.85-.119Zm-.624,44.887.223-.031.47-1.528-.788-.733-.223.032q-.516,1.2-1.231,1.3l.046.33A2.086,2.086,0,0,1,97.316,169.894Zm.163,2.787-.67.095-1.016,1.21Q97.572,173.344,97.479,172.681Zm2.923-50.269.1.717-.179.025-.394-1.182-.447.063.069.5-.849.119-1.043.372-.6-1.377.179-.025-.357-1.242-.224.031-.192.251-.224.031.8,2.419-.447.063.069.5,1.566-.22.178,1.268.775-.334.656.132.24,1.709-.517.86-.255-.19-.4.057-.386.505.672-.095.069.5-.755,1.118-.224.032-.217-.251-.185.307-.224.031-1.112-.125.07.5,1.738.037-.14.3.07.5.178-.026c-.047-.331.3-.549,1.049-.653q-.088-1.281.448-1.356l1.884.747-.109-.772-.492.069-.1-.716.238-.258-.039-.276,1.112.125.179-.025-.07-.5-1.283-.045.185-.307-.039-.275-.71-.182-.232-1.653-.894.125-.148-1.047.448-.062.077.55.224-.031.632-.37.039.275q.078.552,1.607.731l-.131-.938ZM97.41,142.337l-.077-.551-.716.1-.369.615Zm-.04-10.674-.224.031-.385.5.671-.095Zm.136,24.657.447-.062-.517-.434-.447.062Zm.584-3.961-.039-.275-.34-.8-.671.095q.078.551.748.456l.077.55Zm.31-6.226-.078-.551q-.671.093-.748-.457l-.492.069.031.22Zm1.867,23.346q-.077-.551.638-.652l-.039-.276-.491.07-.047-.331.037-1.355q1.31-.744,1.232-1.3l-.046-.331-.848.457-.224.032-.315-.293q-.154-1.1-.6-1.04l-.225-1.6-.223.031-.03,1.41-1.157-.118-.223.031-.423.565.039.275.693,1.366.671-.095,1.157.118.077.551-.561.867.463,1.678Zm-2.292,6.73-.186-1.323-.447.064.186,1.322Zm.817-43.51-.849.119c.036.258.355.477.958.653Zm2.578,26.451a2.678,2.678,0,0,1-1.421-1.992l-.447.062c.1.736-.158,1.146-.785,1.234l.039.276Q98.827,159.225,101.37,159.15Zm-.883-14.716-.417-1.346-1.163.163.039.275c.626-.088.978.145,1.055.695l.077.552-.376.9.039.275C100.059,145.825,100.308,145.323,100.487,144.434Zm.376,17.6.115-.8-.224.031-.263-.243-.67.094Zm-.346,12.473-.163-1.159-.369.615.085.606Zm1.223-34.461-.078-.552-.716.1.078.551Zm-.077,32.556.116-.8-.039-.277-.716.1.147,1.048Zm.361-3.929q.5,1.278.856,1.229a3.158,3.158,0,0,1,.815-2.644l-.148-1.048-2.01,2.251.039.275Zm.749-7.975.184-.307q-.115-.827.555-.921l-.085-.606q-1.427,1.212-1.364,1.653l.039.276Zm2.548-4.911-.147-1.048q-1.746.246-1.989-.845l-.224.033.039.276Q103.154,155.3,105.321,155.784Zm-1.524,2.462-.031-.22.229-.313-.939.131.039.277Zm16.655-30.109-.193,1.545.224-.031.179-.025.341,2.425-.581.083-.054-1.679-.039-.277-.178.026-.445,2.029-2.549.359-.1-.717-.447.063q.1.717-.3.774l-10.286,1.445q-.132-.937-1.653-.723l-.192.251-.5-.66-.1-.716q-.069-.5,1-.647l-.039-.277q-1.073.151-1.173-.564l-.17-1.213.332-.553.895-.126q.1.717.547.655l1.043-.372-.263-.244-.03-.22-.193.252-.626.088-.517-.434-.108-.772a1.775,1.775,0,0,1,1.708-1.476l.267-.038.332.74,1.183-.672c.088.626.49.886,1.2.785l.279,1.985.894-.125.209,1.488.219.251.03.22q.672-.094.532-1.087l1.266-.4-.218-.25-.031-.22-.193.251-.492.069-.726-.628-.363-.961-.626.088.184-.308-.069-.5-1.36-.258.264-1.049-.4.056-.349-2.48.85-.119,1.105.07c-.067-.477.033-.736.3-.773l.939-.132.279.691a1.953,1.953,0,0,0-1.234,2.253l.224-.032q.448-1.354,1.3-1.475l.509.378-.185.308.178,1.267,1.3-.182c.3-.042.481.177.548.654l.447-.063q-.2-1.434,1.006-1.6l-.217-.251-.039-.275.092-2.261-.254-.189.448-.064q.1.717.547.654l.671-.094-.07-.5-.447.063.046-1.3-.062-.441-.224.031.062.441-.4.057-.4-.9,1.117-.157.1.716.85-.119.193-.252.179-.025a1.311,1.311,0,0,0,1.428.756l.108.771-.525.805-.554-.373-1.145.611.07.5.849-.119.039.275-.385.5-.255-.188-.179.025.07.5.612,1.432.447-.062a5.463,5.463,0,0,1,1.026-3.405l.179-.025ZM105.889,164.7l.224-.031-.078-.552q-1.687-.324-1.835-1.371l-.671.094.148,1.046.64-.314Zm.986,10.26.185-.307q-.386-.788-2.513-1.333l-.363.67A3.28,3.28,0,0,1,106.875,174.958Zm-1.486-54.709-.307-.238-.582.082.682.635.238-.259Zm.521,41.354q-.054-.384-1.011-.7l.078.551Zm.8-7.643-.386-1.127-.716.1.431,1.12Zm2.036,12.867-.116-.827-1.386.194.078.552ZM108.269,119l-.657-.132-.193.251.047.331.7.408.185-.307Zm.167,10.6-.223.032-.6.307.14.992.447-.062.263-1.049Zm.757,2.141-.377.559.069.5.224-.032.587-.365-.031-.221Zm.65,44.541.022-1.464-.933-.151.039.276.649,1.37Zm-.4-4.5-.263-.244-.047-1.961-.078-.551.447-.064.388,2.756Zm.386,11.187.26-1.722-.34-.8-.492.069.349,2.481Zm4.3-53.443c-.745.1-1.212-.072-1.4-.533l.084-1.024-.464-1.677-.581.082,1.061,3.335.472.439.448-.062Zm1.082-12.742.07.5-1.079.432-1.515-.068.378-.558Zm-.078,12.095-.626.088.069.5.6-.307Zm1.344-1.144-.447.063c.042.295-.207.478-.743.554l.07.5.927-.86.224-.032Zm2.684-8.809-.982.476q-.627.088-1.979-1.746l-.223.032-.139-.992,1.654-.234,1.359.259Zm-1.048,7.792-.263-.245-.178.026-.563.867.263.244.062.44q.169,1.213-.724,1.338l.108.772.268-.037A7.151,7.151,0,0,0,118.111,126.724Zm-1.256,3.718.132.937.385-.5Z"/><path d="M125.63,115.325l.116.826.224-.031q-.095-.662.822-.958l.564.763.077.551q-.671.1-.546.977l-.862.682-.933-.149c-.18.889-.414,1.389-.7,1.5l-.263-.244-.267.037-.517,1.2,1.433.136.271,1.929q-.939.133-.823.96l-.894.125-.434-3.087-.125-2.512-.5-1.953.184-.307Zm2.951-.415,7.738-1.087.524.488,1.062,7.552-.447.063q-.234-1.655-.68-1.591l-.37.614.078.552q.077.55,1.5.968l1.216,8.655-1.6-.056-.223.031.038.276,1.913.631.473,3.362-.671.094.077.551q.671-.093.749.457l1.89,13.45q-.9.126-.616,2.11l.262.244-.593.646-.671.094q-.447.063-.648-1.371l-.269.038q.2,1.434-.469,1.528l-1.119.157-.525-.488-.162-1.158q.672-.094.594-.646l-.418-1.347-.185.308-.223.031.263.245.116.826-.415.621-.671.094q-1.188-.339-1.466-2.323l-.047-.331.632-.37-.68-1.591q.894-.126.694-1.559l1.833-.257-.155-1.1,1.342-.188.23-.313.224-.032q-.117-.828-1.056-.694l-.464-1.678-.185.306-.223.032.262.245.085.606-.554.92-.9.409.116.827-.262-.245-.448.063-.207,1.771-.979-.48.085.606-2.281.321-.163-1.159.031-1.409c-.448.064-.7-.089-.749-.456l-.162-1.158.632-.37q.681,1.929,2.112,1.726l-.038-.275a2.415,2.415,0,0,1-1.442-1.82l.369-.614.263.244,1.162-.163-.232-1.655q-.086-.6.586-.7l-.077-.552q-1.342.189-1.575-1.465l-.185.308-.268.037-2.09-.267-.185.306-.077-.551c.447-.063.642-.3.585-.7l-.116-.826-.447.064.077.55-1.2-.112-.447.063.039.275.447-.062.077.551-.847.456-.2-1.432.67-.095-.154-1.1-.263-.244-.038-.276a1.807,1.807,0,0,0,.654-1.833l.715-.1.788.732-.362.67.679,1.59.448-.063-.155-1.1.223-.031.524.488-.184.306.039.276.447-.063,1.309-.745-.078-.551q-1.3.182-3.231-1.57l-.317-2.261-.447.064a2.972,2.972,0,0,1-.7,1.84l-.263-.244-1.118.157.719,1.867q.123.883-1.516,2.518l.038.276-.894.125-.31-2.2.169-2.047-.448.062-.154-1.1.447-.063.116.827q1.7-.238,1.678-1.36l-.046-.331-.223.031.085.607a1.88,1.88,0,0,1-2.113-1.727l.778-.953,1.387-.194-.03,1.41.077.551.224-.032q-.111-1.109.292-1.166l-.8-2.471.37-.616-.039-.275q-.672.094-.749-.456l-.184.307-.225.031-.831-.727-.039-.275a1.035,1.035,0,0,0,1-1.321l-.262-.245.185-.306.262.244.671-.095,1.124-.438.464,1.677.224-.031q.636-.987,1.218-1.071l-.078-.552-.933-.149.314-2.629q-.582.081-1.127-1.529l.331-.89,1.2.394.229-.312-.732-1.641Zm-3.36,22.17.447-.063.425,1.4.048,1.961-.525-.49Zm2.405.561q.492-.069,1.737,2.622l.223-.031.067-1.471q-.715.1-.793-.451l1.124-.438,1.235.67.223-.032.116.828-.362.668-1.118.157a2.522,2.522,0,0,1-.444,2.03l.224-.031-.185.306.038.276.732,1.64-.638.652-.787-.733-.223.032-.37.614q.3,2.149,1.921,2.315l.039.276.185-.307.268-.038.525.488.271,1.93q-1.162.162-1.077.77l.038.275a1.581,1.581,0,0,0,1.766.876q-.234-1.654.214-1.716l.039.275.632-.37-.046-.331q-.076-.549-.749-.456l-.262-.245-.116-.826.331-.89a1.681,1.681,0,0,1,2.1,1.672q-.447.063-.246,1.5l-.492.07.116.827q3.36,2.171,3.43,2.666.076.55,1.2.393l.262.244.2,1.434-.029,1.409.223-.031,1.086-.715.262.244-.077-.55q-.078-.552-1.017-.42-.086-.607,1.077-.77l-.038-.275,1.427.418-.047-.331.069-1.134.447-.064.907,6.45.055,2.016.572,2.448,2.6,18.522a4.118,4.118,0,0,1-.577,2.386l.077.551.185-.306.671-.095.039.275-.185.307.417,1.347.512,3.638-1.1,1.9-1.118.157-.793-.45.185-.307-.124-.882-1.257.794.078.552-1.386.195-.163-1.157.862-.683.223-.033L143,190.9l-.525-.488-.268.037q.1.717-1.1,1.9l-1.433-.134q0-1.968.444-2.031l1.119-.157q-.117-.826,1.045-.99l.655-1.835-.039-.276-.894.126-.233-1.653.9-.126,1.535,1.19.493-.07-.039-.275q-1.164.164-1.4-1.546l-.039-.275q.939-.132,1.193-1.573l.224-.031.077.551.447-.064-.116-.827-.765-2.2-.447.062-.475,1.81.569.481-2.195,2.558-.754-.175.039.276q.178,1.269-1.549,1.96-.671-1.2-1.58-1.183l-.124-.882.37-.615.223-.031,1.2.113-.263-.245-.039-.276.215-1.715-1.162.163.307.237.077.551-.715.1-.61-1.093-.039-.276-.224.031q.279,1.986-.168,2.047l-.447.064-.754-.175.038.275-.215,1.716-.262-.244-.223.031-.362.67q1.609-.227,1.764.876l.418,1.347-1.8.533.262.243.279,1.985q1.386-.194,1.464.357l.24,1.709-1.387.194c-.267.039-.571-.5-.91-1.614q-1.611.227-1.688-.325l-.279-1.984.448-.064-.039-.275c-.6.084-.92-.058-.972-.425l-.7-5.017,1.37-1.935-1.61.226-.039-.275.331-.89-.116-.826-.571-.819-2.324-16.537q-.078-.551.593-.645l-.038-.276q-.672.093-.749-.457l-.868-6.174.37-.613.224-.032.262.244.223-.032-.038-.275-1.319-1.276-1.534-10.915.447-.062.525.488-.224.032.348.85.491-.069-.2-1.433c-.052-.366.37-.615,1.264-.74l-.039-.275-1.687-.326-.085-.606.229-.313L127,139.7l-.306-.238A2.616,2.616,0,0,0,127.626,137.641Zm-.17-12.567.077.551.268-.038,1.081-.433-.117-.826Zm.185,21.108-.1.915.262.244.268-.038.324-.945-.262-.244ZM128.906,150l-.176.362.116.826.554-.92-.27-.3Zm.2-24.873.116.827.447-.063-.116-.827Zm2.1,31.465.671-.094.038.275-1.079.432.077.552.448-.063.154,1.1.426,1.4-1.264.74-.039-.276-1.124.439.039.276.262.244.039.275,2.2-.871.077.551.447-.063-.278-1.984,1.162-.164-.378-1.071.107-.858,1.566-.219.831.725-.184.308.077.551.533.544-.124-.882.447-.064,1.057,1.032.039.276-.186.307.263.245.039.275-.03,1.409.447-.062-.086-2.238.307.24.447-.064-.039-.276c-.3.042-.514-.413-.648-1.369q-1.186,0-1.279-.664l.576-2.386-.671.095.086.606-.67.094-.271-.3-.224.031.03-1.409-.038-.275-.448.062.009,1.685-.263-.244-.268.038-.1.913-1.565.219.155,1.1-.94.133-.077-.551.492-.069-.038-.277-.349-.85.225-.032q.535-.075.623-2.054l-.9.126Zm-.844,6.976.077.552.71.181.185-.307-.2-1.434-.223.032Zm.5-44.139.223-.033.555-.921-.224.032Zm.188,4.583.039.275.447-.063.107-.859-.223.032Zm.21,3.117.116.827.447-.063-.116-.827Zm.251,46.564.077.551.492-.069-.185.307.038.277.341.794-.224.032-.677.377.038.275.716-.1a2.969,2.969,0,0,1,2.681-2.345l-.077-.551-1.981.84-.524-.488Zm1.27-53.916.193,1.378-.224.031-.569-.481.185-.308-.671.094.233,1.654-.448.063.078.551.447-.063q-.14-.991,1.9-1.391.381-1.177.962-1.26l-.077-.551Zm-1.237,6.132.039.275.448-.063.369-.613-.262-.245-.224.032Zm.209,44.321-.184.307.039.275.222-.031-.038-.275.263.244.447-.063-.039-.275Zm-.025-3.425.077.551.788.732,1.085-.714-.039-.276-.569-.482-1.079.434Zm.356-50.359-.337,1.172.492-.069.37-.615Zm.641,54.209.039.275.787.734-.039-.276Zm1.049-10.715q.194,1.378-.254,1.441l-.71-.181a3.605,3.605,0,0,1,.726,1.922l.447-.064q.4-.056.47-1.526l-.262-.245.817-.677.077.551.224-.031-.155-1.1Zm1.766-30.264-1.341.188-.57-.481-.633.369.156,1.1,1.2.113.185-.307,2.4.506-.039-.276c-.051-.367-.317-.517-.793-.451l-.039-.275.784-1.234,1.342-.189.1-.913-.262-.244-.447.062Zm-1.9,64.01.263.245.038.276-.369.613-.263-.244-.039-.275Zm.257-6.613c.077.552-.124.861-.6.928l.57.482-.23.314.077.55,1.163-.163-.039-.275a3.319,3.319,0,0,1-.718-1.867Zm-.554-8.8.155,1.1.886-1.811-.263-.245Zm.25,3.394.038.275.525.49.223-.033-.077-.551-.262-.244Zm.667-47.817-.184.307.038.276.832.726.184-.307.448-.063a1.016,1.016,0,0,1,1.281,1l.716-.1-.046-.33A6.368,6.368,0,0,0,134.252,133.843Zm-.113,46.9.524.489.633-.369-.039-.276Zm2.961-41.562q.2,1.437-.439,1.749l-.933-.15-1.572.5.117.826,3.059-1.271.37-.615-.078-.551Zm-2.578-15.095.418,1.346-.448.063.124.882.224-.031,1.9-1.447.223-.031-.039-.275-1.157-.12-.715.1-.078-.551Zm-.027,59.193.039.276.525.489.369-.614Zm.477-11.534.039.275.894-.125-.077-.55-.224.031Zm.138-55.162q.756,2.142,1.2,2.079l.555-.921q-.447.063-.641-1.315l-.262-.245-.224.033ZM135.285,136l.078.551c.3-.042.5.3.6,1.039l.447-.062-.864-1.284-.039-.277Zm1.166,1.8.116.828.447-.063-.339-.8Zm1.7,50.07.2,1.433-.37.615-.687-1.647.184-.308Zm-.7-41.329.038.275.34.8.894-.126-.077-.551-.972-.426Zm.03,20.006.077.551.894-.125.6-.927-.039-.276-.268.037Zm.308-30.9.9-.126-.533-.543Zm.983,28.418.116.826.224-.031.632-.37-.077-.551Zm.522,5.659.078.551,1.425.082.039.275a3.743,3.743,0,0,1-.392,2.079l.038.275.447-.063q.447-.063.285-1.219l1.349-.471-.194-1.379Zm.467-56.388,5.456-.767.525.488-.37.615.124.881.224-.031c.447-.062.578-.757.392-2.079l3.846-.54.263.244.229-.313,2.952-.415q.327,1.358.864,1.284l.185-.307.224-.032-.263-.244-.116-.826,5.68-.8.116.826.185-.307.262.244.448-.063-.039-.275-.262-.244-.039-.275,8.184-1.15.57.481,1.89,13.45-.415.62-5.9.829-.116-.826q-.449.063-.331.89l-12.97,1.822-.748-.456-.593.645-8.409,1.181-.569-.481-.31-2.205.178-.362-.263-.245-1.216-8.654.491-.069-.116-.827-.492.069-.162-1.157Zm-.331,32.368.525.488.448-.063-.04-.276-.347-.85-.224.032Zm.513,15.329.039.275.525.49-.117-.828Zm.931-1.818.154,1.1q.314-.043.516-1.2Zm.251,5.362.038.275.548,1.946.671-.093c-.129-.917.179-1.431.924-1.535a2.208,2.208,0,0,0-1.582-1.52Zm.172,2.843-.061,1.188.447-.062-.163-1.158Zm.541-50.666.748.458.108-.86-.263-.243-.223.031Zm.365,4.22-.185.307.047.331.262.244.223-.031.186-.307.825,1.008.233,1.653.268-.037.633-.37-.04-.275A5.525,5.525,0,0,0,142.2,120.977Zm1.45,56.4q.2,1.436-.961,1.6l.039.276,1.872.017-.24-1.708Zm-.268-52.857.085.607.448-.064.406-.675Zm.2,47.471-.185.308.116.827q.671-.1.826,1.007l.67-.093a4,4,0,0,1-1.165-1.805l.447-.062-.038-.276Zm.126-28.629q1.431-.2,2.414,2.246l-.185.308.447-.063.185-.307.262.244.268-.037.555-.922-1.364-1.27-.077-.551.223-.032.307.238.224-.031.185-.307,1.157.118,1.834-.257,1.078-.433.039.276.185-.307.716-.1.709.18,1.08-.432,3.891-.547,1.866.3.414-.62.224-.031.263.244.184-.307,9.079-1.276.525.488.038.276-.223.032-1.157-.119-.185.308.039.275,1.919.349.1-.913.448-.064.713,5.071a3.746,3.746,0,0,1-2.706-1.081l-1.387.195-.077-.551-1.342.188q-.154-1.1-1.094-.97l.039.275q.893,2.462,1.519,2.372.671-.093.787.734l.262.243.224-.032q-.155-1.1.56-1.2l.594-.644,1.5.914.491-.07.185-.306.224-.032.5,1.9.519,3.693-.185.307.262.245.039.276.047,1.96-1.648-.049-.363.669-.447.063-.046-.331-1.563.557-2.729.384-.27-.3-.177.362-1.61.227-.27-.3-.178.362-1.34.189-.987-.2-.847.456-1.611.227-.532-.544-1.7.858-5.948.836q-.447.063-1.134-1.583l-.224.032-.331.889-.755-.175.039.276q.125.882-.994,1.039l-1.342.188-.085-.606,1.118-.157-.038-.276-.263-.244.107-.858.224-.032.263.245.223-.032.185-.306-.193-1.379q-.085-.606-.757-.512l-.185.307-.224.031-.708-.181.261.244-.176.363.039.275.339.8-.254,1.441-.491.069-.473-3.362.185-.308-.263-.244-.828-5.9.223-.031q.492-.069,1.033,2.159l.224-.031a3.927,3.927,0,0,1,.13-2.323l-.039-.277-1.619-1.458-.124-.881.229-.314-.306-.238Zm1.176-24.73.155,1.1.37-.613-.077-.552Zm.274,6.82.156,1.1.224-.031.107-.858-.262-.244Zm.232,64.272.038.276.224-.032q1.3-.464,1.226-1.014l-.039-.276-.894.125Zm1.69-40.54.078.55.492-.068c.051.368.3.519.749.457l.278,1.984.447-.062.022-1.466Q147.618,149.109,147.08,149.185Zm.326,3.944.04.277.223-.032,1.124-.44-.077-.55-.224.031Zm.442-6.919a2.51,2.51,0,0,0,1.435,2.1l.885-2.147-.039-.276-.224.032q.078.551-.861.683l.077.551-.224.031-.077-.551-.524-.488Zm.873,34.447.492-.069.533.544.155,1.1-.939.132Zm3.011-3.571,1.341-.189,1.063.75c-.082-.587.025-.9.324-.944l2.012-.283.046.331-.185.306.039.276.262.244.269-.038.732-1.282,7.737-1.088.756.512.809-.732a1.565,1.565,0,0,1,1.1,1.025l-.185.308,1.944.852-.078-.552q-.849.119-1.4-1.827l3.847-.541q.939-.132,3.46,1.256l.37-.615-.262-.244-.125-.882,2.952-.414.532.543.31,2.2-1.029,2.731.223-.032.823-.959.224-.031.511,3.638-.185.307.263.244.038.276-.331.89.571.819.512,3.638-.371.614-9.123,1.282-.039-.275.9-.408-.038-.276-.493.07.039.275-.262-.244-.671.095.116.826-3.623.508-1.317-.938.475-1.809a4.55,4.55,0,0,1-2.621-.475l-1.493,1.054.116.826c.447-.064.712.2.8.787l-.224.031.262.245.039.276-.37.614-3.175.446-.039-.275c-.051-.366.147-.583.594-.646l-.834-1.063-1.118.157-.077-.551-1.387.2q.2,1.434-1.14,1.621l-.578-.537-.271-1.929.716-.1-.262-.244-.24-1.709.184-.307-.039-.276a2.085,2.085,0,0,0-1.5-.632l-.039-.275.185-.308-.262-.244-.039-.275.323-.945a2.339,2.339,0,0,0-1.311-1.22l-.862.682.462,1.34a3.589,3.589,0,0,1-.437,2.086l.078.551q.093.662,1.279.663l.085.606-.716.1q.117.828,1.056.695l.4,2.812.894-.126.039.275-.369.614-2.952.415q-.117-.827-1.011-.7l-.307-.238-.24-1.708.376-.9-.155-1.1-.716.1-.317-2.26,1.184-1.629q-.116-.827.779-.951l-.078-.552-.9.125.053-2.874c.3-.042.486.214.563.765q.94-.132.784-1.236l.186-.306-.263-.244-.268.038-.117-.828Zm-2-60.314-.061,1.189.447-.064.37-.613Zm.421,6.237.077.55.447-.062.37-.614Zm1.137,27.888.564.765-1.042.708q.063.442,1.011.7-.063-.441,1-.984l.262.244-.378-1.071-.185.307-.448.064-.116-.828Zm-.135-7.456.046.331.623-.426-.077-.551-.223.032Zm.557,3.969.039.275.339.8.224-.031.415-.621Zm.342-4.376.086.606.224-.031.624-.426-.078-.551-.223.031Zm.011,2.021.116.827.492-.069-.039-.275Zm3.621-22.262-.207,1.771.223-.031.555-.922-.124-.882Zm.984,59.895.039.276,1.587,1.238.37-.614.9-.126,2.367,1.916.185-.307-.039-.275q-.9.126-1.088-1.253l.022-1.465-.508,1.252-.492.069-1.689-.662-.893.463Zm.806,7.363.671-.095,1.094.97.039.276-2.057.289L156.7,191Zm.753-35.857.116.827.224-.031.677-.377-.039-.275Zm.267-36.068.671-.095-.116-.826Zm.42,27.653.086.606,1.118-.157-.086-.606-.176.362-.224.031Zm.185-21.724.078.552.524.487-.154-1.1Zm1.651-9.675q.162,1.158-1.179,1.346l-.271-.3-.06,1.189,1.341-.189.431-1.8-.039-.277Zm-1.31,63.366.077.551.491-.07-.154-1.1Zm1.451-27.636.155,1.1.755.175.214-1.716Zm.364-7.471q.671-.093,1.765.876-.115-.826.554-.921.063.443,1.76,1.159l-.078-.551q-1.074.15-2.253-1.427l-1.386.195Zm.835,34.171.039.277.754.174-.039-.275-.262-.245Zm.9,4.428.24,1.708.262.245.039.276-.715.1q.062.442,1.541.908l-.039-.276-.263-.244-.038-.276.184-.306-.709-.182q-.113-1.446.47-1.527l-.525-.488Zm.638,6.487q1.251-.175,2.073,1.451l.224-.032.078.552-1.041.708-.447.063a3.506,3.506,0,0,0-1.257-2.128Zm-.139-9.424.533.543.362-.668Zm.154-32.006.379,1.071.447-.063.369-.614-.524-.488Zm.1,4.258.077.552,1,1.884.223-.031-.24-1.709c-.3.042-.486-.213-.564-.765Zm.359-2.635.163,1.157.223-.031-.162-1.158Zm.527,5.378c.078.55-.048.85-.375.9l.077.551.862-.683-.116-.827Zm1.779,29.2.588,4.189a3.377,3.377,0,0,0,2.022,1.4l-.039-.276-1.165-1.8.284-1.221-1.049-.977-.194-1.378Zm.2-3.456-.185.306.116.827.224-.031q-.115-.826.331-.89l-.038-.276Zm.392-2.079.2,1.433.362-.669-.34-.8Zm.589,4.189.039.275.347.851.224-.031-.038-.276-.348-.85Zm.408-.338.078.551.9-.407-.155-1.1-.554.921Zm.478-32.951.425,1.4.6-.927-.577-.538Zm.818,35.354.116.828-.022,1.464.224-.031.369-.615-.24-1.709Zm1-.983.077.551.263.244.447-.064-.039-.275-.525-.487Zm2.1-.014.262.245.263.243q.447-.063.6,1.04l.754.175.185-.307-.077-.551-1.542-.908Zm1.809-3.683.077.551.417,1.346.224-.031-.009-1.685-.262-.244Zm3.33.657-.37.613a7.106,7.106,0,0,0,1.066,2.717l-.654,1.835.447-.062q-.078-.552.593-.647l-.124-.882-.417-1.346.855-.4.308.237.184-.306-.386-1.127-1.116.494-.27-.3.185-.307-.078-.551Z"/><path d="M173.161,108.252l5.948-.836.263.244.184-.307,5.724-.8.04.275-.331.889.039.276.223-.031.593-.646.492-.069c.3-.042.515.414.649,1.37l.71.182L193,146.553l-.223.032-.27-.3-.224.031-.177.363.038.276,1.05.976.356,2.536-.447.063.185-.307-.039-.276-.671.094a4.825,4.825,0,0,1-.69,3.526l-1.118.157.2,1.434c.448-.064.736.365.865,1.283l.447-.062c.238-.035.446-.83.621-2.393l1.08-.432,4.439,31.585-.37.614-.447.062-1.055-.694-.225.032c.078.551-.033.847-.33.889l-.939.132q-.449.063-.564-.763l-1.341.188q.115.827-2.657,1.216l-1.118.157-.978-.143-.856.4-3,.421-.787-.732-.086-.607q.72-4.935,1.615-5.061l-.047-.33-.524-.49.124.882-1.21-.166.125.882-.03,1.409-.448.063-3.959-28.168q-.076-.549,1.981-.84l.331-.89-.571-.819-.233-1.653.324-.945-.117-.827-.224.031c.068.478-.254.9-.962,1.26l.269.3-.1,2.88-.448.062-.532-.544-2.177-15.489,1.163-.163-.078-.551-.569-.482-.632.37-2.967-21.112.37-.614.447-.062.793.45-.038-.275-.572-.82-.077-.551.184-.307-.039-.275-1.386.194-.674-4.8Zm1.876,4.908,2.095-.014.186-.306-.124-.883-1.611.225Zm.052,7.187.417,1.347.415-.621-.117-.826Zm.856-10.463.492-.069.362-.669-.078-.552-.224.032Zm.368,9.11.262.244.038.276-.184.307.047.331,1.239.388.225-.031-.039-.276-.694-1.364Zm2.546,4.814.24,1.709.185-.307.224-.032.262.245.194,1.378-.363.668-.447.064q-.125-.88-1.286-.719l-.895.126.078.551q1.833-.258,3.656,2.972l1.162-.164-.039-.276q-1.118.159-1.811-1.207a1.483,1.483,0,0,1,1.37-1.935l-.68-1.59q-.939.132-1.218-1.853Zm.577-2.385.262.244-.185.306.124.883,1.124-.44.671-.094-.038-.275-.8-.788-.224.032-.185.306-.262-.244Zm1.055,10.755.047.331.865,1.285,1.163-.164-1.851-1.483Zm1.714-5.973.039.275.263.244-.178.363.078.55.677-.376-.085-.606-.57-.481Zm.046,30.179.039.275.224-.032.414-.619-.038-.276-.225.031Zm1.442,1.82.039.275a3.489,3.489,0,0,1,.718,1.867l.185-.306.224-.031,1.063.749-.124-.882-1.435-1.766Zm.395,2.811.116.827.448-.062-.039-.276Zm.9,4.765-.4,2.023.756.512,1.749-.864-.039-.275q-1.711-.489-1.843-1.427Zm-.2,13.518.039.276.894-.126-.116-.827-.447.063Zm.112-14.124.224-.032q.885-.516.823-.959l-.492.07Zm1.344-15.422.357,2.535.571.819q1.332-.581,1.263-1.077l-.039-.275-1.124.438-.564-.764-.038-.275.022-1.465Zm.134,12.628.085.606,1.386-.194-.085-.607Zm.172,22.965.392.845c.633-.463.953-.9.956-1.314l-.039-.276-.9.126Zm.542-37.68-.186.307.117.827.185-.307,1.2.112.555-.921Zm1.612,34.512q1.665.5,1.8,1.488l.269-.037q.954-1.314,1.626-1.41l-.525-.487-2.057.289-.749-.458Zm.512-16.149-.185.307.039.276.671-.094Zm-.133-12.629.077.551,1.058,1.033.224-.032-.038-.275-.448.063-.047-.331.516-1.2Zm.474-6.362.307.238.117.827q.077.55-.639.653l-.184.306.038.276,1.164-.163-.31-2.206Zm-.1,25.535.124.882.524.488.224-.031.37-.614a.794.794,0,0,1-1.019-.757Zm.614-66.7,9.839-1.383q12.925-1.816,19.963,6.076l.185-.308.039.276-.185.307a34.1,34.1,0,0,1,6.376,15.517l.156,1.1q1.355,9.645-1.9,16.344l-.448.063.039.275.348.851-1.378,1.879-.224.032-.077-.551-.447.063-.108.857.347.852q-3.872,6.838-19.928,9.095l-5.277.742-.524-.489-.992-7.055.331-.89-.525-.487-.752-5.347.363-.67,8.72-1.226a2.885,2.885,0,0,1,2.182.593l.671-.094-.04-.275-.347-.85q6.456-3.72,5.263-12.208l-.2-1.433q-2.821-9.046-9.53-8.1-.085-.606-1.427-.418l-2.279.659-.27-.3-.039-.276-1.441,1.1-1.2-.112-.047-.331.186-.307-.039-.275-.447.062-.816,1.014-2.057.289-.533-.543-1.9-13.505Zm.057,26.692.078.552.671-.095-.525-.489Zm.308,30.423-.254,1.441.086.607a1.966,1.966,0,0,0,.654-1.835l-.262-.244Zm2.246,4.294-1.834.258q.078.55,2.436.781l.224-.031.369-.614-.124-.882Zm-1.776-5.821.124.881.525.489.223-.032-.124-.882-.525-.488Zm3.223,14.5q.24,1.709-.475,1.809l-1.38-.086q.115.826-.376.9l.038.275,1.24.388q1.086-.714,1.008-1.266l.224-.032.263.245.223-.031c-.079-.776.016-1.184.284-1.221A1.431,1.431,0,0,0,194.124,175.962Zm.615-2.11.124.883.71.181.23-.313-.046-.332-.793-.451Zm.214,8.008.241,1.709.223-.031.292-1.165-.386-1.126Zm.776-35.69.039.275,1.386-.194q.24,1.708,2.414,2.247l.185-.308-.047-.331q-1.341.189-1.613-1.74l.363-.67-.832-.726-.633.37-.038-.275Q195.66,145.673,195.729,146.17Zm.2,36.172.039.275.362-.67-.038-.275Zm.97-64.5.524.489.186-.308-.04-.275Zm.541,2.229.116.827-.447.063-.039-.276Zm1.736-17.5,1.163-.164-1.408,1.659-.047-.331Zm.58,42.413,1.957.624.185-.307-.046-.331q-.314.045-.826-1.006l-.263-.246-.447.063Q199.961,143.833,199.759,144.985Zm1.944,3.774.116.828.447-.064-.116-.827Zm.95,1.89.116.827.414-.62-.038-.276Zm.368-.951.039.275,1.117-.157-.039-.275Zm2.1-4.848.077.552.6,1.039.9-.408-.685-1.309Zm6.671-23.927.456,1.622.447-.064-.262-.244-.039-.275.292-1.165Zm4.879,1.618.525.489.185-.308-.039-.275Zm1.938-16.068.447-.062q.078.55.748.457l.117.826-.448.064q-.447.063-.563-.764l-.224.031.078.551-.671.1Zm.987,21.953.078.551,1.386-.194.085.605.223-.032-.085-.6-.793-.451Z"/><path d="M252.173,97.372l13.684-1.924.526.489.906,6.449-.363.669-.447.064c-.066-.477-.535-.993-1.4-1.546l-.078-.551-.224.031-.184.308-.224.031,1.743,2.34L265.1,105l.224-.032,1.863-1.667.263.244,4.934,35.113-1.118.157-1.287-.719c.109.772-.136,1.2-.731,1.284q.231,1.653-.215,1.716l-1.163.164-.748-.458-.324.946.263.244,1.342-.19.077.552a2.2,2.2,0,0,1,2.027,1.121l.332-.89q-.672.094-.749-.456l-.241-1.709,1.387-.2.524.49.2,1.432q-.715.1-.638.653.939-.132,1.811,1.206l.473,3.362-1.3,2.432,1.162-.164-.154-1.1.447-.063,1.736,12.348q-.286,1.221-.956,1.315l.524.488.633-.369,1.1,7.827-.447.062c-.129-.918-.344-1.356-.64-1.314l-1.5-.633.039.275q.063.442,1.5.633l.424,1.4.039.275-.555.921-.492.069-1.542-1.244.046.331,1.35,1.5-.107.859.223-.032q1.386-.194,1.232-1.3l.671-.095.317,2.26-.369.613-1.387.2-.748-.457-.37.614-1.61.226q-.447.063-.564-.763l-1.386.2q.117.825-.331.889l-1.118.158-1.58-1.184-.223.031.193,1.378-2.728.384-.116-.826-1.387.194.04.275.491-.068.078.551-.94.132-.524-.489-.039-.275.323-.944-.193-1.379-.447.062-.357-2.535.662-1.779q-.123-.882-.795-.788l-.261-.244-.28-1.985.37-.613.939-.132.748.456.671-.095-.262-.243-1.2-.393-.724-1.586-.447.063.193,1.378-.447.063-1.5-10.694.37-.614.223-.031,1.464.356.046.331,1.072-.488,1.833-.258c-.051-.366-.376-.51-.972-.426l-.077-.55-1.61.226-.525-.488.061-1.189q-.9.126-1.328-2.961l-.222.368-.67.094-.533-.543-.31-2.206.671-.093-.27-.3-.039-.276.108-.858-.865-1.285L251.8,97.986Zm2.135,10.324.077.551.569.482.186-.307-.039-.276-.525-.487Zm2.1-10.075-.324.944.224-.031.624-.426Zm1.889,43.3,1.318.939.67-.095Q260.181,141.049,258.293,140.919Zm1,8.741q1.185,0,1.395,1.49a1.738,1.738,0,0,0-.738,1.566l-.447.062-.356-2.536.184-.307Zm0,0q1.185,0,1.395,1.49a1.738,1.738,0,0,0-.738,1.566l-.447.062-.356-2.536.184-.307ZM259.265,99.8l.077.551.262.244.447-.062-.038-.276-.525-.488Zm.057,38.384.195,1.378.447-.062-.194-1.378Zm.308,7.377.046.33q.717-.1,1.541.908l.224-.031.554-.922-.871-1.338-.225.032A2.076,2.076,0,0,1,259.63,145.565Zm.27-41.241.039.275,2.921.995.262.246.223-.033-.417-1.345-.078-.552.324-.945-1.789.252Zm2.317,51.22c.1.736.006,1.123-.292,1.165l-.754-.175-.185.307.124.882c.477-.066.754.175.832.726l.224-.031q-.2-1.433.916-1.59l.716-.1A2.584,2.584,0,0,0,262.217,155.544Zm.027-16.361.085.607.525.487-.163-1.157Zm1.16,5.008.017,1.741.787.732.077.552-1.079.432-.671.095-.29,1.5.038.275.569.482.224-.032,1.079-.432.418,1.346.224-.031-.233-1.653q.447-.063.292-1.165l.223-.369.222-.032.942.206-.047-.331q-.078-.55-1.541-.908l-.418-1.346-.046-.33.492-.07-.039-.276q-.716.1-.793-.45Zm.165-38.415.577.537.447-.062-.085-.607Zm.257,34.928.155,1.1.716-.1-.039-.277-.34-.8Zm.432,22.872.716-.1.362-.669-.671.094Zm.227-5.2.447-.063.369-.614-.447.063Zm.83-13.888.039.276,2.56,1.664-.156-1.1a3.214,3.214,0,0,1-1.518-2.372c-.239.033-.4.525-.478,1.472Zm.078,10.612.038.277c.626-.088.992.235,1.094.97l.447-.063a2.834,2.834,0,0,1,.81-2.362Q265.315,154.549,265.393,155.1Zm.283,18.567.608.758.633-.371-.379-1.071Zm.077-21.2.67-.095.185-.307.223-.031-.339-.8Zm.011,16.636.078.551.223-.031.37-.613Zm.536-7.55.077.55c-.448.063-.645.279-.594.645l.671-.094.107-.857-.038-.276Zm.059-22.943.532.543q1.9-1.11,2.041-2.029l-.262-.244A3.243,3.243,0,0,1,266.359,138.6Zm1.142,33.116.525.489.715-.1-.077-.551Zm.013-3.149.039.275.493-.069c-.057-.4.137-.638.585-.7l-.078-.552Zm.519-16.431.039.276q.062.442,1.767,1.213l-.086-.607c-.448.064-.709-.181-.786-.732l-.263-.244Zm1.355-3.339-.71-.18.155,1.1.672-.094q-.156-1.1,1.377-1.88l-.078-.551-.223.031Zm-.338-20.581.355,2.536.492-.07.108-.858-.732-1.639Zm.681,26.267.039.276.939-.132-.307-.239-.039-.275Zm.164,12.849.038.276.617.813.078.55q.115.828-.825.96l.039.276,1.164-.164.03-1.41Q270.4,167.38,269.9,167.337Zm.711-16.682.077.552q.834-.568.779-.953Zm.327-15.841-.245,1.5.038.277.857-.4-.426-1.4Zm-.2,23.525.039.275.224-.031q-.066-1.114,1.679-1.361l-.156-1.1Q270.573,157.237,270.728,158.339Zm.653-13.526.078.551,1.386-.195-.116-.827Zm1.083-5.6.394,2.811-.447.063-.077-.551-.5-1.952.184-.309Zm0,0,.394,2.811-.447.063-.077-.551-.5-1.952.184-.309Zm.279,33.463.077.55.716-.1-.078-.551Zm.943-15.029-.1,1.2.715-.1.061-1.188Z"/><path d="M270.334,95.5l-.186.306-.179.026-.516-.434.184-.306.224-.032Zm42.944-4.012q.078.55-1.893,1.783l.032.221,1.111.125c-.072-.515.04-.793.339-.835l.357,1.243-.456,1.3.039.275-.626.088-.516-.433-.171-1.213a1.757,1.757,0,0,1-1.63-.558l.031.221-.21-.195-.178.025-1.272.685-.556-.709.571-.812-.032-.221-.516-.432a1.832,1.832,0,0,0-1.684,1.979l-.223.031.255.19.039.275-.378.559-1.476.207c-.119-.846-.328-1.246-.625-1.2l-.18.024a1.818,1.818,0,0,0-.6,1.884q1.206-.169,1.277.326l-.179.026.28.691.268-.038q.447-.063.346-.779l.141-.3.671-.094.7.408q.277,1.985-1.2,2.192c-.041-.294-.42-.392-1.136-.291l-.077-.551-.671.1q-1.555,3.535-1.913,3.585-.4.057-.233,1.269l-.192.251-1.073.151-1.1-.069.031.22.58,1.212-.192.251.447-.063c.3-.042.4-.392.308-1.054q.447-.063.626,1.2l.224-.032-.291,1.5.268-.038.889.157.061.441-4.964.7-1.506-.013-1.893.492-14.177,1.992a2.77,2.77,0,0,1-1.876-.692l-.4.057.21.194.1.717-.178.026-.255-.19-1,.365-2.773.39-1.543-1.245-.17-1.212.338-.835.21.195.715-.1-.692-1.363-.4.056-.208-1.488.894-.126.5.941.039.276.224-.032.378-.558-.039-.276q-.582.082-1.506-1.305l.058-1.527c.981.051,1.494.24,1.539.571l.171,1.213q.626-.089.805,1.179l1.474.748.178-.025-.131-.937,1.3-.182.132.936-.864,1.64.069.5.224-.031q-.169-1.21,1.127-1.395l.224-.031a1.6,1.6,0,0,0,1.282,1.337l.031.22-.447.063.069.5.626-.088,1.675-.741-.07-.5-1.45-.583-.325.608-2.079-2.462.115-.8-.223.031q-.985.14-1.569-1.747a1.929,1.929,0,0,0,.857-1.694l.671-.094.517.434.031.219-.045,1.3.192-.252.179-.025,1.322.32-.179-1.268-.184.307-.4.057-.108-.772.824-.622.225-.031-.032-.221q-1.519.215-1.589-.282l-.071-.5.116-.8-.224.032-1.367-.314.192-.252-.03-.221L276.017,97q.24,1.708-.609,1.829l-.99.42-.5-1.953-.193.252-1.52.213q.209,1.49-.238,1.551l-1.3.183-.209-1.488q-.063-.441,1.2-.9-.247-1.764.2-1.826l1.521-.214.069.5.224-.031q-.139-.993.262-1.049l3.8-.534,1.59,1.575-.248-1.764.224-.031.7.408.671-.094.556-.584,12.657-1.779q.4-.057.51.715l.224-.032c-.072-.515.04-.792.339-.834l4.74-.666.473.439.039.276-.194.252.032.22.223-.032.9-1.363,8.364-1.175.069.5-.333.553-.031-.221-.64.315.079.551,1.073-.151q.4-.057.6,1.377l.224-.031.2-1.828.447-.063.271.3.223-.031.177-.363A2.093,2.093,0,0,0,313.278,91.483Zm-38.256,9.143-1.118.157-.473-.44,1.236-.624.255.19Zm-1.145,7.749-.179.025.031.22q.387,1.464.835,1.4l.224-.031-.14-.993Zm1.553-12.3c-.417.059-.661-.168-.734-.684l-.324.608-.271-.3-.4.057.178,1.268.223-.031a2,2,0,0,1,1.369-.643Zm2.945.823-.224.032-.289.545.428.447Zm1.24-.905-.224.031-.332.553.032.221.4-.057.191-.252Zm.727.629-.333.552.28.692.223-.031Zm1.853-.767-.85.119L282.813,97l.194-.252Zm1.163,11.192q-1.074.15-1.252-1.118l-.223.031.055,2.016,1.3-.182Zm2.326-12.976-.447.063.078.551-.255-.188-.223.031-.6.309-.03-.221-.332-.74-.179.025.108.772a3.443,3.443,0,0,1,1.925,2.989l.447-.063-.764-2.2.384-.5Zm1.844,13.119-.254-.188-.672.094q.1.717-.748.836l.1.716q.842-1.13,1.381-1.206l.069.5.224-.031Zm1.514-4.483-.4.056-.014,1.52-.179.024a2.382,2.382,0,0,1-1.622-.5l-.224.031.063.44c.047.331.367.455.964.371l.432,1.457,1.03-.145Zm-1.718-4.762-.18.025.132.937.4-.057-.031-.22Zm.711-2.4-.179.024-.526.8.179-.024Zm.315-1-.262-.244-.224.032.039.275.224-.032-.193.253.07.5.223-.032Zm9.01,77.092-3.889-27.671.485-1.417-.34-.8-.038-.276.177-.362-.671.095-.3-2.15.361-.669.671-.094.316.293q-.427-3.031.467-3.158l-.385-1.125.378-.56,1.609-.227-.077-.551c.595-.083.868-.309.816-.676l-1.833.258-1.165-.174.047.331-1.31.745-.223.031-.525-.487-1.471-10.474.447-.063.186,1.323.447-.062.267-1.668,1.041-.708.185-.308-.671.095-.594.645-.939.132-.525-.488-.27-1.929.185-.308q.671-.094.546-.976l-1.119-1.473-.348-2.48.447-.064-.193-1.378-.564-.762-.039-.277.37-.614.94-.132.077.551-.492.069.039.277,1.385-.2-.116-.827,2.729-.383.193,1.378.224-.031,1.193-1.573,1.118-.157q.445-.063.563.764l1.386-.2q-.115-.828.331-.89l1.611-.226.524.488.594-.645,1.387-.2.524.488.31,2.205-.671.094q-.155-1.1-1.541-.907l-.224.031.34.8-.886,1.81.038.276,1.149-1.567.492-.069.787.733.039.275-.03,1.409q-1.334.582-1.271,1.023l.039.275,1.271-1.021q.447-.063.253-1.441l.447-.063,1.085,7.717-.71-.181-.377.559q.671-.094,1.28,1l1.7,12.127-.447.063-.154-1.1-1.163.163,1.912,1.922.465,3.308c-.313,1.021-.783,1.572-1.409,1.66.046.33.308.463.786.4l.2,1.432-.37.616-1.387.194-.24-1.709c-.051-.366.146-.582.594-.645l-.556-.71a2.194,2.194,0,0,1-1.648,1.582l.078.55-1.342.189-.185.307.572.82.592-.647,1.163-.163q.447-.063.672,1.535c.6-.083.948.261,1.058,1.034l1.039-1.046,1.118-.158,3.54,25.191Zm-6.413-66.721-.925-.095.07.5.894-.126Zm.015-10.288-.4.057-.518.859.618,1.15.179-.025.333-.553-.395-1.181Zm.464,6.23-.4.057.139.992.69.69.224-.032-.039-.275Zm1.707,4.032-.224.032-1.482.489.1.716q1.029-.144,1.2,1.068.834-.228,1.141-1.621Zm-.368,32.429-.255-.188-.356-2.535.447-.064a1.736,1.736,0,0,0,1.141,1.3q.2,1.435-.939,1.762Zm2.445-7.593-.715.1q-1.119.157-1.313-1.222l-.223.032c.072.515-.131.8-.608.873l.124.882.263.244.677-.376c.3-.042.5.3.6,1.039A2.58,2.58,0,0,0,295.21,129.717Zm-1.8-16.05.068-1.134-.71-.181-.376.9Zm.008-11.3-.627.088.031.22.28.692.447-.064Zm.049-9.057-.447.063-.123.748.255.189,1.073-.15-.031-.221Zm.932,24.153-.525-.49-.224.033.078.551Zm-.043,6.189.671-.095-.532-.543-.716.1Zm2.018-26.534c-.716.1-1.094,0-1.136-.291l.115-.8a2.021,2.021,0,0,1-1.4.7l.069.5c.041.3.417.484,1.129.573l.194-.253.578.874-.448.062.039.277.85-.12Zm-.623,44.888.222-.032.47-1.528-.787-.732-.224.031c-.343.8-.755,1.23-1.231,1.3l.047.331A2.076,2.076,0,0,1,295.752,142.007Zm.163,2.787-.671.094-1.016,1.21C295.415,145.671,295.976,145.234,295.915,144.794Zm2.923-50.27.1.717-.179.025-.393-1.181-.447.062.069.5-.85.119-1.042.372-.6-1.376.179-.026-.358-1.242-.222.031-.194.251-.223.031.8,2.419-.447.063.07.5,1.566-.22.178,1.268.774-.334.656.133.241,1.709-.518.859-.254-.189-.4.056-.385.5.671-.095.07.5-.756,1.119-.223.031-.218-.251-.185.308-.223.031-1.113-.125.071.5,1.737.037-.14.3.07.5.178-.026q-.068-.5,1.05-.653-.09-1.28.447-1.355l1.884.747-.108-.773-.492.07-.1-.716.237-.259-.039-.275,1.113.125.178-.026-.07-.5L299.7,98.73l.184-.306-.039-.276-.709-.181-.232-1.654-.895.125-.147-1.047.447-.062.077.551.224-.032.633-.37.038.276q.078.55,1.608.73l-.132-.937Zm-2.992,19.925-.078-.551-.715.1-.37.614Zm-.041-10.674-.223.032-.386.5.671-.094Zm.136,24.657.447-.062-.516-.434-.447.063Zm.584-3.961-.039-.275-.34-.8-.671.095q.078.551.748.456l.078.551Zm.311-6.226-.078-.551q-.671.094-.749-.457l-.491.069.032.22Zm1.867,23.347q-.078-.552.638-.653l-.039-.275-.492.069-.046-.331.037-1.354q1.31-.746,1.232-1.3l-.047-.331-.848.456-.223.031-.316-.293q-.153-1.1-.6-1.04l-.225-1.6-.223.033-.031,1.409-1.156-.118-.224.031-.422.565.039.276.693,1.364.671-.095,1.156.118.078.551-.562.867.464,1.678Zm-2.292,6.729L296.224,147l-.447.063.187,1.322Zm.816-43.51-.849.119c.037.258.356.477.959.654Zm2.578,26.451a2.675,2.675,0,0,1-1.42-1.992l-.447.063q.154,1.1-.785,1.233l.039.276Q297.261,131.339,299.805,131.262Zm-.882-14.715-.417-1.347-1.164.163.04.275q.939-.131,1.054.7l.078.551-.376.9.038.275Q298.655,117.878,298.923,116.547Zm.375,17.6.115-.8-.224.031-.262-.244-.67.093Zm-.345,12.472-.163-1.158-.369.614.085.606Zm1.222-34.461-.078-.552-.714.1.077.552Zm-.076,32.557.116-.8-.04-.276-.715.1.147,1.048Zm.36-3.929q.5,1.278.857,1.228a3.151,3.151,0,0,1,.814-2.643l-.147-1.048-2.01,2.25.038.275Zm.749-7.975.185-.306c-.078-.552.108-.86.555-.922l-.086-.607q-1.427,1.212-1.363,1.654l.038.275Zm2.548-4.911-.148-1.048q-1.743.245-1.988-.844l-.224.031.039.276Q301.591,127.416,303.756,127.9Zm-1.524,2.462-.031-.22.23-.314-.939.132.038.276Zm16.656-30.109L318.7,101.8l.224-.032.178-.025.341,2.426-.581.082-.054-1.679-.039-.276-.178.025-.445,2.03-2.549.358-.1-.717-.447.064c.067.477-.035.735-.3.773l-10.287,1.445q-.132-.937-1.653-.722l-.192.251-.5-.661-.1-.715q-.069-.5,1-.648l-.039-.276c-.714.1-1.105-.087-1.172-.565l-.171-1.213.333-.552.894-.126c.068.477.25.7.548.654l1.042-.372-.262-.243-.031-.221-.192.252-.626.088-.518-.434-.108-.772a1.776,1.776,0,0,1,1.708-1.476l.268-.038.332.74,1.183-.671c.088.626.489.885,1.2.785l.278,1.984.895-.125.209,1.488.218.251.031.22q.671-.093.531-1.087l1.266-.4-.217-.251-.031-.22-.193.251-.492.069-.726-.628-.364-.96-.626.087.185-.307-.07-.5-1.359-.259L307.2,97.9l-.4.057-.349-2.481.849-.119,1.1.07c-.066-.477.034-.736.3-.773l.938-.132.279.692a1.95,1.95,0,0,0-1.233,2.252l.224-.032q.448-1.355,1.3-1.474l.509.378-.184.307.178,1.268,1.3-.183c.3-.042.482.177.549.654l.447-.063q-.2-1.434,1.006-1.6l-.217-.251-.039-.275.092-2.261-.255-.189.448-.064q.1.717.548.655l.67-.095-.069-.5-.447.063.046-1.3-.063-.442-.223.031.061.442-.4.056-.4-.9,1.118-.157.1.717.85-.12.192-.251.179-.026a1.312,1.312,0,0,0,1.429.756l.108.771-.525.8-.554-.372-1.146.61.071.5.848-.12.039.276-.385.5-.254-.188-.179.025.069.5.612,1.431.447-.062a5.461,5.461,0,0,1,1.027-3.4l.178-.026Zm-14.564,36.56.224-.031-.078-.552q-1.687-.323-1.835-1.371l-.669.094.146,1.047.641-.315Zm.986,10.261.185-.308q-.384-.787-2.513-1.332l-.362.669A3.279,3.279,0,0,1,305.31,147.071Zm-1.486-54.71-.307-.237-.581.082.682.635.237-.259Zm.521,41.355q-.054-.384-1.01-.7l.078.551Zm.8-7.644-.386-1.127-.715.1.43,1.121Zm2.036,12.867-.116-.827-1.386.194.078.552ZM306.7,91.113l-.656-.132-.194.251.047.331.7.408.185-.306Zm.168,10.6-.224.031-.6.307.14.993.447-.063.263-1.049Zm.757,2.14-.378.56.07.5.224-.031.587-.366-.031-.22Zm.65,44.541.022-1.464-.933-.15.039.276.648,1.369Zm-.4-4.5-.262-.244-.048-1.961-.077-.551.447-.063.387,2.756Zm.386,11.188.26-1.723-.34-.8-.492.069.349,2.481Zm4.3-53.444q-1.119.159-1.4-.533l.084-1.023-.463-1.678-.582.082,1.062,3.335.472.439.447-.062ZM313.645,88.9l.07.5-1.08.433-1.514-.069.377-.558Zm-.079,12.1-.626.088.07.5.6-.308Zm1.345-1.145-.447.064c.041.3-.207.477-.744.553l.07.5.927-.861.225-.032Zm2.683-8.808-.981.475q-.627.088-1.98-1.746l-.222.032-.14-.992,1.654-.232,1.36.258Zm-1.048,7.792-.262-.245-.179.025-.562.867.262.244.062.441q.171,1.212-.724,1.338l.109.771.267-.037A7.139,7.139,0,0,0,316.546,98.837Zm-1.255,3.717.132.937.384-.5Z"/><path d="M356.465,82.379l.085.606c-.3.041-.4.43-.292,1.164l-.222.369-.224.032-.941-.207.047.332q.077.551,1.541.908l.418,1.346.046.331-.493.07.039.275q.716-.1.793.451l.448-.063-.017-1.74-.787-.733-.077-.551,1.079-.433.671-.095.29-1.5-.038-.275-.57-.483-.223.032-1.08.432-.091-.323,3.533-.5a12.639,12.639,0,0,1,.421,2.02l.222-.369.671-.093.532.543.309,2.2-.67.094.27.3.039.276-.107.858.864,1.283,6.368,45.311q.916,5.55,5.074,7.55l.039.276-.185.306-.268.039-.262-.245.078.551,1.833-.258.078.552,2.42-.622.537-.075,1.58,11.245-.089.012-.263-.243-1.3.181-.229.314-.263-.244.078.55,1.828.026.077.55-.185.307.638.642.588,4.189a16.463,16.463,0,0,1-2.078.46q-.672.094-.788-.731l-.223.031-.108.857a16.6,16.6,0,0,1-6.021-.334q-11.618-3.48-16.913-22.018l-6.267-44.6,1.117-.156,1.288.719q-.163-1.159.731-1.284-.231-1.653.215-1.716l1.163-.163.749.456.322-.945-.263-.244-1.341.189-.077-.552a2.2,2.2,0,0,1-2.028-1.12l-.331.889q.671-.093.749.457l.24,1.709-1.386.195-.525-.488-.2-1.433c.477-.068.69-.284.639-.652q-.941.132-1.812-1.208l-.472-3.362.687-1.276,3.4-.478a2.474,2.474,0,0,1-1.358,1.371l.077.551.224-.031,1.192-1.573.71.182-.085-.606Zm-7.814,10.6-.4-2.811.446-.063.078.552.5,1.953-.185.307Zm1.082-5.6-.078-.552-1.387.194.116.828Zm.446,10,.246-1.5-.038-.276-.856.4.425,1.4Zm1.885,6.594-.356-2.537-.492.069-.108.859.733,1.64Zm2.692-10.384-.534-.544q-1.894,1.109-2.041,2.029l.263.244A3.242,3.242,0,0,1,354.756,93.58ZM355.8,87.7l-.04-.275L353.2,85.759l.155,1.1a3.224,3.224,0,0,1,1.519,2.372q.357-.05.477-1.473Zm-1.31,40.656.165.2,0-.338Zm2.8-36.874-.155-1.1-.715.1.038.276.34.8ZM358.87,93l-.086-.607-.525-.489.164,1.158Zm2.614-6.383-.046-.331q-.715.1-1.541-.907l-.224.031-.554.921.871,1.34.225-.032A2.069,2.069,0,0,1,361.484,86.619Zm-1.739,51.228.223-.031.069-1.135-.447.064Zm.609-1.829.053.049.447-.062-.008-.055Zm1.567-54.407.046.33-.184.308.038.275a1.25,1.25,0,0,1-1.2-.73Zm.9,9.654-1.317-.939-.671.1C360.9,90.9,361.562,91.181,362.821,91.265ZM361.792,94l-.195-1.378-.447.063.194,1.378Zm-.071,48.182.039.277.525.487C362.208,142.391,362.019,142.136,361.721,142.178Zm.9-5.3-.024,1.464c.079.551.266.807.564.765a4.834,4.834,0,0,1,.13-2.324l-1.05-.977-.223.032-.185.308Zm.041,5.166-.124-.882-.492.068Q362.17,142.115,362.661,142.047Zm2.008,4.551.894-.125-.039-.276-.972-.426Zm1.963-2.581.124.883.447-.062-.124-.883.031-1.409-.447.062Zm1.56-7.076.709.181-.077-.551-.524-.488Zm1.58,11.245.224-.031-.116-.827-1.119.156C368.8,147.742,369.133,147.976,369.772,148.186Zm-.9-4.764.571.819.193,1.378.709.182a1.8,1.8,0,0,1,1.782-1.938l-.047-.33-3.024-.418-.223.031Zm2,7.756q.447,1.569,2.769,1.86l.224-.031.184-.308-.038-.275-.262-.245q-2.585-.534-2.693-1.307l-.223.031Zm1.548,7.765.492-.069-.195-1.378-.492.069Zm0-14.559.263.244.078.55.67-.094.186-.307q-.062-.441-1.011-.7Zm1.876,1.985.047.33,1.748-.864-.155-1.1-.263-.244-1.8.533Zm2.293,6.254.2-3.456-.038-.277-1.933,1.171-.757-.511A3.857,3.857,0,0,0,376.6,152.623Zm-1.37,1.934.224-.031-.525-.488-.224.031Zm1.572-.5,1.118-.157-.039-.275-1.157-.118Zm.657,3.056,1.118-.157-.077-.551-.671.095Zm4.426-78.192a1.252,1.252,0,0,1-.95,1.032l-.038-.276-.262-.245-.047-.33Zm8.273-1.163.085.605.633-.369,1.58,1.183.223-.032-.077-.551a2.469,2.469,0,0,1-1.683-.943l3.4-.477,1.012,1.037.472,3.362q-.468,1.53-1.408,1.66c.052.367.316.518.793.45l.2,1.434-.37.613-1.385.2-.241-1.709q-.077-.55.594-.646l-.563-.764q-.569,1.487-1.641,1.636l.077.552-1.341.188-.185.307.571.819.594-.645,1.163-.163q.446-.063.68,1.59.893-.126,1.056,1.032l1.039-1.046,1.118-.157,6.267,44.594q.018,19.28-10.189,25.828a16.616,16.616,0,0,1-5.7,1.98l-.34-.794-.223.031q.115.827-.555.92a16.432,16.432,0,0,1-2.125.131l-.589-4.189.436-.792-.262-.244-.078-.551,1.751-.529-.078-.55-.185.306-.306-.237-1.3.183-.185.306-.09.013-1.58-11.245.537-.075,2.5-.07-.077-.551,1.833-.258-.077-.551-.184.307-.269.038-.263-.244-.039-.277q3.446-3.069,2.8-8.656l-6.368-45.311.477-1.471-.339-.8-.039-.276.177-.362-.671.094-.31-2.2.362-.669.671-.094.314.293a12.486,12.486,0,0,1-.152-2.058l3.533-.5,0,.337-1.157-.118-.224.031-.414.619.039.277.693,1.364.671-.095,1.157.12.077.55-.555.922.464,1.677.448-.064c-.052-.366.161-.584.638-.651l-.039-.275-.492.069-.046-.331.029-1.409c.873-.5,1.284-.931,1.232-1.3l-.046-.331-.849.457-.222.031-.316-.293c-.1-.734-.3-1.082-.6-1.04l-.086-.6Zm-6.268,6.67.224-.032.469-1.527-.787-.733-.223.032c-.345.8-.755,1.23-1.231,1.3l.045.331A2.079,2.079,0,0,1,383.888,84.426Zm.171,2.842-.671.095-1.006,1.266Q384.16,87.987,384.059,87.268Zm.512,3.639-.193-1.379-.448.064.194,1.378Zm2.748,54.926-1.873-.018-.185.307.156,1.1,1.919.349-.046-.331Zm-1.061-50.386q.506,1.335.864,1.285a3.215,3.215,0,0,1,.807-2.7l-.155-1.1-2,2.306.038.275Zm.847-6.3-.163-1.157-.369.614.085.606Zm1.177,55.428q-.841.511-.777.953l.261.243.671-.093-.078-.552.186-.307Zm.28,6.537-.671.094.078.551,1.118-.158Zm.57-59.551.107-.859-.038-.275-.716.1.155,1.1Zm.336,41.66-.37.616.078.55.632-.37Zm2.855-11.811-.585.7-2.182-.593.039.276,1.144,3.267A3.855,3.855,0,0,0,392.323,121.408Zm-1.46,4.533-1.079.433.038.276,1.118-.157Zm2.3,12.493-.223.032-2.791,1.234.047.331a1.8,1.8,0,0,1,2.245,1.371l.632-.37-.193-1.378.322-.944Zm.305-48.778.186-.308q-.393-.841-2.522-1.386l-.362.668A3.242,3.242,0,0,1,393.47,89.656Zm-.511,36.271-.224.032-.37.615.224-.032Zm2.842-4.109-.222.032q.108.774-2.229,2l-.184.308.039.275.262.244.223-.032q2.152-.919,2.151-2.551Zm-1.368,20.766-1.118.157.116.827.224-.031Q394.487,142.97,394.433,142.584Zm-.2,8.009-.492.07.194,1.378.492-.07Zm.784-22.65-.262-.245-.223.031-.739,1.229a4.834,4.834,0,0,1,.764,2.2c.3-.042.408-.34.331-.891l-.425-1.4Zm.3-46.584-.117-.827-1.386.194.077.552Zm-.209,55.959-.447.063.418,1.346.124.882.447-.062-.124-.882Zm1.333-46.337.023-1.464-.934-.15.039.275.649,1.37Zm-.412-4.551-.262-.244-.055-2.015-.077-.552.447-.064.394,2.812Zm.19,46.459-.492.07.124.882Q396.341,133.772,396.217,132.889Zm.228-35.05.252-1.779-.34-.8-.492.07.356,2.536Zm-.531,29.641.008.055.447-.063.036-.061Zm.544,7.118.37-.613-.039-.276Q396.342,133.772,396.458,134.6Zm.883-6.7-.448.063.378,1.071L397.5,129Zm.666,11.879-.818.677.039.275.895-.126ZM400.42,121.9l.09.324.1-.238Z"/><path d="M399.056,76.505l5.949-.836.261.244.186-.307,5.723-.8.04.276-.332.89.04.276.223-.032.593-.646.493-.069q.445-.063.649,1.371l.709.181,5.306,37.758-.223.032-.271-.3-.223.031-.177.362.039.276,1.049.976.356,2.536-.447.064.185-.308-.039-.276-.671.095a4.821,4.821,0,0,1-.69,3.525l-1.118.157.2,1.434q.671-.095.864,1.284l.446-.063q.36-.051.623-2.392l1.079-.433,4.439,31.585-.37.614-.447.063-1.055-.694-.225.031q.117.826-.33.889l-.939.132c-.3.041-.486-.212-.564-.763l-1.341.188q.115.826-2.657,1.216l-1.118.157-.977-.143-.857.4-3,.421-.787-.732-.085-.606q.718-4.935,1.614-5.061l-.047-.33-.524-.49.124.882-1.209-.167.124.882-.03,1.409-.448.063-3.958-28.167q-.078-.551,1.98-.84l.331-.891-.571-.818-.233-1.654.324-.945-.117-.827-.223.032q.1.717-.963,1.259l.269.3-.1,2.88-.448.062-.532-.543-2.177-15.489,1.164-.164-.079-.551-.569-.482-.632.371-2.968-21.112.371-.615.447-.062.793.45-.038-.275-.572-.82L400.6,82.3l.185-.306-.038-.276-1.387.2-.674-4.8Zm1.876,4.908,2.1-.014.185-.307-.124-.882-1.611.226Zm.052,7.187.417,1.347.414-.621L401.7,88.5Zm.856-10.463.492-.069.362-.669-.078-.552-.224.032Zm.368,9.111.261.244.039.276-.184.307.047.331,1.24.387.224-.032-.039-.275-.694-1.364Zm2.547,4.813L405,93.77l.184-.306.224-.033.262.245.194,1.377-.362.67-.447.063q-.125-.881-1.287-.719l-.894.126.077.551q1.833-.258,3.655,2.972l1.163-.164-.038-.275q-1.119.158-1.812-1.208a1.484,1.484,0,0,1,1.37-1.935l-.68-1.59q-.939.132-1.218-1.853Zm.576-2.385.262.244-.184.306.124.883,1.124-.439.67-.095-.038-.275-.795-.788-.224.032-.184.306-.263-.244Zm1.055,10.755.047.331.865,1.285,1.163-.163L406.61,100.4Zm1.715-5.973.038.275.263.244-.177.363.077.55.677-.376-.086-.606-.568-.482Zm.045,30.178.039.276.224-.031.414-.621-.038-.275-.224.031Zm1.443,1.822.038.275a3.485,3.485,0,0,1,.718,1.866l.185-.306.224-.032,1.063.75-.124-.881-1.434-1.767Zm.394,2.811.116.827.448-.063-.039-.276Zm.9,4.765-.4,2.022.756.513,1.749-.864-.039-.276q-1.712-.489-1.843-1.427Zm-.2,13.517.038.277.895-.126-.116-.827-.448.062Zm.113-14.124.223-.032q.885-.516.823-.959l-.492.07Zm1.343-15.422.357,2.535.571.82q1.334-.581,1.263-1.078l-.039-.275-1.123.438-.564-.763-.039-.275.022-1.465Zm.134,12.629.085.606,1.387-.2-.085-.607Zm.172,22.965.392.844q.951-.695.956-1.314l-.039-.276-.9.126Zm.542-37.681-.186.307.117.826.185-.306,1.2.112.555-.921ZM414.6,150.43q1.666.5,1.806,1.489l.268-.038q.954-1.314,1.627-1.409l-.526-.488-2.057.289-.748-.457Zm.513-16.149-.186.308.04.276.67-.095Zm-.134-12.628.077.551,1.058,1.032.224-.031-.038-.276-.448.063-.047-.331.516-1.2Zm.474-6.362.307.237.117.827c.051.367-.161.585-.639.653l-.184.306.039.276,1.163-.164-.311-2.2Zm-.106,25.534.124.882.526.489.223-.032.371-.614a.792.792,0,0,1-1.019-.756Zm.616-66.695,9.838-1.383q12.925-1.817,19.963,6.075l.186-.307.038.276-.185.306a34.1,34.1,0,0,1,6.376,15.518l.156,1.1q1.355,9.646-1.9,16.344l-.447.063.039.275.348.851L449,115.13l-.225.031-.077-.551-.447.063-.108.857.348.852q-3.873,6.838-19.929,9.095l-5.277.742-.524-.488-.993-7.055.331-.89-.524-.488-.751-5.347.361-.669,8.722-1.226a2.88,2.88,0,0,1,2.181.592l.671-.094-.039-.275-.347-.851q6.456-3.717,5.262-12.207l-.2-1.433q-2.822-9.046-9.53-8.1-.085-.606-1.427-.418l-2.279.658-.27-.3-.039-.276-1.441,1.1-1.2-.112-.046-.331.185-.307-.039-.275-.448.062L420.08,88.5l-2.058.29-.533-.544-1.9-13.505Zm.056,26.691.078.552.671-.095-.524-.488Zm.308,30.424-.253,1.44.085.607a1.967,1.967,0,0,0,.654-1.835l-.262-.243Zm2.246,4.293-1.834.258c.052.367.864.63,2.436.782l.223-.031.369-.615-.123-.882Zm-1.776-5.821.124.881.525.49.223-.032-.124-.882-.525-.489Zm3.223,14.5q.24,1.708-.475,1.809l-1.38-.087c.077.551-.049.851-.376.9l.039.275,1.239.387q1.086-.713,1.009-1.266l.224-.031.261.245.224-.031c-.079-.778.016-1.184.284-1.222A1.427,1.427,0,0,0,420.019,144.216Zm.615-2.111.124.883.71.182.23-.314-.046-.331-.794-.451Zm.214,8.009.241,1.709.223-.032.292-1.165-.387-1.125Zm.776-35.69.039.275,1.387-.195q.24,1.709,2.414,2.247l.184-.307-.047-.331q-1.341.188-1.612-1.741l.361-.67-.831-.726-.633.37-.039-.275Q421.554,113.926,421.624,114.424Zm.2,36.17.038.276.362-.669-.039-.275Zm.969-64.5.524.489.186-.307-.04-.275Zm.542,2.229.115.827-.447.063-.039-.276Zm1.736-17.5,1.162-.163-1.408,1.658-.047-.331Zm.579,42.413,1.957.625.185-.308-.046-.331c-.209.03-.484-.3-.826-1.007l-.262-.245-.447.063C425.975,112.069,425.789,112.47,425.654,113.238Zm1.943,3.774.117.828.447-.063-.116-.827Zm.951,1.89.116.827.415-.619-.039-.276Zm.368-.95.039.275,1.118-.157-.039-.275Zm2.1-4.849.077.552.6,1.04.9-.409-.685-1.309Zm6.67-23.927.457,1.622.448-.064-.263-.243-.039-.275.292-1.166Zm4.88,1.619.525.488.185-.308-.039-.275Zm1.939-16.069.447-.062q.077.551.748.457l.115.826-.447.063q-.447.063-.563-.763l-.223.031.077.551-.671.1Zm.986,21.952.078.552,1.386-.194.085.605.224-.031-.086-.605-.793-.452Z"/><path d="M4.181,189.1c.15.069.3.134.447.208a2.306,2.306,0,0,0,.4.213,1.731,1.731,0,0,0,.438,0c-.01-.188.046-.418-.042-.555a1.48,1.48,0,0,1-.215-1.009c.214-.048.32-.027.433.208a6.312,6.312,0,0,0,.648.877c.229.317.437.649.662.968a3.8,3.8,0,0,0,.991,1.109,1.194,1.194,0,0,1,.7,1.014.489.489,0,0,0,.059.21c.4.861.83,1.71,1.2,2.584.311.733.563,1.492.825,2.245.149.43.258.873.4,1.307q.281.874.578,1.744c.147.429.292.86.466,1.278.135.324.325.624.471.944a18.208,18.208,0,0,1,.83,1.913,9.014,9.014,0,0,1,.235,1.55,10.7,10.7,0,0,0,.443,2.56c.2.5.239,1.061.46,1.546a14,14,0,0,0,1.149,2.095c.626.921,1.334,1.786,2.014,2.67a4.925,4.925,0,0,1,.887,1.639,9.935,9.935,0,0,0,.46,1.384c.166.362.255.8.7.982a1.318,1.318,0,0,0,1.492-.491,10.955,10.955,0,0,0,.862-1.825,3.378,3.378,0,0,0-.07-2.214,4.038,4.038,0,0,1-.22-1.5,2.042,2.042,0,0,0-.448-1.528.9.9,0,0,1-.152-.861,5.26,5.26,0,0,1,1.831-2.806,2.063,2.063,0,0,1,1.944.018,1.355,1.355,0,0,0,.833.173,7.007,7.007,0,0,1,1.893.168,6.2,6.2,0,0,1,1.771,1.013,6.31,6.31,0,0,1,1.272,1.328,3.446,3.446,0,0,1,.64,2.867c-.116.494-.3.974-.446,1.46a.812.812,0,0,0-.06.209,3.717,3.717,0,0,1-.315,1.59c-.3.613-.583,1.235-.9,1.839a7.96,7.96,0,0,1-.529.774,1.107,1.107,0,0,1-1.309.424c-.378-.139-.755-.279-1.135-.412a.511.511,0,0,0-.658.278c-.2.412-.373.833-.568,1.245a1.306,1.306,0,0,0,.232,1.292c.279.475.591.932.9,1.387a1.85,1.85,0,0,0,.822.677,6,6,0,0,0,1.477.366,11.352,11.352,0,0,1,1.763.523c.424.139.844.293,1.26.453.476.183.938.4,1.419.566.588.2,1.188.366,1.787.53.714.2,1.425.42,2.152.548a8.564,8.564,0,0,0,3.058.134c.851-.157,1.706-.292,2.557-.453.789-.149,1.572-.334,2.363-.472.474-.084.96-.1,1.438-.161.424-.055.843-.14,1.267-.2.466-.064.934-.126,1.4-.165a22.493,22.493,0,0,1,2.414-.152,7.659,7.659,0,0,1,2.612.464c.441.172.918.257,1.349.447a15.341,15.341,0,0,1,1.659.862,8.418,8.418,0,0,0,2.282,1.253c.311.074.1.352.135.467a4.35,4.35,0,0,0-.629.59c-.068.094-.009.316.048.457.067.166.153.32-.023.448a.363.363,0,0,1-.534-.056c-.418-.479-.827-.966-1.255-1.436a3.35,3.35,0,0,0-1.752-.821c-.108-.029-.355.071-.36.128a.72.72,0,0,0,.113.487c.243.3.546.545.8.835a1.513,1.513,0,0,1,.181.437c-.172.05-.38.187-.507.133a5.288,5.288,0,0,1-.833-.522c-.283-.189-.558-.391-.847-.569-.643-.4-1.3-.763-1.935-1.176a2.046,2.046,0,0,0-1.692-.355c-.863.229-1.713.507-2.569.763-.537.159-1.077.31-1.612.475s-1.042.358-1.573.5c-.774.206-1.555.391-2.338.558a17.442,17.442,0,0,1-6.2.016c-.992-.146-1.984-.291-2.972-.464-.853-.15-1.7-.349-2.549-.511a4.736,4.736,0,0,0-2.233.088,7.449,7.449,0,0,0-2.411,1.4,8.773,8.773,0,0,0-1.426,1.3,17.093,17.093,0,0,0-1.259,1.815.6.6,0,0,0,.236.812c.667.383,1.353.735,2,1.146.6.377,1.154.812,1.725,1.226A8.288,8.288,0,0,0,30,238.1a3.066,3.066,0,0,0,1.821-.118c.679-.228,1.382-.386,2.075-.572.05-.013.106,0,.155-.018a22.884,22.884,0,0,1,7.471-.438,12.145,12.145,0,0,1,1.783.161,3.679,3.679,0,0,1,1.251.556,2.78,2.78,0,0,1,.8.857,3.9,3.9,0,0,1,.5,1.264,3.184,3.184,0,0,1-.142,1.6,6.563,6.563,0,0,1-1.661,2.5A13.778,13.778,0,0,0,42.373,246c-.559.851-1.117,1.705-1.724,2.521-.456.612-1,1.156-1.484,1.749-.571.7-1.132,1.411-1.668,2.139-.442.6-.848,1.228-1.259,1.852-.484.736-.95,1.485-1.435,2.22a10.239,10.239,0,0,1-2.739,2.758,5.635,5.635,0,0,1-.929.482.617.617,0,0,0-.391.855c.2.614.36,1.238.568,1.847.16.473.369.929.551,1.395.276.707.544,1.417.822,2.123.19.482.41.953.581,1.441a9.973,9.973,0,0,1,.443,1.528,16.666,16.666,0,0,1,.29,2.4c.039,1.4.055,2.8-.032,4.188a30.575,30.575,0,0,0,.065,4.313,6.089,6.089,0,0,0,.048.691,3.428,3.428,0,0,0,1.013,1.815,14.07,14.07,0,0,1,.985,1.1.951.951,0,0,1-.005,1.012c-.462.592-.944,1.168-1.416,1.752-.227.281-.444.569-.676.845a.964.964,0,0,0-.2.734q.1,1.428.181,2.858a1.517,1.517,0,0,1-1.058,1.5c-.088.028-.211.061-.245.129-.146.288-.4.248-.646.249q-.63.006-1.261,0a.645.645,0,0,1-.555-.847,9.267,9.267,0,0,1,.582-.953,1.835,1.835,0,0,1,.128-.138,1.765,1.765,0,0,0,.192-2.048,4.877,4.877,0,0,1-.381-1.481c-.077-.739-.072-1.489-.077-2.234-.012-1.534,0-3.069-.019-4.6a5.993,5.993,0,0,0-.177-1.207c-.174-.784-.372-1.562-.569-2.341-.166-.655-.377-1.3-.508-1.963-.2-.982-.339-1.975-.5-2.963-.1-.588-.176-1.18-.287-1.765a14.239,14.239,0,0,0-.433-1.98,13.037,13.037,0,0,0-.878-1.88c-.338-.639-.763-1.233-1.074-1.884a14.848,14.848,0,0,1-.485-1.51,8.1,8.1,0,0,0-1.164-2.327,24.088,24.088,0,0,1-1.587-2.278c-.522-.872-.953-1.8-1.421-2.7-.313-.607-.64-1.208-.928-1.826a6.948,6.948,0,0,1-.432-1.2c-.068-.266-.21-.312-.405-.229a2.011,2.011,0,0,1-1.587-.013,1.7,1.7,0,0,0-.4-.077.672.672,0,0,1-.652-.707c-.025-.492-.127-.544-.613-.554a5.756,5.756,0,0,1-1.549-.185c-.288-.089-.5-.43-.739-.667a.805.805,0,0,1-.16-.264c-.178-.435-.563-.618-.927-.865a2.807,2.807,0,0,1-.63-.868,1.09,1.09,0,0,1,.166-1.291,4.735,4.735,0,0,0,.414-.909c.168-.436.317-.879.471-1.321.19-.547.4-1.09.56-1.645.2-.689.4-1.382.541-2.086a1.774,1.774,0,0,0-.122-.861c-.151-.44-.367-.858-.546-1.289-.124-.3-.242-.6-.345-.9-.3-.875-.6-1.748-.872-2.632a16.957,16.957,0,0,1-.324-5.525c.012-.44.063-.88.059-1.32a5.133,5.133,0,0,1,.61-2.437c.384-.737.764-1.476,1.154-2.21a5.081,5.081,0,0,1,.341-.522,4.263,4.263,0,0,0,.536-2.99,13.32,13.32,0,0,0-.25-1.773,7.478,7.478,0,0,0-.526-1.466c-.388-.825-.834-1.623-1.236-2.442-.315-.641-.616-1.289-.892-1.947-.171-.41-.279-.847-.426-1.268-.188-.54-.383-1.078-.581-1.615-.154-.418-.323-.83-.474-1.249a19.558,19.558,0,0,1-.83-3.784c-.138-.929-.355-1.848-.524-2.773-.151-.823-.264-1.653-.431-2.472-.162-.8-.37-1.584-.558-2.376a.871.871,0,0,1-.047-.182,2.326,2.326,0,0,0-1.079-1.719A6.252,6.252,0,0,1,6,193.657c-.029-.043-.076-.086-.081-.132-.041-.433-.365-.689-.608-1-.212-.269-.413-.547-.624-.817-.147-.187-.051-.349.069-.479a.313.313,0,0,1,.475-.043c.286.257.554.534.851.778a1.24,1.24,0,0,0,.4.142c-.018-.159.023-.377-.065-.469-.438-.456-.9-.891-1.376-1.307-.266-.234-.6-.391-.851-.637-.1-.1-.063-.347-.088-.527Zm28.348,62.268v.036c.21,0,.421-.008.63,0a1.036,1.036,0,0,0,1.251-.867c.147-.437.305-.869.469-1.3.185-.489.389-.97.57-1.461.148-.4.265-.813.415-1.213a12.875,12.875,0,0,1,.546-1.324c.208-.409.485-.782.726-1.175.034-.056.066-.15.041-.195a.209.209,0,0,0-.188-.052c-.413.111-.82.248-1.235.352-.811.2-1.619.436-2.442.573a28.938,28.938,0,0,1-2.908.33,1.911,1.911,0,0,0-1.146.5,3.94,3.94,0,0,1-.84.527c-.312.144-.344.195-.1.447a.761.761,0,0,1,.031,1.074c-.252.281-.521.547-.769.831a.8.8,0,0,0-.236.394,5.769,5.769,0,0,0,.26,2.268c.141.413.344.8.513,1.208.343.819.687,1.638,1.021,2.461.145.358.28.721.4,1.089.143.448.255.905.393,1.354.077.249.2.266.376.065a7.085,7.085,0,0,0,.525-.627,1.477,1.477,0,0,0,.318-1.548,4.383,4.383,0,0,1-.369-2.725,1.067,1.067,0,0,1,1.182-1.018C32.152,251.368,32.341,251.367,32.529,251.367Z"/><path d="M431.41,34.7c-.539-.168.378-.873.365-1.25a2.68,2.68,0,0,0,.3-2.154,4.04,4.04,0,0,0-2.134-1.834,48.014,48.014,0,0,0-10.126.209c-.983.028-1.807.879-2.791.491a12.925,12.925,0,0,1-2.8.223c-1.013.127-2.607-.052-3.02,1.1a3.068,3.068,0,0,0,1.772,2.385c1.218.617,2.8-.234,3.866.674a16.246,16.246,0,0,1-5.8-.44c-3.873-1.028-7.632-2.6-11.64-3.1-1.933-.357-3.808.288-5.726.366-.561-.461-1.119.011-1.353.545-.628.311-1.529-.091-2.265-.045-1.241-.674-2.681-.069-4.009-.047-.862.457-.389,1.689-.261,2.462a1.847,1.847,0,0,1-.088,2.051,5.186,5.186,0,0,0,1.466,3.889,1.55,1.55,0,0,0,1.679.842c1.847-.152,3.471.829,5.23,1.115.554.93,1.751.947,2.585,1.486a12.777,12.777,0,0,1,3.316,1.834c1.332.522,2.689,1.027,4.043,1.518a5.666,5.666,0,0,0,3.38,2.475c.782.288.219,1.291-.353,1.381-1.417-.066-2.1,1.279-2.473,2.4-.129,1.538.1,3.542,1.735,4.28a3.052,3.052,0,0,0,3.419-.058,11.044,11.044,0,0,0,2.7-2.5c.489-.191,1.354-.326,1.611.193.549,1.112,1.859,1.514,2.312,2.7.2.713,1.072,1.03,1.116,1.745.787,1.166,1.287,2.554,2.032,3.766.207,1.557-.284,3.263.4,4.777-.323.511-.089,1.041-.2,1.6-.232.53.392.746.212,1.217.063.741-.6,1.1-1.275,1.118-.676.424-1.915.308-2.149,1.2a8.87,8.87,0,0,1,2.413.164,7.393,7.393,0,0,1,.868,0c1,.03,2.732.1,2.719-1.267-.544-.213-.44-1.076-.261-1.422.549-.066.364-.486.142-.772a17.631,17.631,0,0,0,.393-4.227c-.154-1.52.511-3.027.125-4.523-.146-1.163-1.156-2.014-1.042-3.22.029-2.047-1.1-4.1-.3-6.108,1.033-1.654,1.972-3.385,2.85-5.132a39.459,39.459,0,0,1,2.566-4.826c.758-.576-.447-.814-.655-1.222-.129-.654-1.137-1.034-1.008-1.644.141-.521,1.52-.5,1.059-1.116a7.343,7.343,0,0,1,1.973-.94c1.147-.774,2.186-1.914,3.663-2.119C432.137,34.514,431.645,34.528,431.41,34.7ZM407.1,42.683a1.515,1.515,0,0,0-.284.031c-.769-.153-1.551-.241-2.308-.44-1.218-.514-2.428-1.047-3.652-1.55a4.562,4.562,0,0,1-2.5-.867,10.48,10.48,0,0,0-3.263-.322c-.478-.422-1.174-.218-1.758-.187-.607-.469-1.426-.715-1.843-1.388-.2-.181-.443-.565-.734-.451a1.346,1.346,0,0,0,.075.963c.266.2.41.648.051.837a2.086,2.086,0,0,1-1.708.06,4.254,4.254,0,0,1,.554-2.753,2.13,2.13,0,0,1,1.123-.6c-.075-.256-.18-.51.194-.483a8.559,8.559,0,0,1,3.367.178,1.614,1.614,0,0,0,.849.213c2.029.093,3.847,1.109,5.834,1.415a7.94,7.94,0,0,0,1.559.5c.687.5,1.448.925,2.159,1.385a9.9,9.9,0,0,0,1.789-.166,7.171,7.171,0,0,0,2.24,1.27c.009-.375.464-.387.719-.24.321-.023.3.27.325.494.05.277.473.009.689.08.4,0,.905.037,1.122.417C410.159,41.574,408.734,42.462,407.1,42.683Z"/><path class="cls-2" d="M70.692,220.277l12.852-1.807q4.2-.59,6.57,1.114a7.556,7.556,0,0,1,2.891,5.389,7.8,7.8,0,0,1-1.447,6.244q-1.98,2.451-6.656,3.109l-4.233.6,1.306,9.286L74.208,245.3Zm9.265,9.575,1.894-.266a4.923,4.923,0,0,0,3.032-1.217,2.532,2.532,0,0,0,.625-2.116,2.808,2.808,0,0,0-1.066-1.887,4.114,4.114,0,0,0-3.068-.4l-2.2.309Z"/><path class="cls-2" d="M95.953,216.726l20.722-2.912.751,5.343-12.973,1.823.559,3.977,12.033-1.692.717,5.1L105.73,230.06l.693,4.933,13.347-1.876.8,5.667-21.1,2.965Z"/><path class="cls-2" d="M124.834,238.184l-3.516-25.022,12.886-1.811a18.953,18.953,0,0,1,5.566-.157,5.9,5.9,0,0,1,3.375,1.851,7.134,7.134,0,0,1-.75,10.4,9.4,9.4,0,0,1-2.577,1.371,5.3,5.3,0,0,1,3.564,1.781,10.234,10.234,0,0,1,1.3,1.4l4.763,6.725-8.737,1.228-5.208-7.066a5.888,5.888,0,0,0-1.67-1.733,3.275,3.275,0,0,0-1.976-.313l-.683.1,1.427,10.156Zm5.674-15.975,3.261-.458a11.784,11.784,0,0,0,2-.63,2.059,2.059,0,0,0,1.144-.961,2.558,2.558,0,0,0-.747-3.272,4.694,4.694,0,0,0-2.976-.242l-3.4.477Z"/><path class="cls-2" d="M148.439,209.35l19.117-2.686.756,5.377-11.351,1.595.614,4.37,9.7-1.364.71,5.053-9.695,1.363,1.437,10.223-7.767,1.092Z"/><path class="cls-2" d="M172.508,218.744q-.861-6.129,2.072-10.022t9.028-4.75q6.249-.879,10.1,2t4.7,8.922a15.55,15.55,0,0,1-.465,7.4,10.632,10.632,0,0,1-3.654,4.968,14.2,14.2,0,0,1-6.736,2.539,16.13,16.13,0,0,1-7.2-.363,10.646,10.646,0,0,1-5.1-3.635A14.283,14.283,0,0,1,172.508,218.744Zm7.737-1.053q.534,3.789,2.173,5.246a5.383,5.383,0,0,0,7.695-1.047q1.137-1.813.546-6.011-.5-3.534-2.149-4.963a4.926,4.926,0,0,0-4.1-1.086,4.743,4.743,0,0,0-3.522,2.182Q179.707,213.866,180.245,217.691Z"/><path class="cls-2" d="M204.458,226.994l-3.516-25.022,12.887-1.812A18.946,18.946,0,0,1,219.4,200a5.887,5.887,0,0,1,3.375,1.851,7.136,7.136,0,0,1-.75,10.4,9.487,9.487,0,0,1-2.577,1.371,7.859,7.859,0,0,1,2.142.638,7.963,7.963,0,0,1,1.422,1.143,10.124,10.124,0,0,1,1.3,1.4l4.762,6.725-8.737,1.228-5.206-7.066a5.907,5.907,0,0,0-1.672-1.732,3.269,3.269,0,0,0-1.975-.315l-.683.1,1.427,10.156Zm5.675-15.975,3.26-.459a11.628,11.628,0,0,0,2-.629,2.06,2.06,0,0,0,1.144-.962,2.558,2.558,0,0,0-.748-3.272,4.71,4.71,0,0,0-2.975-.242l-3.4.478Z"/><path class="cls-2" d="M227.944,198.177l10.169-1.429,6.06,14.674,1.754-15.772,10.163-1.43,3.517,25.024-6.332.89-2.682-19.083-2.2,19.768-5.733.806-7.551-18.4,2.681,19.083-6.333.89Z"/><path class="cls-2" d="M261.33,193.484l7.749-1.088,3.516,25.022-7.749,1.09Z"/><path class="cls-2" d="M274.677,191.609l7.22-1.015,11.368,12.519L291.32,189.27l7.288-1.024,3.517,25.022-7.288,1.025-11.3-12.422,1.931,13.738-7.272,1.023Z"/><path class="cls-2" d="M318.569,201.715l-.731-5.206,11.948-1.679,1.5,10.668a24.792,24.792,0,0,1-5.621,4.036,20.849,20.849,0,0,1-6.138,1.724,15.344,15.344,0,0,1-7.476-.5,10.5,10.5,0,0,1-4.988-3.912,15,15,0,0,1-2.513-6.677,14.56,14.56,0,0,1,.687-7.365,11.065,11.065,0,0,1,4.3-5.3,16.31,16.31,0,0,1,6.676-2.173,19.422,19.422,0,0,1,6.308-.121,8.119,8.119,0,0,1,3.741,1.851,10.418,10.418,0,0,1,2.6,3.716L321.6,193.16a4.073,4.073,0,0,0-1.865-1.947,4.916,4.916,0,0,0-2.914-.356,5.111,5.111,0,0,0-3.806,2.336q-1.262,1.977-.725,5.8.571,4.062,2.345,5.588a5.416,5.416,0,0,0,4.5,1.143,8.182,8.182,0,0,0,2.421-.723,13.534,13.534,0,0,0,2.518-1.66l-.331-2.355Z"/><path class="cls-2" d="M362.843,200.523l-8.778,1.234-.64,4.3-7.894,1.11,5.888-26.344,8.433-1.186,12.919,23.7-8.1,1.138Zm-2.364-5.185-4.027-8.608-1.469,9.381Z"/><path class="cls-2" d="M375.332,202.98l-3.517-25.022,12.887-1.812a18.946,18.946,0,0,1,5.566-.156,5.886,5.886,0,0,1,3.375,1.851,7.136,7.136,0,0,1-.75,10.4,9.472,9.472,0,0,1-2.577,1.37,7.858,7.858,0,0,1,2.143.64,8.064,8.064,0,0,1,1.422,1.142,10.038,10.038,0,0,1,1.3,1.4l4.763,6.724-8.737,1.228L386,193.683a5.907,5.907,0,0,0-1.672-1.732,3.274,3.274,0,0,0-1.976-.315l-.682.1,1.426,10.156Zm5.675-15.975,3.259-.458a11.665,11.665,0,0,0,2-.629,2.069,2.069,0,0,0,1.146-.963,2.56,2.56,0,0,0-.749-3.272,4.714,4.714,0,0,0-2.976-.242l-3.4.478Z"/><path class="cls-2" d="M396.838,174.441l23.5-3.3.868,6.178-7.886,1.108,2.648,18.845-7.731,1.086-2.648-18.845-7.886,1.109Z"/><path class="cls-2" d="M424.844,187.58l7.291-1.494a5.669,5.669,0,0,0,1.358,2.593,4.126,4.126,0,0,0,3.627,1.039,3.81,3.81,0,0,0,2.442-1.134,2.35,2.35,0,0,0,.644-1.927,2.317,2.317,0,0,0-1.1-1.62,9.971,9.971,0,0,0-4.165-.9q-5.245-.428-7.681-2.017A6.173,6.173,0,0,1,424.4,177.6a6.62,6.62,0,0,1,.606-3.8,7.485,7.485,0,0,1,2.983-3.169A15.825,15.825,0,0,1,434,168.783q4.8-.673,7.564.755a7.776,7.776,0,0,1,3.793,5.255l-7.228,1.451a3.439,3.439,0,0,0-4.243-2.694,3.123,3.123,0,0,0-1.95.858,1.764,1.764,0,0,0-.488,1.486,1.4,1.4,0,0,0,.716,1,6.351,6.351,0,0,0,2.722.557,32.829,32.829,0,0,1,7.575,1.19,7.717,7.717,0,0,1,3.581,2.326,7.1,7.1,0,0,1,1.519,3.563,8.011,8.011,0,0,1-.708,4.624,8.416,8.416,0,0,1-3.288,3.606,15.259,15.259,0,0,1-5.877,1.9q-6.384.9-9.187-1.217A9.785,9.785,0,0,1,424.844,187.58Z"/><path d="M461.626,216.859a2.417,2.417,0,0,1-2.025.567c-2.14-.422-4.28-.843-6.413-1.3a2.173,2.173,0,0,1-1.707-2.62q1.327-8.624,2.667-17.244c.574-3.705,1.14-7.41,1.732-11.111a2.851,2.851,0,0,1,.429-1.124,1.044,1.044,0,0,1,1.606-.356,16.377,16.377,0,0,0,9.548,1.889,1.49,1.49,0,0,1,1.783,1.848,7.573,7.573,0,0,1-.175.8q-3.453,13.713-6.918,27.422A8.252,8.252,0,0,1,461.626,216.859Zm-1.2-11.328a5.545,5.545,0,0,1-.595-.04,16.394,16.394,0,0,1-2.308-.46c-.552-.186-.716-.006-.788.453q-.609,3.9-1.205,7.8a.622.622,0,0,0,.541.793c.533.113,1.065.228,1.6.333a.653.653,0,0,0,.859-.543c.637-2.552,1.285-5.1,1.915-7.656A2.692,2.692,0,0,0,460.421,205.531Z"/><path d="M472.972,180.766a11.54,11.54,0,0,1-18.7-12.817c.278-.642.682-1.229,1-1.854a.776.776,0,0,1,1-.42c3.692.769,7.39,1.511,11.087,2.262,2.716.552,5.43,1.117,8.151,1.644a.731.731,0,0,1,.675.681A11.564,11.564,0,0,1,472.972,180.766Z"/><path d="M475.159,167.454l-17.732-3.6C462.419,159.075,471.787,160.42,475.159,167.454Z"/><path d="M452.733,216.87l7.622,1.549c-.911.709-1.646,1.292-2.4,1.852a.638.638,0,0,1-.455.075q-1.6-.306-3.195-.653a.635.635,0,0,1-.382-.259c-.458-.8-.892-1.6-1.334-2.41Z"/><path class="cls-2" d="M460.421,205.531a2.692,2.692,0,0,1,.018.681c-.63,2.554-1.278,5.1-1.915,7.656a.653.653,0,0,1-.859.543c-.534-.1-1.066-.22-1.6-.333a.622.622,0,0,1-.541-.793q.6-3.9,1.205-7.8c.072-.459.236-.639.788-.453a16.394,16.394,0,0,0,2.308.46A5.545,5.545,0,0,0,460.421,205.531Z"/><path class="cls-3" d="M456.861,218.972c-24.52,21.786-63,35.537-117.333,41-76.141,7.656-116.314-18.809-190-14-33.774,2.2-89.27,13.785-149,73"/></g></g></svg>